<mxfile host="app.diagrams.net" modified="2023-08-11T17:26:42.043Z" agent="Mozilla/5.0 (Windows NT 10.0; Win64; x64) AppleWebKit/537.36 (KHTML, like Gecko) Chrome/115.0.0.0 Safari/537.36" etag="2xst0SB3akxNq_bZo0pM" version="21.6.2" type="device">
  <diagram name="Page-1" id="gPEL2gKU7ka7wfXER2Y9">
    <mxGraphModel dx="1970" dy="484" grid="1" gridSize="10" guides="1" tooltips="1" connect="1" arrows="1" fold="1" page="1" pageScale="1" pageWidth="850" pageHeight="1100" math="0" shadow="0">
      <root>
        <mxCell id="0" />
        <mxCell id="1" parent="0" />
        <mxCell id="2QA-D09SwO_3PhxoTyu0-1" value="Cliente A: Copia su id para poder realizar la llamada al otro usuaro (Cliente B)" style="rounded=0;whiteSpace=wrap;html=1;" vertex="1" parent="1">
          <mxGeometry x="130" y="150" width="180" height="90" as="geometry" />
        </mxCell>
        <mxCell id="2QA-D09SwO_3PhxoTyu0-2" value="Cliente B: Es el que pega el id del cliente A para poder llamarlo (recordar que el websocket genera estos ids)&lt;br&gt;" style="rounded=0;whiteSpace=wrap;html=1;" vertex="1" parent="1">
          <mxGeometry x="530" y="150" width="200" height="90" as="geometry" />
        </mxCell>
        <mxCell id="2QA-D09SwO_3PhxoTyu0-5" style="edgeStyle=orthogonalEdgeStyle;rounded=0;orthogonalLoop=1;jettySize=auto;html=1;entryX=0;entryY=0.5;entryDx=0;entryDy=0;" edge="1" parent="1" source="2QA-D09SwO_3PhxoTyu0-3" target="2QA-D09SwO_3PhxoTyu0-4">
          <mxGeometry relative="1" as="geometry" />
        </mxCell>
        <mxCell id="2QA-D09SwO_3PhxoTyu0-3" value="Genero mi id y se lo entrego al cliente B" style="rounded=1;whiteSpace=wrap;html=1;" vertex="1" parent="1">
          <mxGeometry x="150" y="270" width="120" height="60" as="geometry" />
        </mxCell>
        <mxCell id="2QA-D09SwO_3PhxoTyu0-8" style="edgeStyle=orthogonalEdgeStyle;rounded=0;orthogonalLoop=1;jettySize=auto;html=1;entryX=1;entryY=0.5;entryDx=0;entryDy=0;" edge="1" parent="1" source="2QA-D09SwO_3PhxoTyu0-4" target="2QA-D09SwO_3PhxoTyu0-7">
          <mxGeometry relative="1" as="geometry">
            <Array as="points">
              <mxPoint x="425" y="370" />
              <mxPoint x="425" y="440" />
            </Array>
          </mxGeometry>
        </mxCell>
        <mxCell id="2QA-D09SwO_3PhxoTyu0-4" value="Pego el id y selecciono la opciÃ³n de llamada" style="rounded=1;whiteSpace=wrap;html=1;" vertex="1" parent="1">
          <mxGeometry x="580" y="320" width="120" height="60" as="geometry" />
        </mxCell>
        <mxCell id="2QA-D09SwO_3PhxoTyu0-6" value="Server WebSocket" style="rounded=0;whiteSpace=wrap;html=1;" vertex="1" parent="1">
          <mxGeometry x="890" y="150" width="260" height="90" as="geometry" />
        </mxCell>
        <mxCell id="2QA-D09SwO_3PhxoTyu0-7" value="Se le genera un mensaje al usuario indicando que el otro cliente quiere iniciar una llamada contigo" style="rounded=1;whiteSpace=wrap;html=1;" vertex="1" parent="1">
          <mxGeometry x="100" y="410" width="170" height="80" as="geometry" />
        </mxCell>
        <mxCell id="2QA-D09SwO_3PhxoTyu0-9" value="Envio la cadena de string del id generado por el ws" style="text;html=1;align=center;verticalAlign=middle;resizable=0;points=[];autosize=1;strokeColor=none;fillColor=none;" vertex="1" parent="1">
          <mxGeometry x="280" y="270" width="300" height="30" as="geometry" />
        </mxCell>
        <mxCell id="2QA-D09SwO_3PhxoTyu0-11" value="" style="shape=image;verticalLabelPosition=bottom;labelBackgroundColor=default;verticalAlign=top;aspect=fixed;imageAspect=0;image=data:image/png,iVBORw0KGgoAAAANSUhEUgAABCQAAALACAYAAABLk6OnAAAgAElEQVR4Aey9z8skx5XvrbVXBi+aUdu1srzQ9EqgtrjitY0tDNLAbdnQAjOmJbmxEZqN8Kptet4BPdgWdoPlxV2IeUSj2+NXumYWI8s2bu5KjBosRAsvmhZ0P3+E+h/oeMn4lREnTmRGVmXVUz8+i4d6Kisy4sQ5n4jM863IqEcWi4XhDx/AAAzAAAzAAAzAAAzAAAzAAAzAAAxskoFHNtkYbQE3DMAADMAADMAADMAADMAADMAADMBAxwCCBCtEWCEDAzAAAzAAAzAAAzAAAzAAAzAAAxtnAEEC6DYOHWooaigMwAAMwAAMwAAMwAAMwAAMwACCBIIEggQMwAAMwAAMwAAMwAAMwAAMwAAMbJwBBAmg2zh0KKEooTAAAzAAAzAAAzAAAzAAAzAAAwgSCBIIEjAAAzAAAzAAAzAAAzAAAzAAAzCwcQYQJIBu49ChhKKEwgAMwAAMwAAMwAAMwAAMwAAMIEggSCBIwAAMwAAMwAAMwAAMwAAMwAAMwMDGGUCQALqNQ4cSihIKAzAAAzAAAzAAAzAAAzAAAzCwsiBx/spF8+qvnzSPDyX2X3/SXHrrovn+hakOf8x859cXzatvhb9nzXe+PrWOsry1+a2L5tKPH2tMxr0dV841li/bbBps3k+vvvUNc37In3y23jjU/Bvj43kc475WzzYdX3psLsn4NvV9l2whTsNj/sI3kuvERfPquufqXWJnZ23tr//T7x32fH6yvM9zP9R0b7J2hs6Z70+6JxuOb9N96aLny91j7pM/h/2zesx73zE21+1r6l+dV3y4Cz5cUZBwF5GxCenxHz87LlqMXfBmvAAjSDA4Vx2cbTc8O+BnEt3hRHdsXtrU58SpMU4bEo9D3IlLY1yWmQtJeqrXqRnvh6ptBMY38noagkTC5N75M+nbhPjZe/WmL8QYm9sxbpaLM7bjt21kYCVBom3y0i807tyw8iF9rajUp3rB2PBN7oQLyDZCdQg2IUgwoW+UcxLfxsR3w3M1cWmMC/PFrPPFqd4PrSOW+n3isj6bfH3eO38uF6O2e/rl6l42lpyHv2HgMBhYQZBovPGrTPRu4quID1pCXqlnM6A29lWzm2N7ecM6+YZnWzkgodoNPolTY5w2PFcTl8a4HMYN1WbuRxZmcar3Q+uIJYLExtgZuBdBkFgH29S5DWxjw/ZzuLwg0XRBrN8cnoYgYZPIuB/F8J4Wsqx9xnDic8muDm0/CHfxjc85+5vauFfG4N4E/tzYD1G/rcsJPVkf1Dp9fGJdEwSi4qIm65qyR0c5UBwfycoZ1feyzdL+/gIryqr+KO2oTWLWtwN1ZL7v/Kva396e9Ie2/0lbm5If5+PysStZbgXOJN9vlXGq+bk8LuIY2ZW8jdi/cJ93/c59K/ppOZdtlva3cybrknYHJqT9epzaYh7qrL/aejpGRaxKLhZGtlmwmFwb8rKab+s2pbHPY1TzWVeX9++K423h+YhzsmA271cyT3kee7+5OFofWb/0ZfsywQcy5iVnqU+q//sYyvqtzXLOEvEu9y9K7E/m/J73YPuiYOdV4bPO3v48MQ4yu8RnSj1932fyme+bGteEpSEfSn870aCP90rXgCJOXb0lH23jpNFnglfdfhmrobGZsJKw5GLZc5b3QZkzCl+UfohxEmWLGAU7kjmrZyuxV9RT+j6Zd0TZYn4MbTa85r7QfSvLyDjZz+34yuPe25Uf7+e8wG4aAxnv0vfRf5KfeK1O6wtzQmhr9Xul2H6DfymbMI6/ENdPmYGlBYk44Q91wE/M2kXATaIDk5msd+yCIcsPvR+wK97QajdIyY1J00TmJ+Si/wN9GfSrt7u/kITkIJngk4thX85fcDL7y2OTY5L4+PwVEUvf996G9olPs6M7lvuxzX5Xl7vY9baU5zbFM+tvfTPXwtYQk8z/rf4INwC5fx//8TeyDV6b2lT4CQlo5lulnOUyfbY09CnbiEzz6znz/WwsBWbz/rT53/siqS/Ed7L9acIZ41LWHxPTWCbcQOX2Bzu6m7khzprGieJ/LU5NMU+YHfKxi2+e5Lg+pf308U38H+zKboL92Lc3ttFvmm/bxkCNvd7PaT2+ndhu+lnj/8rcFeKbcdb51seqOB797n1mb8b7ebrw7ZQ2Y92V/lRsKq4tNc4y3zn7pa+d/X1/7DhJuVjo4zz4cWycRFatX1IGkz7P6bMgZGV9KFkqfFhhoIhvmG8y3yZ9GYqp72fGmOKXtnHSNke32t80nw31LX6WjJMYg9L/rZy5OD1rLiWiTdmnxP+KPyODXeyiTe4c5+uUS2+rHefJcS12sc9J+8WxUF9SlxX00ut+KCPGYWdDYm8/5pK6Kna5sml9AzYO+ayo38c3sSvea6f3FWGcZOUGbCj8RtmeW3yBL3aLgSUFCTe5ZBdIZWKwk1tlYhm8OCh1zbpEsXLDZuFVJ1ntwtgSaO3i72/UKn5Rb3i8P/TPXBvxhtH3LUsQws1h0qZ+4Vm2n5ovfF1Jm62Tg97PvI1W+125cjVMSxtD9k4935bPLrx5f6ptqTy2nSvbVG1WxoJazt8oTOVM7ZeWCGljXh5TbNUEgyb7Kzc+kiv53vWnHCfLc1aOE9V+te8lB/bcJThz5yU3rNb3+dyi+0IRaPzNaGTFx7F2vspIiH2l3/W6ytgM1h/aia+188s42Xor9vVt+muAnAez8ya2GW0t4z9kU8FV09ySMxD6Vfd/YpPvY8qBO2/CfFy1cWafqe2UbRQ+7GKRxbLrv+6z5e5hShtsDKS9hQ0uDkWcKuVCXN3rKvZ7eyXvY8w2zse5nZ41hbOh+UzeG6n+HLO3aNP3u5h7K74cq1/GVytfK2OP92NMH3O6XQUvWrvhWK195X6z87GrO7nG1M4X9qsxDzbwyrf6MLA3DCwlSLRNWvqEFyaXMEkOLw9Lbm5qk9cyMA5clNUbjvDtyRLfbpS+GvaL3v7ATY60rdK3vN7KTU7lQhJiNvU1bzOJ5UjMIhvVm5p2+11dyUVwpO3WPk7tW8lBmz+mtpPan7dZ4a7gpVJuKc5qfay1USvvj6s3KrIu+T7UKZnRy+U+k+eEukpRcRXO8hjrdpVJT29LPeZ6mbR8+D+3IZyX9t//r41JyZAap1DntNc8Hsm51etBanNSvnXc+76kSXTwkWqL7HvRjounmgSFslPbDOfVXis2FTH25crl56nfdB5VXxT2lOdOHie1OM/ss8I3ti8lS2o56e8Rm8e+yAm82VdZd/CxaKMaD1EuiCXdfVfVjuIcz0PNlmCTf1V9JMpkfbSflax0Zar9yuorz9VtGJjDan3O2hkaFwN1V+tI68v/1+1XyhQCSFcm94fuw7xMiIdeNm83lK0LbLovZN22jw32x/aW8CPnVmKHL/cmid8nxpcQJNxko92wZY6xE3x96ZebnCYkipMvGAMDceDCql8I/AS7hCBRJBIjftHb77+FKQUc/+xdsK3St7xedzGq1qUlHWMTmG+3qHOZurq2rJ9qzxW22z+Zs7F++s9zf0rWavbVx0M2dqINU7gba9N9XoxbyUstjuH5z0mcOb+4GCSx9HUVtsR+S3+G9+WNThHfVvvFTVvwv6svxKnmU9+XhO3CjlpfavbFuhrjZOuv2RfsD34bf9V5TvlL/xf1+T7FePqxW014ar5Rjlu7AnvFq3b9GLBTqT/EPb76vmi2qzEeKO/q9DEK40azYaAOtU2tjvRYpT49xpIhyY7OYz5OHA/u2PA4n9yf2nW/0sfO55PbqArxJUuqD4UtNT+Ea6PGVuQvjWP3v6g7lhN+mTZOfL/ieMrH0ST7vX2hb/E1zmdirpD9i+/n5UyNUzXO4X4j90P0dWRqiG3v08n91vxTcpfaEv6v9TEIEkEEdfFcflyH9opXwWD2eXENKOfBVvuzeiMvmt84hq9gYJcZmC5IDE1CcbIYn1An3zQ0tdsIY+0iX71gjfenDkF+rp2EB25OxybpeNMffS36XOlbXm9uU912UfdIm+ECGOrL22ysS2nD1tPdPEW/tds/mTOl/dCf9LXeN3/hFTcm+k3BuE/q7aTntrSp3/CVN7yVctIvTZyF5EB+G9fYhmwzLOuNN9LdDaK8iWytWy+Xx2lmzsLNe+TYxTCPsW5XLU7ps8Idn7n9KSPD/+c2hLJp/9P/w+f+VbJQ3IyK8kVc659P78+AnS3tyr4k56i2DJR384WLZz93KX0dqENtM7EpnZPi/5X69Bgn9vi45Rtb6jxKu9z78XHuyskxm9gg+1a77lf6uOwY0H1TsqSWk7bUbJZ9a3kv6w7niDZkPCILoXzt1defzaOi7mpd4dzB+WwgtplN83Kmxkmu8kvbH+hzG9ueFXHdr/oubVv5X7c/92W9TO5LnY28TLBTL5u3G8rWV0iE65AQcJo50W2L7Sr+4rNKjPAVKyF2iIHJgkR9EkwGRO0imjjGTXwz3JgkdTZPSgP2qROyvVilCXHS15b27fmdQu0m2qFvSOr+LW+O1P5W+ibrle/Vulr6FpOgMpZztiHrku9r9k/mrLHP1fY9KzLGKlcNbTXZ39Smzo/tR7Z8Vy9X+LeJs9pN2nI3HG0+bLS/aYVE+WhG4Qcfw5Y41crkLOn2F3Fqinn7PJXb4M8TMa75vzhesa3mu8Hjtq5ybqmfo/uvXl76qHZ+7fgYy+7zQUGimijV2pQ2i/cibq7v3o6xhKnwt9Y/b1dcbu3fF3WX59bGQDU+hT2hrzXf1I6H8/TXguFuXHuO09hp48Sdm4gxqv/1dqv9jteG0of9ZoDJuKj6qaFdaa98H23J66rFUvPRcv0MiW34dr+dM9UG3y/1S52q/1rbrJXLfTbuB1e+5tvs/JrN4rjKduX6NyQyZG3H8ZEwGDnRmFX8IOyM9deOx/qVuviMxBsGdp6BaYJE44VKvRgIWJom3PScOSepoX7Ii5Z9/6y59OsVBIkgRFz5Rrb7cZyAk34O+s76IN3FX5mYK30r6vXl0pstzZ6mY4Vd/uLcfZNd3KQqNif9dzdb4QYklHUXuMzWRvsnc5bZEtovXwt/hvMUu2xZ+62+7FdZb+lv3/d48+/OyX5lo7FN6Qv7/tfdTuTJzXTXjyKeip2+TSm8SL+4vic3LcHW7NcolPqDP9PX1jmgxf7KDZnzURKnYK/4dkfGSfpWfm7fF3bp40TWpcZJsWsVzmTcYtKTjd/6OMxu8n0/JRuqT9L4qv8HHyUxUcsFhnz5kXgN2qLYL2PSnz9mn+Izzf5JbYa+1l5lm2EOyefjrk8yRo6h1Ne+f5GD0N/u28++XOs4r/ux0hfrl2T+SH03p8/8eIoc2/fldV/a7967b4JTXxb+SO2e+L+MiX1v5+3ULyEufUx6RhPfXvhG8itA7rjsU3dek/3e/9FnQVhb6rrvGO3rSm3r+1TYFeZBcT1xPnrSPB59LTlOfNKVGeCsrc2R+qMdot3q8TBm+753ccmu+8HfcWx2dcuxL0Wd0L7u77ASL7vXqtlY9Zn3xegcrPmstF/luGYTx3c+KSXeYYwe3uskQcJduPIJsoSnMtGJiSK9kMfnDm3Sllxkk4tNXia/sSpt0ALpJzrbhlhKltxY2br8hda16fprL0qjE6zWrjvmLmq6mFD3hVJe9Unps/TmqOtTeYHu7NJ9Is9t8a/sQ1eH3mbdR307pV3yRsWVLct1MUvtd3Yl/hEc9m2O2yX7mDKZ2Zfx42Lozh0bOzUb/IU7YTdrr+tTY5uBQ2u75dn5MPWZ9clsnEnbOx+4Nos+NMQmsz/xR3EDNWZ/xQY9TvNxJhmqjZOsn7U4Nca8hfGsveBXdb4rfVGw4+0qjjfEt2brmH3q574fS9khfJsm36WNQz7xn6m+FON9UpviXOlbwX/nA8telryExDO5HorPXV/z/tlxa21N57O2ce74H5mPhe3pPFsI3HP6LKur65vvk4hdxpr1l/OP5EyOddsP1b8jsQx2eJ6t/62PSj9mtlXGcWlXGsfelrJced8ly3Q+sDZM7qfzobwmuPpT+9o4k9fD/nrX9y8m38FP6Wtmf0ubvkx2XtKWHJ9N72W7yv2gYKPr57gPO7t0f9vxno2DXHhs9ll1DEtmW/q4qh85v7xm4RN8sn0MTBAk3MQhJ7siqMWNyvZ1urC56eJAP/AbDJwmA+5mW97Q9GLM6NzEOK9+e7JcEsF4OM3xQNvr5s8nS0KQwO/r9jv17zRjQYwoxk0QH1KBiVjvdKy5p6reUxHX6WO7XZCwQoOSDGRAcgEHwukQ4jN8Ns6An1u0b6D8DRCCxPIcIUgs77txdql7N33E/cxuxo3xdqpx8yss5Iqhzib3pQKCxKnGJ8vZGCvEYnsYaBckgBglDAZg4BQZ0FdIhG9dxsTS7Zl0t/ECiCABH9vI5enahCBxuv5nTO6k/2srJMKjIMXKCeK8k3E+xXtB/LWfYwZBgkFFkg0DO8OAEyWSZ9675361VRPEdFJMEST28wLPjdsqcUWQgJ9V+Dngc4Moke7LIfb3gq0D5oP7s0n3Z4cyVhAkGBgMDBiAARiAARiAARiAARiAARiAARjYOAMIEkC3cegORe2jn3wDAAMwAAMwAAMwAAMwAAMwAAN1BhAkECQQJGAABmAABmAABmAABmAABmAABmBg4wwgSADdxqFDIawrhPgG38AADMAADMAADMAADMAADBwKAwgSCBIIEjAAAzAAAzAAAzAAAzAAAzAAAzCwcQYQJIBu49AditpHP1G2YQAGYAAGYAAGYAAGYAAGYKDOAIIEggSCBAzAAAzAAAzAAAzAAAzAAAzAAAxsnAEEiTVD96ubfzAnJ/3fX99Q1KHLPzN/T8qc3P6ZeXnNdu2fSvei+Y/Ld82n331RH0Rv3DPHJw/N8e2PzPkm3x6ZV24/NMc3383q++XFu+bexaPs2G760vnr3mt3zb3L75iXmnyisMt5e8ACcd3NMUzciBsMwAAMwAAMwMDuM7BHgsSR+ebxXfPcTyoJ6WknTl50UAWJxDYrYCBITE7yrFDw2gfml4kvswlqJkFi8Y/vmE9fGxA+au1v2XHrL4SIyZxlTG1ZTLFt9y/IxJAYwgAMwAAMwAAMHBoDCBKbSipWFSSq53/b/P72H8zJzR8dbHL10nc/Mfde+8T8xz/OOYHpKyTsBPHUB6ZbWfCXp+Zsb5N1HZm/7LT9m/QVbR3aRZH+wjwMwAAMwAAMwAAMbI4BBAkEiR0XMlxyXX1UY+n4DggSi4UZXZGxdLti8D/1jnnu+K755vPi+Cr1+1UeuyuozOiLVfzIuTs+d8ARN1swAAMwAAMwAAMwcNoMLCFIvGievHbXvHAc/j4xTxbfFLvHJ4bKnPv5XfPCz4/MwidcoayWeNmysb38sYzHfvJJYkuwqX9d/hGOH5m/pvs6nPzG/EomIG/8Jtsf4kQrE86prnDIB0H1kY3q+foKCbl3xd9vfFtJHvy5sZ9vm99fTu1J6vbth/0w9PrSczfzv1sd0fCoRrd/RPcn9oRIB+CFm75MKDtUfoOPbgT+l2dZxAJBQhkLwkdh3PKKr2AABmAABmAABmAABmBgbQxMEySCeHDtHfNYDMqL5smfJ++f/8AKBGnyFESDVGwISdYLxx+Yc74uVy4XOFy5vkyXQJ77eV7GJZUz7iERhIbsMYgfmb+m77sEPX2/CMm9Ilx0/asKCnkiNIcg4cSI3I5f3ZRigxdckj68fONtc3KSlgt96jblTI57/4zth5Em++v532/M2LTJ5NCKB/9ZtuHlUPkuZr7tDe3DEMaQFfHi2MvZafYxgsTaJtTmGKwaQ84nhjAAAzAAAzAAAzAAA3vAwCRBwooDmRghEyK/eqJb+ZA5xx9PznVCgxAWiuXptfpku937uQSJZFVA1getTXFsKFHfmCDRZr8TH3LRYhFElShSBEFClnNixrRVEq+b9+/cMXdqf398XTAjfKvFYlJiPSAw2A0vPzevZKtDBsp7W0ZXZ2g2+2NRYEhW/oRVQi8ci3ER6vFi3wvJOMrHWYPPurom+a2xzmAjr9M5xmf4DAZgAAZgAAZgAAZg4EAZmCBINCT8XlBIV0eEhMklYP1KB1XcKASJbjWEf/yiEDlkotRgX0uQG4WD0K/sdejcoc8Su+ZbITG00WVdtMjb9+W29Vc/7OaSrZtZ1gUG+6hGtjqiY6tePsZ8UvuS1yXfh1VKycqiaE/C0dCxVYSUoXr5bMmYNsYN/+JfGIABGIABGIABGICBfWOgXZBQxILCGQNl5OMYrYJE14b8NlkTPGZbIWFXOSSPJwwkC+7RiO5xhvxPfZRhg4JE5zO3AqK3K1/NIPfH6MvZvkQBAkFiaM+JxakKEvleKsVYVLh1QsTu/2RpS18pw8UaBmAABmAABmAABmAABrafgXZBouWRiFFBYvoKiRyifkPNUpTY7AoJJ0YI4WJIdBj6LEke8xUKCUDV8+urHZzv/OcnfzC9KDF2Tmh3TkFiDY9sTBIE6iseTmOFhBTZ+sc1uhVB631kgxUSgW9e8/kVf+APGIABGIABGIABGICBzTIwQZAo94Eog1Xb86E8PmWFRN5OWZf7vHZ8qkPLzR7z9rv6KmWqosF8m1r2okLoV8t+DqUAURU+EnEk7ikRV0yENrfkddJeCHVB4vyNz83xyT1zIe273Vdi+Fc5NpnYRwFj9NGlhthM8ltDfanf+J/nH2EABmAABmAABmAABmAABhoZmCBILMwibKqXJUX6r2ykv6ghH9foEvw2QeLIfFNu4OdXYZQrJMJ+E5Vvlxsd0tkWHnfIk//0VzbCqoNks8fwyxwnfzBreWRjsTBuVUbSpnrsR+avUkDwQknWH3/sJG5gqSWec66Q0Opf9dhMv7Jx+SNz7eShuXbDb8Zq339urt0eEiQ29ysbYR8VjflSLGvwKYIEF4gJ8+FSjFE/jMEADMAADMAADMAADDQwME2Q6Cr0gkC/xFwRAIJwEX9BoH9UI9zctgkSWnt3TSp2hPrcq18lEdud/px9rC8RGNweEbkQEFdJhP0jOhGgWCExtFdDX18QQOReFN37TESIAkSy54MUH7oYBbEh2FYTScJKj6Rc12YvqGy7ILEwY6sU7OMYJw/NsfJ39Y0keQ8rImw5t1rCnnvzXX0i2VRSP/AYVGS1YaBnZTdl+1S7KK+zhl/wCwzAAAzAAAzAAAzAwJ4yMF2Q2FNHZAkbfdyhAX9k/vLaXXPvovyp2URsWEM8f3nxrrl3+R3z0hrqXjuLCBI7xPd6OV47a7s4PrCZ8QEDMAADMAADMAADG2MAQQLYNgbbupKf8OsRf3lqQ8mb3UzzrtlYe7Mz6kSc3bV/Q3Ge3e/Yva45gHphCwZgAAZgAAZgAAZ2kwEECZKOnRckusnHrlh47RPzH/+45oHoVxd8+t0Xd9hvm9v/ggvDmnlk/trhcQgbzA8wAAMwAAMwAAMwgCDBDf2e3NC7JHvdQoEVPjb8eMh6JmovSnSPu+zqoyeM3T0Zu1yI1zPG8St+hQEYgAEYgAEY2H4GECRIakhqYAAGYAAGYAAGYAAGYAAGYAAGYGDjDCBIAN3GoUOp3H6lkhgRIxiAARiAARiAARiAARiAgXUz0CRIfOtb3zJf+9rXSFwRL2AABmAABmAABmAABmAABmAABmAABmZhAEECkGYBad3KGfWjzsIADMAADMAADMAADMAADMDAfjGAIIEggSABAzAAAzAAAzAAAzAAAzAAAzAAAxtnAEEC6DYOHarmfqmaxJN4wgAMwAAMwAAMwAAMwAAMLMMAggSCBILEwTJwZM7+1phHXzkaYOCMuf/ZI8Z0f38+M1COCXiZCZhz4AYGYAAGYAAGYAAGYOCQGUCQ2EAy+thPPjEvHH9gzm2grUOGmb5Pm8y/fNWYM9fvmy9XuTxrbv0NIQKupnGFv/AXDMAADMAADMAADMBAKwMIEtVkbD6IECTm82Ur2KdW7of/ap75+L/M/5R//+fHW7W64CuvPDBnrj8wZ58aiM3LXzIPPvuCufXyQJkNjJ9TiyV92ypm4YBxCAMwAAMwAAMwAAP7xwCCxAaSDgSJ/Rs41cnQCxL/41+TPkeR4k3z+AZ4q9oW237PnL0+9qjGwix+8UVjECRIyiM3CdMcgwsYgAEYgAEYgAEYgIEZGNgvQeL5D8wLx3f7v5+Xz8Y7cWCgzFPvmOeOPzFPPrUw536elLv2jnlMOtyWTcpkj2UcmW+mthT/T3+E4/Ebxly48Z5Z/OCWeeZDYy74v6evlInCV998ED/vyj3zZumLxeLIPPGnvp4LHz4wT/wgrct/rrSp15eeu97/bRxtTHI/P/eTF5WJIS+TPT5jmXHx1hJ5y4AWe8lCeK8JEt1n//qmXTXxzP96JrPvq//rf2erKeTnzqYfm/+RrbiQwsYz5on/+1/mf3arMKL44VZpaPW51RFDj2r42CFIZLHS+ODYesc5/sW/MAADMAADMAADMLDfDOyNIBHEg28+nwTs+Q9M//5F8+S1TjxIhQCfqKYJZyIy9MmtL5cKHL5cX2ZhFt2xtIxPUudaIWEFCStC9MKBEx76992AdeXu99/GewEjFxHeM093dXVig7ezrCsVLJI2rty3YocmhIS61v3aC0uJmOAFqT7mPibHd00aJ8eK58DHMTsniAsLL0opMa32ryZI+OOpQPD4/+lEg0RcUMoEgWHwvIUXJKxo8b/NEz/0Y8CLINlqjYXbyPLM1T7u1b4gSMSxUfVRwgplkrkXv8AODMAADMAADMAADMBAAwP7IUiMJJU2Uah9Ey6TWF/XCyIJLb4pr9WnOH1eQSIRBmxbTliIYoMXH6RY4MSGXqSQ710ylayIsHUHQaI/z5UTbSp9LpOz1837d+6YO7W/P74+acAGQSIXEpxwVIgPqeDk+9WtXnHl3DmhnjxWTsRK6yv7JZKwmiAhxYFKObdiohcprGjxf//VfDXzsVsx0Qx2I8QAACAASURBVIsUQZDoz3N2ynKdQHPLPHrdmLPfE3Zn9fvPECQmMTnKhuZjjuFjGIABGIABGIABGICBA2ZgLwSJPInUE63sW/Es4CKJrYgbhSARhAv/eMdQMtJi39D54TO78uFPt0RymosIutCwMAu7qiGIGfk5of7uNW/Dlyva1H2c1rPu/3Wfilgu5Ptgt18tY0WnXHRwnNz1K2tq54d6lFdNaPDH7CMVnj0pPER/WeEirHJQBAV7fvKIRvq+EC4U+753f3wzS2/je39+xJi/fckc+ffRRt5z0YQBGIABGIABGIABGIABGJiBgb0QJAqxQHFMvYxLOuOKiFZBwrbhz437Q6SPg/TJoJ4895+3Jnq5WBDOz8UF97hGui9E+n8QJPzjGsk+FGE/CvsaBYgdFySiaJTu85H871fBWDbs/108PzBP/uQTdfVEU5yC+JDt+fBfJn9sYmHc4xrKr3Gkj11U6oq/4BF/ucMLFDMJElaI+OwRc/8XgTFem2KvzDucBzswAAMwAAMwAAMwAAMwUGdgLwSJloR/TJCIy/InCRKJY/2jH/keFe7zFvtaIG0RJKorJLJkKRcx6m3PKUis45ENKQDJFQ3yfRKvxB+RjS72nTDRxbJ7zMOykOxRkZxT9Zm2QkI5r7pCIitbWyEh+zGvIBH6xgoJ6WfeBzZ4hQUYgAEYgAEYgAEYgIE5GNgLQcImkMdhmX0FjNqeD/L4soJEl0jKukJyWTsePm98VQUJuWdE9mhGxRfFoxm1cnMKErU2ljuuizxSgEgfzai3Y+u69o45l62M+MQ8+Xz3iytS9KjXYwdkoyDhfnUjPJpRq1M+mjFSrmWFBHtIsLSucb6Z4wJDHbUxy3HYgAEYgAEYgAEYgIGOgf0QJBY+8ZT7OWi/spFtcOgS2Pi4Rnej3ihIdEls2AgxDCb7TbuWwPo6s3aWSApKQUITDPyxD+VGlAL48NOhya9shH70r1r9op4l+tHXv3xdbYJEEInCBpaV9qxg1D3K0a+GcLG861ZKTOljqyARfxlDbkQpbKz8XGjuwwkrJPiVDQSJKTxTFl5gAAZgAAZgAAZgAAbWyMCeCBIuiYtJZNjTwe8R0CdvQbjo9xGIj2oEJzcKEl2dRXuZ2CESy5j0hrYnfvMeVjXIfR8qgoK6l0RRVt9Lov+Fjj0QJLq4BkEocGFfe/Ehfp7GL8SrYEjENXATXpsFCVePupdE3BvCt+XrjHtHpPtM2HanCBIL85VXHpgz1++bLweba6/8ygYXnxobHIcNGIABGIABGIABGICBGRjYK0GiFx5GksYZHHcabZUrJPazn6fh28Nq8z1z9roxZ66+NzyJIkgM+2dH55HDYp05knjDAAzAAAzAAAzAwDYzgCCxQ0kFggSTyVyTiVslYczZ7w349OUvmQeffcHcenmgzA6Nn7l8Rz3wAAMwAAMwAAMwAAMwAAPzMIAgsUMJFYLEPNAzeTg/fvmqMWeuPzBnn6r59Yy5/9kjxvz5DCsFdmiegO8azxyHDRiAARiAARiAARjYNgYQJHYo0UCQYAKZdwI5Mmd/a8yjrxwNCA5elECYGPARXM7LJf7EnzAAAzAAAzAAAzBwKAwgSOyQIHEoUNJPJmAYgAEYgAEYgAEYgAEYgAEY2H8GECQQJPjmFwZgAAZgAAZgAAZgAAZgAAZgAAY2zgCCBNBtHDqUzv1XOokxMYYBGIABGIABGIABGIABGBhjYOcFiW9961vma1/7Gkk1wgoMwAAMwAAMwAAMwAAMwAAMwAAM7BADCBI7FKwxdYnPUSBhAAZgAAZgAAZgAAZgAAZgAAZ2hQEECQQJFEQYgAEYgAEYgAEYgAEYgAEYgAEY2DgDCBJAt3HodkWtw06UZRiAARiAARiAARiAARiAARhYHwMIEhsSJC7cfGiOTx6aazeOVhcA3rhn6zq+/ZE5v6r9lz8y10462+6ZC6vWxfmrxxYf4kMYgAEYgAEYgAEYgAEYgIEDYQBBYkOB3rQgYdtrESxmFCSa29yQz6cqmed+fte8cO0d89iW2je1P5Rfn5KLb/EtDMAADMAADMAADMAADKzOAILEniafpyEOnEabc04CCBKrTyhzxoO6iAcMwAAMwAAMwAAMwAAM7DcDCBIIErMth0KQ2O/JgosB8YUBGIABGIABGIABGIABGJiTAQSJNQsSNkm3ezS4PSSuvlECfP7G58btB/GuuZqULfabCHtHhDI3383FhPj4hWur27Mi+0sf4ZBl08+ET2QfjtN2ZT1DbXb1FuXl3hVH5pXbD41tQ5Qt/GHt9D4bsH9wwDz1jnnu+K55ofaXPsLx/AfmheNPzJNPLYxdTRHP+cCciz47Mt88vmue+8mLWWwe+8kn5oXjtJzjwB3v25fnDdoe2yyZ4jx8AgMwAAMwAAMwAAMwAAMwsO0MIEhsKqnzyXVVkLCJ/Ofmlct+0HjxQSu/WCRJe8X+KasVhsp2YklmQxAJUlHC2zBUTzcQrPBy8jCrz4kdSb9D31r9EUWatI7lJp7RRzasIOHFg5+HzUlfNE9eS/eeaBcknKiRiBReHEGUWC5+2z7ZYh9xhQEYgAEYgAEYgAEYgIGcAQSJSkI/OygNgkSW+C/cN//6qoDNCRKaH5yIIFc2LMywIFHrj1/hEAUO37fiVz9Gzl92hUQS/1ZBQgoG+eqHRkHCiw/ffD4fkHld+WdaLDiGj2AABmAABmAABmAABmAABnaVAQSJJCFdaxBHBQmZ4NcS8G6wna4g4VY6SHtHBImBFR+5kOH7NoPAMDWerYKEFBHydtoEiarwkDwWktfLJIs/YAAGYAAGYAAGYAAGYAAG9osBBAkEiaaVDdleFPZximUECf2xinzFxWEIEu5xjX7viHwPC7dPBZPtfk22xJN4wgAMwAAMwAAMwAAMwEDOAIIEgsSAIOEfpxCrFZZfITEgSMQ2DkOQqK6Q2BSPtJNtOsqFIb8w4A/8AQMwAAMwAAMwAAMwsAkGECQ2lZht+JGNmmigQZU/MpEMvMpjFrW6a8ddm7VHUOTxqYKELppo/Rw7NioS+E0tpz+y4Te+TH9lY+qjGUfvmzt37pg7t66bS5tilnYQLWAABmAABmAABmAABmAABtbIAILEGp2bJcAbFiQWXkzQN8VMRIfFwN4P3ub0Zz7d4xXdz4mWj2yMtekEi3yVRP64RmfXREFixl/ZWHjBQW5aGePYJEjIX90IYkT3eEbyixqLcDw9lscltrtYmEtvf+wEiTt3zPtH9XLpOfyPn2AABmAABmAABmAABmAABraZAQSJtQoS/tt7u+dCl8Snf31Cr68skCsHvHCQ1dHXl/9Chxt0rt6+zHF8LKL/Cc7cJlc2EzFiwt9/pts73mY3EIZscgNloiDhf40k7dsqA86tkkj2drj2jnksMNIkSHR+cBtbhn0hrMBhzy3FB3UvifiTounk+bp5v1shgSCBQh145BUWYAAGYAAGYAAGYAAGdpwBBIkdD+AqyTfnpgn/9v//+h87QeJjc/2l7bcVtogRDMAADMAADMAADMAADMDAGAMIEggSqIq7wIDfQ+Ljty8Rr12IFzbCKQzAAAzAAAzAAAzAAAyMMoAgASSjkIypWny+TuWTRzXga518UTd8wQAMwAAMwAAMwAAMnB4DCBIIEggSMAADMAADMAADMAADMAADMAADMLBxBhAkgG7j0KFAnp4Cie/xPQzAAAzAAAzAAAzAAAzAwLYwgCCBIIEgAQMwAAMwAAMwAAMwAAMwAAMwAAMbZwBBAug2Dt22qHHYgTIMAzAAAzAAAzAAAzAAAzAAA6fHAIIEggSCBAzAAAzAAAzAAAzAAAzAAAzAAAxsnAEECaDbOHQokKenQOJ7fA8DMAADMAADMAADMAADMLAtDCBIIEggSMAADMAADMAADMAADMAADMAADMDAxhlAkAC6jUO3LWocdqAMwwAMwAAMwAAMwAAMwAAMwMDpMYAgsYuCxBv3zPHJQ3N8+yNzfln7bR2fm1cuD8N34eZD11bX3slDc/WN4fKnMpifesc8d3zXvBD/PjFPPjXFzhfNk9dWOX9KW5Q9FUaWHSech2AJAzAAAzAAAzAAAzAAA2tjAEFiA3Cdv/G5OT65Zy7M1dYGBYmYPF7+yFzbRkEiiBE/P5pnkDz/gXnheKqggcgQOZmLceqZh2f8iB9hAAZgAAZgAAZgAAa2mAEEiQ0EZ3ZBYg6bG1dIxERzSwWJx37yybwCAoIEE/Yc44s64AgGYAAGYAAGYAAGYAAGRhlAkNgAJAgS61tB4ASJD8y5ueKIIDE6aUSRai6fUw8+hwEYgAEYgAEYgAEYgIGDZABBYm3gv2uu+n0X7H4Pxf/JIxzJaoV8z4akTGdneFQj1HXz3QFoZftaXfkeEk446faKEGW7thtWSPTnu/0mrt2oPEbh6zoetL9NxGgSJKzIkO4RMSBgjAoSR+abca+Krs7K4x2yzbkeKVkbr23+RozATzAAAzAAAzAAAzAAAzAAA3MxgCCxgQRvdIVEKjTEJP3IvHK7tnGl/yyWFQMi1Jd9/q65mr5PRJAOpiAmjIkItU0tnZCSCBledNDqC22pwkdLPGSynwkEd80LafLf7TGRvl+EDSwrosSgIOHFiKy+I/PNa++YxxK7y8dItPNEzJLz5xrc1IOPYQAGYAAGYAAGYAAGYAAGtpkBBIkNJIKtgoRM3uvnDQkSQ58lgzEVJLyAIdvPwB1aIVH5rGr/pldIyBh7QeObzyf+CGWGBAm/gaZ6Xjh/4cSH537yYr56ZajeeK5iD5/lfsQf+AMGYAAGYAAGYAAGYAAG9oYBBIkNwFxNzEPbXhCorT7IhAF7zoDoUBEHijqCIHHD/YTooBjRtTlQb7V/oY2RnxYtbAt+aXhtemRD1jMkLAwKB/3jGlVRonb+UJvSPt7vzQS7Ctuci0AHAzAAAzAAAzAAAzCw7wwgSGwg+asm7KHtOQWJVhHAtxn2txgVQwYEiXzfC7d/RKj3+CTfp2LuAdUiSJz7ebp/RP+/KirUBIUQq/jIR6gn30PC2RM+K1/VNmPdTLhz80F9MAUDMAADMAADMAADMAAD28sAgsQGksGNChIDwkE2EBPhIggKg6LEQL2j/Vujj8cECSdG5KLBYmi1wqggkQxmX0+2seWU89folyzWtMOKCxiAARiAARiAARiAARiAgS1kAEFiE0FJkn81UfSrFQYFgczOgUc2Fv7XNdINLLNzfUKd2eTrG1rNMCBIuF//mLASwte1/l/ZqGwmOZcg0flV1iXfa77Pjl0y12/dMXfu3DHvHyViR1aG4+q4wUdcVGEABmAABmAABmAABmBgpxlAkNgEwGMJ+KyCRO0XM4Z/ZWMRhAztJz87Hw0JEosgaCS/sjHgV7eiovLzogPnaUnp8AoJ5Rc17AoG9yiF+vjE0AqH5z8wcrNK136+AkNdlVHt1+vm/TtOkLhz67q5VC2HKKHFn2NwAQMwAAMwAAMwAAMwAAO7ywCCxKYSQC869HsrJMl7oyARHq3o6+j3ayhWVwy11/XZfi5WNQThJK6U8KstTvp2+rYT+70PVfu0lRqhHe2zifEYFiS6gdlvRPlC9/Og3U90ylUM/r39XP6EqPqTnuneEPrPhzq70nK+baV/l97+2K6QQJDY3YmUiyCxgwEYgAEYgAEYgAEYgIHpDCBIKAkiIE0HCZ+t4LOXrpuPu1USf3x9p5dbwcAKDDAPwT4MwAAMwAAMwAAMwMABMoAgcYBBJ3HcpsQx7CHxvnkdFrkIwQAMwAAMwAAMwAAMwAAMHBADCBIHFGyEiG0SIhaGRzW2Kx6MD+IBAzAAAzAAAzAAAzAAA5tlAEECQQIFEgZgAAZgAAZgAAZgAAZgAAZgAAY2zgCCBNBtHDpUx82qjvgbf8MADMAADMAADMAADMAADGwjAwgSCBIIEjAAAzAAAzAAAzAAAzAAAzAAAzCwcQYQJIBu49BtozKHTSjGMAADMAADMAADMAADMAADMLBZBhAkECQQJGAABmAABmAABmAABmAABmAABmBg4wwgSADdxqFDddys6oi/8TcMwAAMwAAMwAAMwAAMwMA2MoAggSCBIAEDMAADMAADMAADMAADMAADMAADG2cAQQLoNg7dNipz2IRiDAMwAAMwAAMwAAMwAAMwAAObZQBBAkECQQIGYAAGYAAGYAAGYAAGYAAGYAAGNs4AgsTWQPeuuXry0Fy7cbRxCHZXBXzPPP2hMc+8ic92N4abVWDxE/6GARiAARiAARiAARiAge1hAEECQWKHBRAECSbT7ZlMiQWxgAEYgAEYgAEYgAEYgIFpDCBIIEggSGwNA9MGL5Md/oIBGIABGIABGIABGIABGNhlBhAkNpCMnr/xuTk+edj/3Xw3igDFZ2k58QiHK3vPXFgcmVduJ/Xd/sicF/2Q9aqPglz+yFzL2vvcvHK5H9AXbj40xzffNbGuzu7knKtv9GXDILDnnOT1hM+mvH71zQfmwoem/7vxXvRZ8VlaTjzC4creN48vjswTf0rq+9Mt81XhM1mv+ijID26ZZ7L2HpgnftD74fEbxly48Z6JdXV2J+c8faUvO8UflMVvMAADMAADMAADMAADMAAD+8YAgoRISucOsEvm8wS9O1Ym8+N7SERhIBMq3HmdcBBsd6JAJ1z4AetFhFyUeNdcFUKGFBPs+9ufm2td3W/cM8cnn5trt7u+eEEkadO17W3J7Js+abhkPk/0u2NlMj/+yEYUBjKhwp3XCQfBZ1ZI+LATLry9XkTIRYn3zNNCyHDn9bba9396YJ7p6r5y31z48IF55k/d514QSdoMbfM6nRF8hs9gAAZgAAZgAAZgAAZgYPcZQJAICeiaXl1SX65gKAdPuyAhxYysDS8+yDJOzEhECq2/QrjIBAorSIRNN70gIQSNrk/ZOVobDcdcUl+uYCh91i5ISDEja8OLD7KMEzMSkUKzXQgXmUBhBYmw6aYXJISgUfZp9ycV+kQMYQAGYAAGYAAGYAAGYAAGWhhAkNCSzBmPxVUNSvKeB6hVkMhXW+R1LPzjFYrw4Fc4pI9kyHMXi9yGTOjwgoQTOuqCRFnn9IEYVzWMJu+tgkS/gkGzryo8+BUO6SMZ5fm5DZnQ4QUJJ3QgSJS+m84GdeAzGIABGIABGIABGIABGNgfBhAkZhQfqgPDJ/NxH4niUYcOqFwM0Opy4sawIOFWKCT7SwzsERHFkqxMWAXhVzsEIWWDgoTtu0/m4z4S6qMOuRig+cyJDcOChFvVkOwvMbBHRBRLsjJhFcTCIEjsz+So8cQx4gsDMAADMAADMAADMAAD8zGAILEJQSJpIwoGhSgxjyDR9GjGIqykeCj2sshtOK0VEnKAR8GgECXmESSqKySSuHU2BTEif7QjtwFBYr7JSXLAe3wLAzAAAzAAAzAAAzAAA/vFAIKESDo3AXiW6Mf2axtF9sC1rJAIm08OP5pRe+RidUHCCS7DqziW8XGW6Cc+s7+cUQgVvc9aVkiEzSeHH82oPXKBILFMPDmnZxRf4AsYgAEYgAEYgAEYgIFDZQBBIia36xgEXeIv93NwSX/6qxgBvrFkvkmQiD8JKtvN+1e0lfycZ/g1jkw4aXpkw/dtpV/Z6BJ/uZGkS/rTX8UIPnOrJ+qPZDQJEvEnQWW7uc+KtpKf8wy/xpEJJ+whEX/FJMSL15wp/IE/YAAGYAAGYAAGYAAGDpkBBIm1ChLd4OqT9LCHREj4S/D8yoVkT4e0bJsg4Qa0ExzEXhLZYyKyrU7A2JYVEl6ASPZpCAm/5jO7SqJStk2QcD5zgoPYSyJbfeFXScS2OgGDFRJlTLio4BMYgAEYgAEYgAEYgAEYgIFxBhAk1i5IjAcBUPERDMAADMAADMAADMAADMAADMDAoTGAIIEgwbJ6GIABGIABGIABGIABGIABGIABGNg4AwgSQLdx6A5N9aO/KN0wAAMwAAMwAAMwAAMwAAMwUDKAIIEggSABAzAAAzAAAzAAAzAAAzAAAzAAAxtnAEEC6DYOHcpgqQziE3wCAzAAAzAAAzAAAzAAAzBwaAwgSCBIIEjAAAzAAAzAAAzAAAzAAAzAAAzAwMYZ2HlB4tAUJPqLagoDMAADMAADMAADMAADMAADMLAPDCBIoIJtXAXbh4FDH7gAwAAMwAAMwAAMwAAMwAAMwMBqDCBIIEggSMAADMAADMAADMAADMAADMAADMDAxhlAkAC6jUOHiriaioj/8B8MwAAMwAAMwAAMwAAMwMA+MLAngsQZc/+zR4zp/v58pp5gP3XLPHr9gTn7FPDuA7z0AY5hAAZgAAZgAAZgAAZgAAZgYHcZ2BNBIgTACxMDosSXrxpz5vp982VWRtSFG3yDb2AABmAABmAABmAABmAABmAABtbMwJ4JEgtzdP0LxvztS+ao6rgjc/a3xpz57S3zlWqZIHDwitoIAzAAAzAAAzAAAzAAAzAAAzAAA+tgYD8Fic++aN4bEhvsoxvGPPrKEYrXkJ/4DD5gAAZgAAZgAAZgAAZgAAZgAAbWxMBhChKLheHRDRS+dSh81AlXMAADMAADMAADMAADMAADMNDGwMEKEovv3Tdnrhtz9nttjgIo/AQDMAADMAADMAADMAADMAADMAAD8zGwd4LE4hdfNGbskQ273OQ9c/Y6j20wmOYbTPgSX8IADMAADMAADMAADMAADMBAOwP7J0i8/CXz4LNHzIPrZ0ee8/GbW159b6RcuzMBD1/BAAzAAAzAAAzAAAzAAAzAAAzAQBsD+ydI+M023vvzI8YMChMIEgyStkGCn/ATDMAADMAADMAADMAADMAADMzPwP4JEn6FxP1fjDkLQYIBNcYIn8MIDMAADMAADMAADMAADMAADKyLgb0TJI6uf4E9JNb0kyzrgpB6meBgAAZgAAZgAAZgAAZgAAZg4PAYOFxBgl/ZYO8MhBsYgAEYgAEYgAEYgAEYgAEYgIFTY+BgBYkvXzXmzG9vma8A36nBhwJ6eAooMSfmMAADMAADMAADMAADMAADgYHDFCSeumUevW7M2e8BQgCBV1iAARiAARiAARiAARiAARiAARjYJAMHKEj4zSxZHcHKCFbHwAAMwAAMwAAMwAAMwAAMwAAMnBoDeyZInDH3P3vEmD+fqTrUPqpx/b75MtBVfbRJRYy2UGBhAAZgAAZgAAZgAAZgAAZg4DAZ2BNBwgsRnRjxty+Zo5rYYB/VeGDOPnWYwWaQE3cYgAEYgAEYgAEYgAEYgAEYgIFtYWBPBAmA2hagsAMWYQAGYAAGYAAGYAAGYAAGYAAGWhhAkKitpuA4j3TAAAzAAAzAAAzAAAzAAAzAAAzAwNoYQJAArrXB1aKIUQblFAZgAAZgAAZgAAZgAAZgAAYOkwEECQQJBAkYgAEYgAEYgAEYgAEYgAEYgAEY2DgDCBJAt3HoUD8PU/0k7sQdBmAABmAABmAABmAABmAgZQBBAkECQQIGYAAGYAAGYAAGYAAGYAAGYAAGNs4AggTQbRy6VBHjfxRSGIABGIABGIABGIABGIABGDhMBhAkDkCQ+MorD8yZ394yX8n6es78+9EV8+nvXjX/fn5hFv/0z+bT310xnx49Z36YlZsyMEKdV8x//tOU89ZYNvSr61v399OnVQHmhy+9aj//75fOmcXiafOftrz3zdL+mNavo+tfMOZvXzJHY+29cc8cn3xuXrk8rf7ZJ/lffNGYz75o3huzdxc+t315xJjPHjH3f3HKft0Ff2GjOo/MPsbwM36GARiAARiAARjYcwYQJPY8wIvv3Tdnrhtz9nsyyQrigU+6zz9n/nsgYW+70Q51bpEgEePrbWsSJEI//tn8Wzxf+m/m9z4hbkqGVxIk3jVXTx6aazeOZpjcz5pbf3ukTUTZlB+XaeflL5kHCBEz8DDzmFgmlpxDHGEABmAABmAABmBgpxhAkNhnYJ+6ZR69bsyjr+jJ57/9tFs14JPuWQSJbU5IhgWJsELErezYsCDhE+IH18+2TR5bI0h08T5j7n/2iDF/PtNm+xaOt+aVKVtoe5tQuM3jEtuIIQzAAAzAAAzAAAwcMgMIEnucZHz5qlEe1egHfCZI+McU3CMLfZn9GRxTBImFsb5Z6fGVdh++9+eJqwy2SpBYmMWU1R0rjrdzP79rXrj2jnlsxXpSrif7f8a2Uzv4v33M4Ct8BQMwAAMwAAMwAAP7wcBeCBJfffOBufCnW+ari/fM0x8ac8H/PfOmsjLgyv34uS134z31m11b50Bd7vP75vHFkXniT32bzo5l4PiR+evJH8xJ/Hvb/F7sEfCrm38wJzd/ZBaXf2b+Hsv9wfz1DaU9vzqifFRDKTuSYIX9FeweDOpjHWFFgd+nIexLodUr93SwezUkKzW8MNKtVMjbVR6fCKs6Yh1Dez6MCBKarZs41vK4wOWPzLWTh+Y4+yv3kLhwU5S5+W5k+/yNz8X5edniEQ4reqRl7pkLVX9s8NGNp94xzx3fNS8cf2DOVe2ZxjiCxDR/cfHHXzAAAzAAAzAAAzAAA3MxsD+ChBcPnr7i4fDCQ3y/WBgnIjwwT/wgAOQFDCFKPH6jExg6scGX+8Et88yHxqQCRypY9Mf1+kaD9cZvrBDx9xvfjgnkyzfetsdSscEKElaI+I35lbfNlSvFC7uR5fX75suhD0u+OlEgT/S7Y9VNK63gkJeP/fdiRH+u3zwyW4kQNpRMN6D0YoIsl733qxqqYsh2ChL2cYGhjSG9MHA1FZ2UFRKd4JCVCSJGIkq4ODTsIdGdm513ZF653YkTdVHC9eML5tbLYWyt8/XIfNOKEp+YJ59avR0EidV9GMf4kvMM5xMDGIABGIABGIABGDhMBvZKkEjFh0VYuRDFBicW9OKBD7gVLhKRwosPeV1BzOhFiiBIyHJWzLCrNVqB+rb5/W2/8iG7mffHb//MvOyPO0FCiA9+yadxWQAAIABJREFUtUQqXHR9P/tbY85c1Vd/TBnskx9dGBAktLpKwUMTKcJqCWWVROozv2JCf+xkGwUJv7Kguv+CFwIycWBhFoogocXUrZiQIkKDIJH6NPyvCSPhs+61ZaVHWj79//kPzAtWYOhWPpR/33xeG0svmievubL659o5+jEECd0vGlMcw1cwAAMwAAMwAAMwAANzMrBHgkQvFgQHZeKAFB5CQiQEiP5RDAGaOL9cbSHKh/rHXr2gkK6OCPa71Q/9aggrSCQChS2nChLvmbMDm1mG+lte42MTYjVC9dyqIKGtctCEBidISFHB2TEiSAzug7GNgoTbELK6maVf5ZCtfOh4ahQk3GMaMwkSNVsi3yN9ieWWHCeV8+2eEsd3zXM/eTGuLqqyqdZxOnZPs3Fen9E2/oQBGIABGIABGIABGNgWBg5GkAgrGsL+EvI1rHRwj2ske0Ik+0hc+LBfSTG3IJGvcHADRD6OcRqChAXVP2pR30MiGdBVQWJh8l+y6M7xqyGyn+JsFySiWBL3kHB7WEgxww22fRck3MqHfJ8J7TGLthUSxX4Ufv+KQhyJSf7pJPZBkJi+p4Sz1ww9LhP7lvDNsSWFH3y4LRd97IBFGIABGIABGICBbWLgYASJhVjhUAtCdYWESEQ2J0ic7goJ6Sf3yxzp/g5iQA8IEqqAkIkRXV1tgkSoq9+Pon6u68M+CxJejLj9kTmfcLrsCgknRohNM9e5QuJUH9k4HSFFjivei3kk4Rjf4BsYgAEYgAEYgAEY2F8G9liQEHtGiEczqlBPEi76FRPV+vyN9et/vGPu3LljPn77kviGcWQPie5XNXwd7Ssk5ttDIrSdvmp7QcTPq4KELjTE82ICopfLH9nQH/+oiRmujRkFiZeum4/vdPF837we7V5mkhjbQ0JbzRA2mEwEg8r+DrogUdmXIvbDixty34oxQWKVPSRi260+ZFPLcty0+o5y+A4GYAAGYAAGYAAGYGB7GNhbQaL4pYzFwrhjYyJC+BnPck+KFNxpKyReN+/bBPaOuXPrurkkEzD/KxvpYxvycY2u7XZBYmHm+ZWNLomX+zY4weDTYmWDh7oqSLQKAi2ChPKLGslPgK79kY2j9624pAtM0wb32K9syI0p7fvbn5trJ4kg4cWC40RE6B+5kHtILIy6AiIyGQSP5DwveHSPg9Qe2djYr2zws59RoEznI/6fNu7wF/6CARiAARiAARiAge1gYI8ECbHvQ+WXLpyQMF5W3Usi/mJH+NWNMXGjD3J9hYQv40WJE/uznn8wJyf9oxphsEwRJBZP3TKPXjfm7Pd6G0I90169AJHs01Ak/IkYEPeZCOXTzTCr5dKfCW0TJBYLL3CEdn7XCSflufERk1jO7TPR2Zk/7jHFT5fM9Vu1FS9T6mn5dYogEHT7QTw0124cmYUVIBJBohMTEtEglNNXSHT25XWG8j0XfpWE3zfiuHsUZHCFxNhKj4k+ieJIeZ7dM+LaO+axgTJ9P8rztc/4lY02P2m+4xi+gwEYgAEYgAEYgAEYWIWBPRIkhlc0rOKkXT33y1eNOXP9vvnyjMnb0r4IYkSxsiIIC3IlxnYP7Etvf2xXSbx/tLqdNiHe5c0Vf/FFYz77grn18uq+WJqvFRhHkNjNuJ0GK7QJKzAAAzAAAzAAAzAwLwMIEiskMlsPo18lcebqe6e/zNs+yqGvSnCrGHZIkAh7SPzx9Xn86vdfMH8+M099G2Xa/1rFTtruJlP7uMnfvmSONuq3eSfyrZ+L8O0Ojm0YZVzBAAzAAAzAAAysnwEEiX2/Uf7efXPmujGPvnJ0ujfEtRUSXqio7kmxVfGZ8VEN2S+7yuAR8+D62dONk7Rr8L1/VGPXk3nv+/u/WP+Ey0UNH8MADMAADMAADMAADMBAzwCCxGDC1Ttql6GxG1z+9pb5ymn3NYgSYj+H5fdy2I/4BLZ27pt6m8h/0bx32lzN0b4XJcxnjxiEif0aV2F88UpcYQAGYAAGYAAGYGD7GNgLQQKwtg8sYkJMYAAGYAAGYAAGYAAGYAAGYAAGhhhAkJjj21Xq2KHHDJgQhiYEPoMPGIABGIABGIABGIABGICBTTGAIIGYgJgAAzAAAzAAAzAAAzAAAzAAAzAAAxtnYOcFiW9961vma1/72sYdtynFiHZQJ2FgXgbeeOMN0/KH3+f1O/7EnzAAAzAAAzAAAzAAA5IBBAlUMMQcGDgoBjox4uxjZwf/ujJysuQ9F1AYgAEYgAEYgAEYgAEYmJcBBAmSURIvGDgoBhAk5r2IcFHGnzAAAzAAAzAAAzAAA8sygCBBMnpQyeiyA4Xz9meSRZDYn1gyLoklDMAADMAADMAADOw2AwgSeydIvGee/tCYZ948Ogyh4fLPzN9P/mBOTn5jfjVjLF/67ifm3uV3zEtZnefMvx9dMZ/+7lXz7+cXZvFP/2w+/d0V8+nRc+aHWbkZJ4XQRtdO9/fTp9W4/ttP/ee+3H/+04w2rKtvab2hn7Z/wc9XzDr6oQoSF++ZM9eN/fuHi2ftHhNc3HaMoZQn/lfnCZiGaRiAARiAARiAgW1jAEFi725c5xckvvrmA3Phw/vm8W30VYsg4cv89Y3GCeipD8y91+6avzwly4dE2QsS558z/z0gEsw72H3bFUEituVtWkciH9tYBweZILEwTmDxfp65vUKQ+H8+Mv9w3ZhOiAh7S3Rl1trfmfuErXKs8h4mYAAGYAAGYAAGYGAXGECQ2LvE4MAEiZb4TREk/vEd8+lrd82n331RTUhdovzP5t+6dndKkHja/Ofvrpj/fulc0S/bp3Wu8miJkfdlsG+TgsSj//LAnHnzI/NostElggQX8F24gGMjnMIADMAADMAADOw6AwgSLcnSTpVBkCgG5QRB4pcX7yqPavQTXSZILOpJfmHDygytukKibus2ChI/fOlV8+nvvPCzsu/6+HVxkSskHv1/DYLEzD6en/88htSPP2AABmAABmAABmBgPxhAkNjAjbh75MGYCx/6vxvvFd9SLxZOSIhlPnxgnviBDpmsL98vQhEkfnDLPOPbfvpKWueReeJPiV1Zm9KetFz3/7KPcPzI/NXu+dDt+1Du/fCrm38wJzd/ZF6+8bb7/OaPzCI+lvEHEx+7SI7Zem7/zLwsYmnrytoKbbrXWFc4z6+OKB/VSH3W+n94vCPs7aA9fiDL6CsY3GS7YUEirP4Ie1dUxAEnHIQ+KvbbRzFc352YE8quR2xouTAhSLQyTLkWnigDJzAAAzAAAzAAAzCwPAMIEiEZXdOrEw9ycaE7lgkDV+5bsSIVFoLokJVbBAFB1nc/ES+EIBHEiD/dMl/N+ugFh0Qc0WztBpc7vqwAkcDpRYS/3/h2FGScaNBvSGnf337b/L0TIt74jTk5edv8/fbb5veXv21+f9uJFXLAu3NKQSKWa1whYTeyfO0D88vMT4n9rcdDMp89BnHO/PtP880v/+2nQqTw+yiExxai/bbdDQoS4vEJa0d3TOxfka8W6R9hyewPe0Nke234vmT+WcLPrfEQ5RAkNufrnGHaxR8wAAMwAAMwAAMwAAM5AwgSIlmZG5DHbxhzoRAD0iB4kSERBpwN/nh6rhUucjGitDcVJLzokNbh+6uLDLotetm0D23/68KBWzERRAonUHQCxMILEn8w7jMvSNRWQijHo2+aBIkXzX9cvmvuXVz910mWfwRiKFHfoCCRrGqIPpTjxIsWcvPM4lGLishSlJP1r/E9gkTbeK3Gfo2xoU1iAwMwAAMwAAMwAAOHxQCCxJpvrl0yPyBK+BUM6eqIMAilEDAubnTwBkHilv35T10M0YWHrl2tDWlHsG/aay489OfmKx8y0cKukAiPaaxbkDgyfxnYzLK3d2yCqO/V0FJHXczYoCARVniEnzdVxkhVUJBihhckpHDR4ot1lckFif/P/cLGv7wef2Gj+6WNrsy62qfesTHE5zACAzAAAzAAAzAAA4fCAIKEkmzNHnz/SEbcHyJdDeEFifzRDDcAnRAQVkTURYTcXr8qYtJ+FWJ/CLGiYhZBQu75IPd26B7RWCzMzgsSlZUDeYz8BBsT/7Cvgn9VH2XYoCBhx4QTVj6t7CGR7wch7E+FjK0VJJwQceb6vezXNfjZTy7+6ljdxHWCNhABYQAGYAAGYAAGDpABBIkNB92uQOjEgiBKjAoS/d4N2uqF8uY5rJA4MosghIS2Yl9bxY1UGOntKNtsSWJqKyTyc3dekGj95Y0gRmj7MmyFIJHExYsK6a9eVFdIRMb8+VsrSJz1KyJYIbHceE74kDHnPTdTMAADMAADMAADMAADjQwgSDQ6as6b9lxYqIkD5fF8xUQtIUgEibghpTHykZDchlpd/njT3hVd2Uvm+q075s6dO+b9I1ln/mhGzZ9rESQWLWLIXHtIDO0D0fvEJfRiU8vFwqz7kY1PhQCyWDSuvLDCQmKvfF8bR2sRJIY4631cYyx/ZOOs4Wc/x31W8yXH8R0MwAAMwAAMwAAMwMAqDCBI1BKpWY53ooJcWeAfqUhXLfiVDOljG7r4EB7HyOv86psDv7IR9oX40OS/7BF+fSO1o9bn1rIvXTcf33GCxJ0/vl6qgn5PiLCBpQbuegQJL4ac9L/mobU9269s+CQ8T/7Fr2z4Mv0vUnhhoHtEYi0rJBZGE0Fqx+SeD+4RjfSnOoO96TFlMl6LIPG6eT9wduu6uVTjtnIcQUKJU8VX2jjhGP6DARiAARiAARiAARiYiwEEibXfiAcRod+nQa5WsMEMj1eEvR8+zEWHPuB+5UQsJ1c/5Csk3Hn9OXnbpW3dPhepMBLbbbKv4ZtrdS8J/6saE/aQePnG2+ZE7kPh3+uCh1slkZ7z1zfERPKP75hPX7tr/vKUOL4MI+GRjLgHQ7K6wNfnxIB+/4VOBJArJIb2auhFA7nfQ19n+phFF0vZpvw8xLtoVxVJvL2xj77ddBXGWgSJhbn09sd2Jc4dBIlS+FuGV87BjzAAAzAAAzAAAzAAA6fAAILEKTg9JH28zpD4zxy/X168a+699oH55cz1EuuZYx1W42grcUZixwqJmWMx4m/Yx98wAAMwAAMwAAMwAAM1BhAkuJlGCUwZ8Ksk7l08wi+pX7bq/7AS533z+hJ2FYLEvzwwZ978KPu1ja5MbdLkOBdUGIABGIABGIABGIABGJiHAQSJJRIa4JsHvq3141MfmHuv3TWffvdFktItGx+rPKoReJOCxNmL98yZ68b8w8XwyxtnDYLEno/xLeM6sMkr3MEADMAADMAADBwaAwgS3JiSdCsM2A0uL79jXlI+O7RJYt/6WwgSj501QZQIwgSCBDcD+8Y9/YFpGIABGIABGICBbWQAQYKEE0ECBg6KAVWQ6ESJ5A9Bggv2Nl6wsQkuYQAGYAAGYAAG9o0BBAmS0YNKRvdtANOf6RclBInpPoMzfAYDMAADMAADMAADMLAOBhAkECQQJGDgoBjoBImWv3VMuNTJhRwGYAAGYAAGYAAGYAAGegYQJNaUjL722mvmiSeeOKhEj4HVDyx8gS9gAAZgAAZgAAZgAAZgAAZgYJgBBAkECUSTNTHA5DM8+eAf/AMDMAADMAADMAADMAADh80AgsSaklFWSBz2wGJiJf4wAAMwAAMwAAMwAAMwAAMwMMwAggSCBCsk1sQAk8/w5IN/8A8MwAAMwAAMwAAMwAAMHDYDCBJrSkZZIbGHA+vyR+bayUNzHP5uf2TOK/xcuJmUOXlorr6xOV+Etq/dOGoTmnyf5rHxMfOdX180r145N9z21580l966aL5/YXN+0S50569cNK++1f+p9nhbY7lfP2keV2Ku1b+dx86Z74c+j8Vp2X7unc9m5PTCNxxz28BRsGXdPCzL0amc5+ewLZiftnP+mHEsnEp899P+cC279OPHhq+9weczXoMf//Gz5tUl57Ngd7i+qtfgYDOvbbHt/DT1GhyuBUvGcf65qp+HHRvPmu98fT/HrvVdjNc31Jximn973+3aeEKQWNMkhyCxx5PHYmFs4l8RJOLkMWuy3+bPUxUk7KQ6fuFY5QYm+nbOcdt4c2Zvnrbmgt3GQ+ov6/cu+VyXEKHEZNd9lvpvlv+37sav46hRSFTiO4tPtqre3b2ZmzsWbr6Y4wZ5+lw1d182Vd9p+Swk9hsXJPx8tnLi03gN3lQc96mdpmvwVl6X/LxhbRu/r9zGmDX5vrv+IUhYsQ1BYk03QwgSy9yEHJlXbuerC+JqhLAq4ea77SpxEtuQqMf6xsSE5FxtottWQUKzdfDYjKJJ2+TrvqGXN07uRu6ULjqNN0Nt/VuG+/09B5/tQmwRJAbnyJFrwb6ee1rJ9S77c2d81njNG4yFr0NeywfPqY2lOeyp1X3gx3f+GnwIgsSBMxrmDASJNYGAIDHDjfgb98zxyefmlcur1PWuuWrFjHvmQhrryx+Zq62PNaTn+f8RJGRMdKEhTDTxtXJxQZCQ/tyP9zt/M6SM/cjy3nyGILF/MV19/tiZ5HqLxuHO+GwGAWDWuX0GexjD+pifNU6nMdYq94y7EO+d9/2G440gsSaHb7sgcf7G5+b4RCTpC5e8y/0HXNlk5UJllYIsp9fTtSlWQtRWK4wKEkFsCLaV4oVbGSH7qU3cwqaTh0ban06AcwoSzsbS9rS9sf9dHcEPQ/tWSJ+5c1bdQ6LtRqye+EwRJFzZfu+Hlb+habwZGr+4JPsz2OfyteXO/ZLw8NxseM364W0Kn736llw9kvhSlM3qsfNb2WZZRhsTlWP2BqH3/9AjIOM+q7SR2N3Zaut566Kxdsf2pU/G/O8+75YX5wxpcZJ1yba83dGW4A9Rl4hNjKf62IyMU6XNpmuWrMv7Tj03YUn9fChG7jN9/DsfFqwVPtF9JpeBqywVdUmfJX0TZXO7pL9kPYkPRD2vviXsn+RDyZnjKO37UL/Tct01Iud6KOZJfzJ7dXsit0pfx9q09ne8C79J2zv7wzjv2/PjKh0vop5ybqz1TT8+Zr+79kq/pHzIz8JcEF5LPtra1O1N7wWkvzSf6vaXnKX1jv7vY1Bvr7N9+pgarm/cH5Ixx1ESq4rd6hibYn82hqSdjo/82lXzv2SpZKeLjYz70tdgef1Kx1noUzHeAtfa/CLtT3wf6pv6am0cqEf2QZmjRnkOc6d9JDfvQ36dCLHNy2TXgAF/WR7Tx35l2fSzwk9j42ns82B7+ohIiKXkzPWvG4/5XCXLJXUW9k7/DEFiBidqsO+LIOFEhjxZ7o7JBLZI/P2jAGlSnwoW/XGfIGsix5AgYT/LRYNQf2/bQN0i7hdu5n1cKPWncZ5PkOgFgt4n0wdytG3oEQwlJouh8sJHsY3iuJ8ItYtZWrZyM9DV6ya9gYuOr8ddiJNJ0depXzQa/ThgV9pn/abFt6HYUdgabnCSi06Y7PMbsXPm+0mZzgZXV+qf9OKTHPcX57S+81eSzzs/+jLL+KyMk78wV2I/6LOUDfV/18dLv37WChG27e5/e8Ph2o19aPJ/chMR7fV+zPyt9amMib35jfV0HISYJHwW/fJlsvO6c8s2S1838mx5mRLzmk3t7TlbZb9FjDpfKHEq/FgZjyVLZUxWGSdxrA/cALt+5hvylm02+q3mC7GhZtnv3o/5OO9uLpMYaPUXPNZt1WOal3d9H27Tlclt09gu6lLnqZaY5zbGuCp9L9pUfVaOTTtesznDtTmXz4ZsVj+rjBlbVuvTUHnFT7LN8X6WPtNiHutd0R5bj3Ltc9e6ZC6stGM5yOI50f5Bn/m6xJcUhT+UOBV8+nuldNyHObUmSpR908bHtGuAtT3zl35f4fqYz5cx5oM+S2wcmI+La0fTNTipO7Eh2NqJBtG/GlONcer62eZ7Z89gWd9mvnnsY+Y7VyqbrA/4LPQz9jHYmX3plTAb71U8IzLuiQ8nx1aciyAhHLKqQ8P5+yJIrJJ4O4GgX51QCgZuIFbbqAoSfjVDIWL442HFhRcVeoFCn4hCzPJXUZfgpGpzWq4x2bd1rfxoiu/bQJuqzQPlc38M+M5OlslFP/VB8r96EfOfu0lypA4/KacTaWejOze5KU7abOpDpV557tAFQ//MTeoyac7tL298ZLv2vbcx1lW98Io2VV8se2Gp1D1w8dP9MsBSZq+30ydZ+YU095vejrTXnyMuqAU/jTyocdJuYLQ+xYu880Vhgz1n2k2iak9seyjmq7ej2y/9H25alxvneowFS3OMkyrPSn+sfz1XIqbD8ajcrCrsqf2W5eR7H3c9LsJnkZH8+Oi5jW1a+7ObXU1Q0Xw7xGxiq7ejnxuTzyp9S+fUfD5WrieVfmrxnctnWt2DxwZsbOJnyE/FZ+Pzhe6HgfMG7B/sd7StUrccy5V2pI8m2x/t0Njz84O47gQhIfAnbXD91sZF2YYbY/o9kF6vrKPiP61f1odyDq+d74/Lvmv11o7JGNbKheOj12DZd/fexTwRI2x9Zb90f+px0svq7Q+VHfpMHR9Vn+l2ll+I6Mzq40Lvj2pXiFHlFUGi4phlnJmesy+CRBARjkOSr/hLCg/RD0JQcOXESgSlvtr58bhPorUVBZktKwkSw7+koSb3si9zJPuyzrH31TbdSozCZ9Xy7ZNM22RZmwjTi4G8yOU2VCfD6uSbnx/5kT6s3KTI8vV+1vomLmbqhbJ2rrRdllvtQl/vi2w3eV/z84D/lmonxif3n4t/YMT5w30rJH0TbM7PDxddmbiUXPm6029Kok2h7srrgC8cT9Kmrh7tmKt/Nf/lNtbrqrcvx0DtfenDrm0lLt4/g8vsKz6s25/2U7bp+zblhrjGuTp+l42TtNP3Qem72m9RTvd/owBUYbtapy9f/Vz4r8X+kJzlY7OVy4ovK/0KDLfaHzjOvjmt1F2tc6LPgo3Nr4KH/ryKb6rl07FU+79SZ/RJPW4qC915K9kzcL5gsdZObtcS9se+az5z/qqtYHCxqvm0bksfY0VES+zJ+6bZ1x1ra6dazscvH7+urbExkfZD/V/GMOmbWn5Jlmp25v6bFqf83Jrv3fF62VqbA/XVfGaPS9FFa19vs+YjNQ5jcVI+R5BQnDKHc/dFkLC+8Il9/IUKsTLBfcPf718Qy9nNJHsBYm5BQlv5kLUxRZDwiXlu+0NTE2IQJMJk6CauoPJXx46dCHUFvzvHTXQh2Qx15692wrbLHsNzb+nr8LlVu7rx33gBq14w/PnuedXUJv9//ObUX/ST5KjWb3e8rKu/4Jd1VftYsy+xo3puMj/WbAr91hio+iypt952fpOU+8pxZ2/yav0LrET/T7nI+rZDHfIbXm9/jUnNF66feZ/cMd+X2JaI+8Q42TprPlHr0mzKx149Rq6ci40c37q/0wTPsSPO87ZLH2os1ZhcapwEJgdv5vR5xnEg+hHqU18rvlH6rvVbzlk1Dp1/dZuXi2nPRWubLfZ3trj6Eh9Wbp7HY97bONTHVvtdHW3zgT4OenumtdmfN9QP+5nCjTunnbPRNiLHlTrF5+G6ULxqc1DV/kYf1M6XY7lSLmfU9a+wO8zPmv2x75q9vr54HVLKeLuqbWbn1uxLxk5iT943pW1btu0aUOW74teOKXfOcnOQZVLGMOlb93ltTMnrxxjftb5l/psUp8oqOGF/sCtrJy0z4NtwbvFa81ntePRjYEgf4zUfFe2n9k/4H0FigrOmOH2vBInER1F8SESJbFVCUlb6KxMLBsrF88QKi3h84Fv9zJYgMiS2xjrS9ivlhkSHoc9iGwN2xjKpHXP8X21zPSsk2iao8Ytdy0Wrra3aBXfgeOOEX71gaN8Eq7HUbiTKC7Xrp1Sx5QXC+3Ts5ihcQLMbmmkXysjqwMUslhH9rvtsIB6xjpybnBHvS9sv6Zta3Xq5Ua6CD4UoYfsmjslEsfRL3if3uXas1oeG48He5piv3r7uQ93fmU8sU50AE26E6gKhZGnWcRKZG1hVMMC/tC3rY1p3/L/iG2UuUusW5XT/N7AS7SnLjtU59nnwQYv98ZvXkPT5V5lUtMW87EuwJX1ttT89x/4fxpcc+zH5SlgW/l26TVFPzSbpryD+9QKd943gp6hvsL0Ku/GcJeaTleypzxnL7SGxhP2x7xp7zl/LrZCQ9fm6xHV/iCt1/BX2NvR5KEYDnw3Z1sTd2Lwrx+GALUPt1ezM/TfGfh6v/Nz8M2lLvey0Nm29NZ/VjgdBInKlt1nzkezLsu8RJIqBOQxNq6N3UpDwKwqKZf3CR0UyXhMOxHmzCRLhVzoKoUHuLeHfF78mkse4ZlfRz6Q/Q59FRqriQN6+rWvte0hI3zgbXNuVX+U4et/cuXPH3Ll13VxK+h7717rMr+EC4Sa6Mjnv2xpIFFTbch9n9cjyDfZ159cvGA0X84abVWejryteGEI/5AWiVi6Ud681v9b7kp+f+a3RT+k5S7UT45P7Ne+L84e7ycvLpe3n/0sfpj6qJxG2jqLvafuJz4pyyWe2X7qtq/kpbyP3U/9ZvQ3dptx3fT3acdem8KG9+dF2Yhd1yZsk1Yfe33FceJvj+1CnjHGtXCivvEp7Io+y7nBu7Xj4XHvVfW5jJB4V0uLm/J2IllWbtbYbj43VOfa595tmfyHcNdVVi+Uy/l/xeqIy2lBnUz8b4xO5HEjIK9dojTNtXOvHdHbTsmrMU3vl/zV/ynLV9xoD3s40YVXbceemGwZOtr9qVxdLX78QiFN/RUFusEzgKxn3vl11/vWftfVlLKbLfj52XgPr1TFT8asa4/F2dB9Krqb1R69Tt6UeJ99mca3T67FcjfisECiLL9Vkv11bU/qT8z1gazJ2ECQSZyzjwNo52y5IhF+RiI89eDGie2ShFyS6JLbflNL1VfvlitUS/5oPnY39Ix9ZOW9vtL9LGO1PmYryYfWDFCUuf2Su3jgyts5CiAn92cQjG5v7lQ3pH/v+9ufm2okuSFx6+2N9LcgQAAAgAElEQVQnSNy5Y94/UiaU6qSXl61PtH05N9GNCBLh5ir9NnWO8dt4ARvsh/XFSPI1xV/KTVS3nLO/kDRepAq7/HndN5BTLnDpzU1q24j/B302cq68ScsZETcjRT97tvp5o/Eie+EbiZ9dPXnb3bHgxyQJ9zZ0cSq/qQz2+PPkjadncPhbtFDHyGvhi2BrLeYVm0bjk9jh24z9TnzRM+uW78YyGVOJH4sbeB9rwaxlK2Ux+HCZcZL21dquz0UlB2HJcGp/4pe0XvG/rMu+t78ik/OjlitWEIQYT7ejHx/C7uBPyWrsR1ub6hwg51z5PraR29QW8/ycav+0May12zQf+DZn8lnd5krfBvyn8qNwNqVNV+cAa6N+EP0YsL/VLsdGb5PjrvtVpnQsi+tGmGvE3BIEs1nm49BGdRx5XxTztvBRx6biV9dvscos4dj5ofJrDLHc8DVgNN5dPfIaEL+ESf2v9CnaUPmsOh8r84+3YfgarLej9VEyZVlsiVPo04Syg3EK/coYWuVXNvKYlP1svFcK/ZzpFUFiJkfKSXPrBYmYwIe9HzrhwSXivSDRDdw+YQ77K+Sf94M7fNseytnXZBWDTIilz4r3YysvEhHFtSnFk2BbIjDYfS1KocHZFnzhEnS5CkKWSfvZ+6T0V19Ot2/1FRLtbWYxsrFx56bCTh+H18373QqJiiAxOIHGcaVPbH0bLkbuYiCenbc33fnE2Z3nJk9RNpuoQ9yHXpMkx9/c989v9jc1dbtSccC3E24Wsvpy+1Xbu/KZ/eFCG/rY2SP96Ms0iAqyD11C2BY73X+yPuu3xA71c++TNDmVDJTv85skV2/wp49f6rdR/0sfuv65evuYd3aUfcg/d7YKhjofjN5Y533K+yzq8z6TCXx+TluMtJhXWRwUVPT2Sp91/nJ9lTEv2k3YiX0TsezstzHJynpfxvG2wjgR7fVzQSniFGxkNtX9E/sW50Yxl3UsV/jJfGbbc6xINrJywS/pGEna1uwpjoUb4VCXIgaPtWk/lz5S+ln4NbSZndsS8xViENoUPitt0+YD3+4MPivioMZNny8cu7l9WYxs33R+2trtE2PJX36+bl9/jv65Zn9eby2+ORt23rGxCNcMf54Y6/rc0pXV7evtr9khj/t6BFNqn4RtzhfCfsFX10/HZx/zktdwL5Hft2RcBPb9a+ynapOvLxubvSjRz5+9TWp/Va57vvp6evvzL1JEjDp7lLmlpW3VZ7J/wV7VJyJOvmxRb1Jn8VkSA3ndDNeG3ieiPdUmPU5Fu4lNzlfOr9IGd96SMQ2+G3hFkBhwTgvEtTK7IEjUbOe4vKAc7vvX/9gJEh+b6y9JH7gJK160auPIXjzXN4HtEqvu4i8uIp3f/A2GnPx3qW/YKsdH7b2/aW65Oa2NKY67lW376Iclb6Z3ffyFG+TiehJushkvW8e8u55t+bVdEyT2cd6gTyuPj3Un27s+R2/CfgSJNQ1kBInaDTnHNzGwZ2nD7yHx8duXism+bfIm+erj4H1RKNH9twEIEgcwN/gEi1gfQKyXubc4UEGintxO+HZ5GX9zTnFt769ZI2N0F8QiBInl43tgY6PtnnZkTByYz5rnika/IEg0Omqq4xEkGLhTmdme8sOPamyPnbvFmL5CIiwzVVZOrGluIn6b4+bxH3/DfOfrfXv1xKsvQ3wO2BcHKkjUVki48ZLvqcH42KLxse2r+xAkECQa76MQJE5/XkGQaIR16kUQQeL04Z4aM8oTs3UzEG6w++cAy2fU120D9W+S8yA4hWdgt3yJ85quhzDXyNyBChIdH0GUyOZGZc8KWGpkaUNj2cZNW/m3ofYHeUCQQJBo5BBB4vTnFQSJRlgHJz2lDgSJ04d7aswoT8xgAAZgAAZgAAZgAAZgAAZgYHMMIEgoYsIcACJIbA7iOeJFHcQLBmAABmAABmAABmAABmAABjbLAIIEggRLutbEAJPZZicz/I2/YQAGYAAGYAAGYAAGYGC3GECQWFMyygqJ3RoITFzECwZgAAZgAAZgAAZgAAZgAAY2ywCCBIIEKyTWxACT2WYnM/yNv2EABmAABmAABmAABmBgtxhAkFhTMsoKid0aCExcxAsGYAAGYAAGYAAGYAAGYAAGNssAggSCRL9CovEnx+xPF47+zJP/ubsr5/r6Z/T1rD/R09jvhS8Xf5Zs1AebHcxMnjvgb/szZPz0I6zuAKszztfEm3jDAAzAAAzAAAzUGECQWNNN1y6ukGj7Pelz5vtvXTTfvzA2qPZQkEhYaRNlxnzE57WJaeXjrSJTEtOV22yqy48LxKy1CJWbiSHjFj/DAAzAAAzAAAzAwFwMIEg0JRHTgds9QcIJDZd+/NhgotC+MgFBYq5BSj3Tx19YzTIunC1R98pzhhtrr65p9RC8nEZMaRPuYAAGYAAGYAAGYGAZBhAkVk4udPB2TpCwS8mfNd/5ut4fB9cUkWFK2aE29c/ahRH9/GywLPFtOiskGvy6prGVxa7WxhIxbaq31t7U43a8taw02nI/T+035QcF340ySCyIBQzAAAzAAAzAwBYwgCCxpiDsliDRKB6MiBY2SX/rool7LHT/F98C+2+HY7nlnqfvBYm8PnWFh0/+ertEm0nymvVhYFn9mCCR1TPgB2uvsG/5b/V9HKNvNYEp99erb5VlrO1d3Lxfgt+Wsat/DChvV4uTi2nCT8GOS86lb9O65GfB9vDa9yFhXvQzrc8liLntms9sOVHPq28JzrK5xrc/wBjJKWIMDMAADMAADMAADMDAvjOAIJElCfMBv1OCRJKQDwFvkz01gdKSqyThCz727aQJn0sghxI3PSZp8hqTTE0w6drMEltvV5osWrueNZd+nQooPgnNzu1tqftiYTrbok1d332/c3EmTXL7/rt+lSLBUFzsZ6GNLD6Pme9cedI8HvzvhY/U/8GPqb19Ur+6XaH+LIn3dvRtKjFZeP9k/VkYjZfzVxR/eX/0bfSxc74MbXYCSHK+tK3RZyHGqW/tsQo/nQ1LxzrEk1e+1YABGIABGIABGIABGNhxBhAk1hTAXRIkbGIkEr8yAXYJoprg2aQtSeqsT0tBQk/iXb1ZItcQk5Do5vY01iWTzpDMi+RxKGHU+yKT3v59mUjrCXdIbPN+9fWUcXGfjdtTxiNLzJP4O1tFPEcTfN3Gpjip/CzMQsZpUeuD0vaovUGQ6EUX54+UoVp7/njiM2er8NkYx6M2Kv0aq5PPuSmBARiAARiAARiAARjYIQYQJNYUrN0RJNIErJ4AucRSJm+uvJ4My2Su1o4sV7chTcZ1e2ptiDplIijfByaKhLivR+9z/3lqa/d/aa+zNV81UT9f1pe/b+i376Mm/Ejb1L7VfBR8VXmVdTu7c3udAKKxlZfrznVl05UsFZ+N2quICrIPE3wWhKRstYWsr3hf9i+Pa6VvRT2Uw28wAAMwAAMwAAMwAAO7yQCCxJpu7ndGkLBJt5YMpkC75E1LZruBryaw8ttsn9yFZ/mLV7E6YWxCaUl0Qx0xiY17K7h9CuIqhFryWjte7XPwmUs0iz6mj4mERxIm9jv0KXsdsDOWGyjjfNl/u6/Gc+D82IYyllripLZn6/J+FD5ydfZ7TahcjtrbLkhETpL+SZ85H8i4j40rBIkhdvgszCe8wgIMwAAMwAAMwMD+MoAgkSQZc4K+G4JE4+qE2pJ67zs9oZR1z5t8tSS6XTydGNEn2zbGMlmV7wMTA/3W+9xNFD4pTZfzb9EKiXpy3SfPat9qPgq+qry2xEltz9Y3xoxn7K2LphAlRu2dQ5DofVbMHX51zfDGlmP9298LT+GvCj+UgwEYgAEYgAEYgAEY2G8GECTWdCO8E4LEaNLm4K8njO5zNekMCVn8dlsKFKsNLLVNLwb0yakXB6INvk3Zb/neM2H7na1q6G2u+sT3Wyb+pb0V25bisSG5litWYjtlXNS+VXw0doEo+935UCTiNeGndjza3tVV2u9sEm1k5yTnCeEo70+t7trxng9bz5j9S/o0t1G0WfSTz/EXDMAADMAADMAADMDA9jKAILGmG/hdECTUxFP6oyVp8mWiEGDfy1+t6DcpjOVkWxPeNyW6IVlNRQUvGHSPU0TRQOujLxfLCNuqvvN1pXtD2LL2cZH0G/U5BYnet2m7NllXfmUj7ZPzY76CRO2b5iPhE22inxSnTBzQ/HPOfD8r0/+CScmUFw3S2Gf2+s9lfVmZ3q9jPuv6mZbpfOHinsY8vxBovtd8yLHcb/gDf8AADMAADMAADMDA/jCAICETkJneb78gMfYNsoNcTyiVAZAk+mGZuk3IKqsT8v0V8oS4ZYLR7dL65BPbsH9El4AWyXVIXvt9CbTNCV2baZn+/ywhznzhHico7dUSbsWvU3gMYkjoa/pzlqEeYVuIVerzzQsSXb/LGGQ+DfYXfUyEpVAmvorYpyJUaG9MkOjqavBZ5z8nQPRMvDpYt++vHB/R9hVZoB5214YBGIABGIABGIABGNgBBhAk1hSkrRckbJJV//bWJaguaVITwzX5LU2M+Z+kdG8ZsONvuhC3t/5gPuGGCQZgAAZgAAZgAAYOkgEEiTWBv92CROO3syRNBzkpkPSuWwhaw+qYNc1jsLBuFqgfxmAABmAABmAABg6bAQSJNd3Ib7cgcdjQM+kR/9NjwIuBg49zEJ/Tiw++x/cwAAMwAAMwAAMwsEkGECQQJFgFsCYGNjmQaWtHLhxNj0rtSF8YN8ydMAADMAADMAADMAADKzKAILGiA2uJICskSKpqbHAcNmAABmAABmAABmAABmAABmBgYRAkECRQ9dbEABMMFxkYgAEYgAEYgAEYgAEYgAEYqDOAILGmZJQVEnXoGJD4BgZgAAZgAAZgAAZgAAZgAAZgAEECQYIVEmtigAmWCRYGYAAGYAAGYAAGYAAGYAAG6gwgSKwpGWWFRB06BiS+gQEYgAEYgAEYgAEYgAEYgAEYQJBAkGCFxJoYYIJlgoUBGIABGIABGIABGIABGICBOgMIEmtKRlkhUYeOAYlvYAAGYAAGYAAGYAAGYAAGYAAGECQQJPoVEl9/0lx666L5/oXhgXH+ykXz6q+fNI+vyXc7NTE1+qzs02PmO7++aF59K/w9a77z9WG/l3XsX3nL1lsXzaUfP9ZzCWcH7ItTGCd+TMexWZvrLnwjGb8XzatXzm1xnLwft9rG/ZvPDmHOpo9wCwMwAAMwsCoDCBJrSnZ2cYXE4z9+tkFoOGe+3yBarAqmteWtb5jza4rPqvbF85cWJJLJyyY2CBKdTxEkEi62lP1TEyRPYZy09XUXkv1dsHH72Y/z/paOTeyDIRiAARiAgV1kAEFiTTcWuydIOKFh7JtpTSgISWT8RtF+679agq21s5UDDEFii78V5qK0jjHTlqSvwfcIEiuMNQSJdYwF6lzDOF/TPRmxIlYwAAMwsL0MIEis6eK3c4JE082+flOrJShOUFh+6T2CxPZOGkzohx0bbbxvhImmOWre2LT1VZ8XN+KT5uvXLtg4b+y2y//0jXjAAAzAAAzAQI0BBInmG7ppEO2WINF4s1pJCGo37fb4W2KlhK0j7JvQvaaPZbhVGvlKi1rZLh6yvGgrxFY+E561OS2uZZvOvmLfDdnPoWe3K36tDdryuL66RRd1xn2mxlNdCeK5iftgKAJU0jfHQ4hnGvf+UY0Q+8KfIZbJYx2h7NiqntJffcyDcBbqsq/JngFDPizblb7N+zhkR/GZ5KfKrIyBNgbGy9jYdIyKsRLjII5n/urin/jM9UX6QrOrj0PR/yTe8bOEpXgsLdfss/Z21bGQtmn/H5s/pf/FOLG+7fwTfOZ8FceL8G08HsZdZW4pynXlZdk1+EyNTeGz9hhQH76CARiAARiAgf1mAEFiTTdKOyVIqMlmCX7t5rx2PCQ3MXHr2sluiMONepm46YlgYpO/kY51LxYmJJcxiepi6/uWlrPHMjuSeod4qNUl9tRwdqQJmE80am2OJVpDNtnPXP1ZH6M/Ut9qdpwz39cSHnEs+DH17fkraR8XZqHEJByzCWzsv4+7bCOJV9pOfxHy9qfn+ZgUidaoz4IIkvrHH0vq1zlU/K2w4RLCvP6+LwPMdXVFX3XlKuMk9D2x15a9km44W8a85DP4ohOL+phq5Tr7q+M9+FzhwNU1vmHuoH+Gxkmrz4KNja+jfbX1+PhkMevjOzpObByfNZd+3fne1dX9b5kWfe78mI2NwEDWtja+FBvX5LPBGDb6nTp6fvAFvoABGIABGNh3BhAk1nSDtEuChE0WsqRGG/guscluhr3vqjft6s2yqNsnL7Jel8DUkjnl5jpNDNK+iBv6VQa02k/fx95+JVntbBuyY+izJj71NgsfFraKWAzFs+lcJRHy8R0XS7wtA+0U/fH2uuN9It0U40o7MsZ6m6W/5XnOhrJck21azL0fe84ahAFVlOr8XI4fa38iRgzZr/c1sFTW7epS2ND6OXRs6jhRfDbV/8N9Hetz+Fy+Cl94Fp2o5j8LK2Ia+uBil8yVqp9qcRG2NbQ31YeUFz4eYpzPVtgnBT8z1mAABmBgVxlAkFjTDcDuCBJtSZOemLmBX79pd3UPfntdSQyH2gvf1ssktxuExXnhZr9ItqZOWhU/SfvVZKBfqZEmlHHSqJ3TzKZuW+GL5BEX1Q7fnhpP2c+KbcW5UxOcajsiiUvbr55Tj3HpG51lvZz0t3wf2m1MAtO+1P4v+lhrM7Tdvdbbl3GS7x2b+vl6Wd+ut7NpbNb6Wjs+dZwUPkt90/b/YF+jnbqf4viO5fo2s3ozO31dQVRtGD+S0azu2HajjZktvb1DfeEz/AQDMAADMAADMLAKAwgS8YZtXpB2RpCwN7zJt2uqP9zNrJZkdPDpN8B9Ep4KErZsePY5eZUJsrzJziAfuGl258lvy13y1j/3PtZfjYVKAihsce2HfRLKV9lP26+piVYRI9023Yc+MYm+l76qxFP009rtj/V+9f0NyVRnZ0NC1RbbgYTK21HjM6vf+073Tdl3vZzwd80PwcfZcnqNrfLY6DjR4lHhoohPsCuJkz6GdZ/rZX0fBuxyvix50+KjHhsZJ6M+K/xT+l22O9jXWJ/up1hXjY/g/8xnvq7wWTF+5FwW5ph+TtNt1m1ch89iv6N/xv3MOfgIBmAABmAABg6XAQSJNd007YYgod+kFhNCSyIQbqBTf4qbaXfzKxKS7Ga8H4h6Iug/r5zT2T14XmebtynfTLNvt+h77I9IQsNxacuIr9T6lzkntG9fddtGfeFtT/cN6OxTExrZz3CuSLaLcwUDav/Tvsh24mcDrFbPqce15htpv15O+lu+r7c72v/gf7mip+hjS5sDPot+dbbKfjs79fP1sr7PhZ29L3Rf9p+P+mZgnFibRn02oS3vn8G+Rh/qfrL98f5IRdnueFZv5jNfV5hPs/HjYi43EJV+zeoesHFdPhuNY7RpejyoG5/BAAzAAAzAwP4xgCCxppujnRAkshvhOtz6DW5fXv/c31iHZ6HD4wIigQ2PXxQrBwaSj/pS9IHEII3zYN19v/IJT6/b3dQnm/U1+jSreyl7Uju15FT6Py2f/K/Yq8XTJT19P917IS7JRKvzeZZQJe2m8Uj/V+wJvpKJ19jx8Ln6qvnct50mfGqbvk/9igydDbXdtK/q/z7pHB0nvs2QuKp1icS3UqazU4t5bWyqPol113xRO97ARKhbi5n9rNVnE9rybap+CfbE13rfmsZJxryIazp+0v9j26UIq8bHn9sLI+vz2XLcT48N7eAzGIABGIABGNgPBhAkkhu7OaHeBUGi6WY7u1nWoS/r8TfV2a9PhGP90uKQrHZLygtBIiSHMjEL8VJuzrWb/+6YrNvaG4USvU8aC7J++/7Xz5pLwn5Xf5msa3XaY7YvE8oHH8RXkcSEvQPs0vzc330S7fot+9TZI4+5925pePSl939fX4iv+AlIJU5VP3T9GeRNSaJ8+d6O1njKutx7++sGaZIv7ffvO2azNgt/tNohywU/5nELj11E/3e+CrZkY+Qx8530VzbGxpFnqDqGU18E3sb66j9PbZVMDTIQ2pGvtl5tnEzwmaxz5H3pFxmv7r1vP4uDL1f4KtiajJOMef958HvqSyWWbq7pxmbCixwT9n33Kx7pz34GO5LzfFvqfDzip6XiSZ1s4AgDMAADMAADMLBYGASJNQ2E7RckfAL248cGB4JLJJKbVsVf/U1xeJ45vfFNb+B9Epg+w57djKdlk4QrlE9vujs7khtol7Dpdhb2hZt9pS9jN9ZZXTYBcX1Kk6+ujjSJD8lk+s17SLzjZ7GPSaIyyb7ctzZZtv7JfVLalX8e+p/10/qr7Kesq/OBPS/1b5pQVfuT2577RNpXlpW+D30YfQ0JnvW9S3QL+4tYdva4ZC4TJLq+ZfWFsaAl0ILzwi+ij50/a+OkaFNrT9TnWUv9lsU7sKgl2N5WGfuM7a5M49icFqPgU/+achZWYAXbh3xW+DuPR9G3UKcQoVSfKb6V9RXjJIvtgCCh+LVj0NUvxknmf/eZtTeLqeBiBZ+NxnHE55yfM4g/8AcMwAAMwMAhMYAgsaYbpa0XJJRktQS/knityWdl+0xG+GSzDGiCxCHE4FD7fQixpY+bnUPwN/6GARiAARiAgWkMIEisKbnebkHCfwuXfVumgGNFC+0bV6XsmvzIgMbXm2TgUBPzQ+33JtmiLeYyGIABGIABGIABGCgZQJBYUyK93YJECQKDA5/AgPLIyZrmh23zNYIE43/bmMQemIQBGIABGICBw2AAQWJNCQeCxGEMICbK/YrzoSbmh9pvxu9+jV/iSTxhAAZgAAZgYPcYQJBAkBjc1JJBvXuDmpgRMxiAARiAARiAARiAARiAgV1gAEECQQJBYk0M7MIEgI1cqGAABmAABmAABmAABmAABk6LAQSJNSWjPLLBoD6tQU27sAcDMAADMAADMAADMAADMLALDCBIIEiwQmJNDOzCBICNXKhgAAZgAAZgAAZgAAZgAAZOiwEEiTUlo6yQYFCf1qCmXdiDARiAARiAARiAARiAARjYBQYQJBAkWCGxJgZ2YQLARi5UMAADMAADMAADMAADMAADp8UAgsSaklFWSDCoT2tQ0y7swQAMwAAMwAAMwAAMwAAM7AIDCBIIEk0rJC7cfGiOTx6aazeOmsqvHf7LH5lrJ86mzq7j2x+Z82uK5dr7sia7bczwy3bwuqYY7yqb2M0NEgzAAAzAAAzAAAzAQMcAgsSaEoV9WyGxdYJEErfNJt7vmqvbJMwkfpCT+kp+8YLP1TeYKKVfeQ8TMAADMAADMAADMAADMDAPAwgSAwndKpDtmyCxii/WfW418ZarKMKKipvvrvCtOYLEuuNJ/fNM7vgRP8IADMAADMAADMAADGw7AwgSCBIrJOfbMcDHBIn8W34nKByf3DMXloo9gsS2T2rYtx3jkjgQBxiAARiAARiAARiAgTEGECSWSkrHwdqNFRIhOQ97MXxuXrmc980m+2FlwclDkyf3adkj88rtUE/+GvadsHV1qxPEygWtTtnu8cCqhmmCxKJvP6uztD/Y3Q2i8zc+t3to2P0qEn+E92nZrvxk+09K348NXvm5aqPcQ0L4/li0W9gt+prHathn0j7ep+OF/+EBBmAABmAABmAABmAABhAkDlaQ8GJElpS/a67KBDb4Z3BPAZ+YJueG5DhNYPtkt1+d4MrlyXh3LD0vChiZrf3gnSxIRMGgt+PCzdyGxRv3Kpt4jq+QmGZ/LwpJUWPKBO182/enO7f0Sxlfd57oexfzwXg737f7rI/VlD5RFr/BAAzAAAzAAAzAAAzAwH4zgCAREu6ZX7d+hURDwpkN/qHy6mel4KEmv+q55aDTEu5gX5l4+/MH6lZtyRgoRRbX3rggEexKX0ftFysV0nNH/6/0s+qXtJ/+3EIMqdQ5bEvNZ2U8h+uhPP6BARiAARiAARiAARiAgUNgAEEiTc5m/H/rBYlF/818thqh5oOhBNWvJsjrKRN3NUEeqjexxa2kyFcAhAGq1tudO1C3tjIj1Bde9XrLfoXyQ69D9g+d1/JZrW7dfjmxV/oz4Lshm9ralDbwfsinfAYfMAADMAADMAADMAAD+8oAgkSS9M4Z5O0XJLpBLfcAUJbuB/8MJqjlN+Nawq8mq2q9vVgS9mhwr/MJEtaWdFWCtyNv76E5Th5DcXxUEvjgJ/s6zf5VuZsiSLiy+R4fXZ+XWiHR7DMuIKvGmPNhCAZgAAZgAAZgAAZgYB8ZQJDIEsn5IN8NQSLpb0wuK6KEKhyE87UEvKynTZDwdQkhoJZ0d4NSrbeLa9VmIaCEvos9KvR6xwSJ6favOrHUfCPtD2LE2EoWa0/Vdz7mk3wWOOF11VhzPgzBAAzAAAzAAAzAAAzsEwMIEggS/c9+DiWhA5/VEmI5UGSCbD+X9aqPf4RfuZhphYTYsNLZ3yighFUlQryIfV3W/nS1xlQmbZvC/iAYRGFHiDCxjZrAUjvuLgDTfLYwi5eum4/v3DF37rxvXo9tczGJ3OCTfh7CF/gCBmAABmAABmAABg6GAQSJNcG+9Ssk3rhXLNOvJZmqcJD6TUuI08/9/02CREikk4Tfnmd/fnIGQcILBtmjGP5Y/9hC8ihLTOj75NnZIwSA0N/J9vsVFdpjE6HO0VdfR/SZFxNuf549clLYHWxV2w4+0H1e/gpJKK895rIwi6P3zR0rSNwxH7996WAmWASHftzgC3wBAzAAAzAAAzAAAzAgGUCQGE32loNm6wWJRVh1kO4nIJPPPlku9lY4ycv2okFa30NzHJPkyqMVPinOHiMIooEVIdz+BnIVhnsv2krKW9CThLu3XxcSZH2dPbZPiiBR7r0h9mBosD8diIVQsAyTWV9dH22f/v/27qdFkuPAH77OPhl0GKyR6iQbI4k9CJ9KYNoAACAASURBVFYMKxYLI3zwHmZ1kEF40R8PLMJ7eMSe5GV4FtTYHrBA8nlHNGLsnwaxz/MgSzKe42ANWIgRPgwjmOkXoXkDEw+ZGZGVf6uyqyuzu7I+h6a6qzIjIyM+Wd3x7cioWv0roUEZ8MTw4tpBR0jQ7v9qPx2vzV4Nh7eyGRICiWrf+36z91ftpt0YYIABBhhggIF5GBBIbDL4G7DPLgQS27qIewfUrZkH87hottVu+1bOqx98mQcSnxxwsG9973yZZ4ABBhhggAEGGOgyIJAYEC50Ndy65/YnkIj/da/9Jz5ebPG/9stbIVyE69zM9vW0hsSf3umYicHFbPt9pPdX7eWaYYABBhhggAEG5mFAIDHSH8z7E0jEWxtaizKm2wO6b5HwBjKPN5D1/ehWjfVttC8WnCcLDDDAAAMMMMAAA3UDAgmBxFb+Y925hkTXrImR2tuFXb+wtYf2YIABBhhggAEGGGCAgbNuQCAx0gB5n2ZInHXk6ueNmAEGGGCAAQYYYIABBhg4ewYEEgKJrcyQcHGfvYtbn+gTBhhggAEGGGCAAQYYOMsGBBICCYHESAbO8oWvbn4xMcAAAwwwwAADDDDAwGkbeOSHP/xhWPf1wgsvhH/4h39Yu926csZ4/azWLbtl45/+6Z/OZJuN0Q/K/GH4f/+//yf/0hbr31O0kTZigAEGGGCAAQYYYIABgcSAQGaTC0UgsX8Xl0Bi//p8k/cG+3DCAAMMMMAAAwwwwEBhwC0bI03Xt6jl/k1/SoHEaU97cvz9s6fP9TkDDDDAAAMMMMDALhoQSAgkrCGxJQMCCb8EdvGXgDpzywADDDDAAAMMMHBaBgQSWxqMNjtwp2ZIXPoivHv0MFwtv74Nb15yUTb7dN3PAglm1hnxOiMMMMAAAwwwwAADDCwNCCT2PZBIYcSNj8yUOKEFgcTyjcWbrLZggAEGGGCAAQYYYICBdQYEEicchPY18K7MkHju2rfh6pEZEX39eJznBRLecI/jxba8MMAAAwwwwAADDOy7AYGEQCJcPboXLo7UDvt0gQkk/ELZJ+/OlXcGGGCAAQYYYICBkxoQSIw0EN+tGRJ9gcRBePP2w3A1u50j3doR15l499pB6xaPizeq61A8DLVtrtwrgo+ynOyYsfyszI5bRorZGw/D5SsbXuhv3w8Xb94PT71yK7x4MxTfLw7Cs59l34dw8dr12jk8+f6D4vl82xBefL99jqsuOIHEhv000jW4qq+8pq8YYIABBhhggAEGGDh9AwKJkQZDZzqQyMOBeniwXNCyGg5UAoPqbR1x/2VQ8FG4nIUKt78Iz6X2TMFDChryfb4N797Ogohi+3dvf5uHFkXw0AxFKsdOZaSyhz7mgcSD8OJn98NTi+vh+ZshvPjZgzxoKMKH7PniInzqWgos4kUZQ4zjhBICidN/Q/NLRR8wwAADDDDAAAMMMLA7BgQSQwe3x9zuTAcSlXPpDgMS4BQKNMOCGCjEWRJ9ZRTPx/UpYohRzJqoBxi17Vp1O+kMiTTToQgkLn52Kzy5WIQikHgQnn1lERYxfHj+7XTexWMztFj3xiaQqLffuvbyuvZigAEGGGCAAQYYYGC/DQgkKgPgbV4MswokqjMfWu0VQ4uubeIsiXwmRZwhUXycaAwk4syHvkDixP0RZ0jkoUOcIZFu06gGEr3BQ23/9W8UAon1bXTiPm35c0xtygADDDDAAAMMMMDArhoQSIw0wNm7QKLrtooYSOSzIs5wIFHcrhHXlYjrR+RrTOTfx1kUA5wIJPwi2NVfBOrNLgMMMMAAAwwwwMBpGBBIDBhobtIxAolFuRDmzs6QOKYNgYQ38U3eK+zDDQMMMMAAAwwwwMC+GhBIHHPQORTK/gQSi7B6DYm4/sQGMySKck+6hkSa4RDXkIifrFG9ZWNxzFszFq8fhi/v3Al37nwS3qn4EUj4RTL0/cF2rDDAAAMMMMAAAwwwsAgCicqAcpsg9imQWMRPzah9dGf1do2sjY8dSKQFNauf+nHMN61a0LAikCg/CnT5qRsrLRx8Eu7kgcSd8OUHr5YfHSqQOGb/jHTtrew7xyy9aideGWCAAQYYYIABBk7bgEBipAHKfgUS2YUcF6rMPv4zfi0/FnSTQCLNvJhghkQ00LmWRJxRUb9QXw2Ht7IZEgKJert4Q9ceDDDAAAMMMMAAAwwwMNyAQGLPAwkXy/CLpdpWr37wZR5IfHKw3N8MiWVbVNvK99qFAQYYYIABBhhggAEGugwIJAQSpnAf10BaQ+JP79TaTiDhTbbrTdZzXDDAAAMMMMAAAwww0G1AIHHcwejA7Xfllg0XRveF0d0u3bdqpG0FEsdpS9smNx5ZYIABBhhggAEGGNhXAwKJgQHDcYEIJPbvTUUgsX99ftz3BdszwgADDDDAAAMMMMDA0sAjP/zhD8O6rxdeeCH8wz/8w9rt1pUzxutntW5ZIPFP//RPZ7LNxugHZf4wpEBCW6x/T9FG2ogBBhhggAEGGGCAAQYEEgMCmU0uFIHE/l1cAon96/NN3hvswwkDDDDAAAMMMMAAA4UBt2y4ZaO2MKPpQ8vpQ9pCWzDAAAMMMMAAAwwwwAAD4xkQSAgkBBIjGfDGNd4bl7bVtgwwwAADDDDAAAMM7L4BgcRIg1GLWu7+xeENTh8ywAADDDDAAAMMMMAAA+MZEEgIJMyQGMmAN67x3ri0rbZlgAEGGGCAAQYYYGD3DQgkRhqMmiGx+xeHNzh9yAADDDDAAAMMMMAAAwyMZ0AgIZAwQ2IkA964xnvj0rbalgEGGGCAAQYYYICB3TcgkBhpMGqGxO5fHN7g9CEDDDDAAAMMMMAAAwwwMJ4BgYRAwgyJkQx44xrvjUvbalsGGGCAAQYYYIABBnbfgEBipMHoWZ8h8dy1b8PV21+E5xYfhctHD8PV+PXutYNWQHHxxvL1fLsbH1W2OQhv3n4Ysv3SdnkZV+7FMr8Nb16qXij14109uhcu9vRBXsejh+Hyler+x/v+qWshXLx2PSxeuRVevBnCxfj1/NvNcg7Cs58tX8+2e/H9Slvk+z8Iz75yPTyfl5F9vwh5+dnPn90KT1bP4+375bHyY2Z1qL7ue+3BAAMMMMAAAwwwwAADe25AIDESgJ0IJPIQohIYxBChGgBkoUD158WlL8K72X5lKBEDidvf5qFEEXR8G97Ng4YifChDjrhv+fNiEUOMrlCiKLcdgDSDhNU/l4HBzfvhqdjXT77/IFy8WQQKKSR46lr950UMFMpQIgYSL36WbVeEF9n3ediRb7vcv11+DDGEEn7hjPR+kxx7XP1+oH20DwMMMMAAAwwwcLYMCCRGGiDsSiBRCxvibIlqYNB1wRYzIVKIkIKD4uf6rIY4GyKGF/l++ayM6kXQCC0q/VEvq7rP8O+LQGIZFuTnE2dLtGdJVMuNMybSzIc0wyIPFdJsihhyxPCiKK8IH8ogI51PI7ToalfPVdvf9zwwwAADDDDAAAMMMDB3AwKJNGDc8uNuBBIpVEgXen84UL0QiqAg7RsDiRg6FK+lWRfVQKKv7Pr+1eNs4/s8kEihQurjQYFEvB0j7VvbpxFWVAOJvuChtn9qb4/b6GNlcMQAAwwwwAADDDDAwG4aEEikQeqWH+cTSMRQobLORLHexDEDiXSrR6ucuD5FeQvIdi+kwYFEmgFRWWciX/vhmIFEcbtGfS2KtG5F9rh6VsZ2z92bsvZkgAEGGGCAAQYYYICBs2xAILHlICJ19jwCiRhGNG6z2O4MiXHfIAYFEimMaKzxUNu3NsNhgxkSIzlL3jyO60j7al8GGGCAAQYYYIABBrZvQCAx0kBxFoFExyKX2UW4WSBx/FsziuNs4VM20iyH1Ne1cGER2otQFhfaRoFEo2xvWtt/09Km2pQBBhhggAEGGGCAgXkYEEikQeqWH2cRSKTbLCq3U6SP9lx+XGc9aOhfQ2IRFjHgWLdoZvHmEsutfaLH8S+6WqiQ+rgZGsQ1IJYLUaZFKysf51nbZ8UMiUX6KNDGQprp2B590gYDDDDAAAMMMMAAAwwwkBsQSIwEYRaBRNY2MUQo1o14uPxoz/xjPbOA4BiBRFZeCjlqa0mkRTDrgcNUMySyAKS59kO21kMtzDhGINFVXm09ipHMSYnrfrSH9mCAAQYYYIABBhhg4GwbEEiMNDg864GEC/NsX5j6R/8wwAADDDDAAAMMMMDA3A0IJAQSpkuNZGDubx7Ozy9IBhhggAEGGGCAAQYYOIkBgcRIg1EzJFyYJ7kw7csPAwwwwAADDDDAAAMMzN2AQEIgYYbESAbm/ubh/PyCZIABBhhggAEGGGCAgZMYEEiMNBg1Q8KFeZIL0778MMAAAwwwwAADDDDAwNwNCCQEEmZIjGRg7m8ezs8vSAYYYIABBhhggAEGGDiJAYHESINRMyRcmCe5MO3LDwMMMMAAAwwwwAADDMzdgEBipEDiypUrYcjX3IE5P2+iDDDAAAMMMMAAAwwwwAADXQYEEiMGEue/fz6s+soCi65O8ZyLlQEGGGCAAQYYYIABBhhgYO4GBBICCaHISAbm/ubh/PyCZIABBhhggAEGGGCAgZMYEEiMNBjNZj+smh2RvWaGhIv3JBevfflhgAEGGGCAAQYYYICBXTYgkBg5kHjsPx6Ec4chnDt8EL73z/VbOKqBxG9evhvuvXxgtsJI/bHLF6m6+yXDAAMMMMAAAwwwwAADczQgkBhpANycIVEEE/VQohpILJ7+MHz91t3w9U9eE0qM1CdzvICdk19MDDDAAAMMMMAAAwwwsKsGBBIjDX6bgcT57/+f8L3DEL738nKWRC2QyOpx4dNw76274c8XXFC7ekGpN7sMMMAAAwwwwAADDDDAwDADAompA4n/eKdcW6IVSCwWIb91461Pw29GqpcLY9iFoZ20EwMMMMAAAwwwwAADDDAwrgGBxEgD/94ZEmsCCbdujAveG4r2ZYABBhhggAEGGGCAAQbOhgGBxFkLJBavhT9cuhvuXfowvD5S3Vx8Z+Pi0w/6gQEGGGCAAQYYYIABBvbZgEBipEF/e4bEO+F774fwvXUzJBaL8PpPvgr33LZhcc+RbO7zG55z9wufAQYYYIABBhhggIGzY0AgMdKgrx1InA+P/d/Zx3/eC499v1jYsmsNifziyBe3/Cr84emzA8VFqy8YYIABBhhggAEGGGCAAQa2aUAgMWEgcT4LIv75i/zTNrJg4v+6cqV7FoBAortdRuqrbV5QyvIGzQADDDDAAAMMMMAAAwwMMyCQGGmQ2ztD4v0vzJAYqc1d9MMueu2knRhggAEGGGCAAQYYYOAsGBBIjDQ4bgcS/yefGWENCRf+Wbjw1YFDBhhggAEGGGCAAQYYOG0DAokzF0j4lI3Tvigc3xszAwwwwAADDDDAAAMMMDC+AYHEWQsknv4wfP3W3fDnC+N3vgtMGzPAAAMMMMAAAwwwwAADDJyWAYHEGQskfvPy3XDv0ofh9ZHqdVrQHNebHAMMMMAAAwwwwAADDDDAQNWAQGKkgf9Ga0jkn65hdkQVqO+9YTHAAAMMMMAAAwwwwAAD8zQgkJgokHjsPx6Ec4cPwvf++XzIP/7z++dDFlqUF1a8VePrn7y2fG6kupXHVL62ZoABBhhggAEGGGCAAQYYOCUDAomRGj7NkCiCiBDOHYbwvZeXYUQWSlQDifxWjZcPXAgj9YcQZp6Jqn7VrwwwwAADDDDAAAMM7K4BgcRIA+AUSKTZEF2P1UDCRbS7F5G+03cMMMAAAwwwwAADDDDAwPENCCQEEmZljGTAG9Lx35C0mTZjgAEGGGCAAQYYYGB/DAgkRhqMZrMfhny52PbnYtPX+poBBhhggAEGGGCAAQYYWBrY+UBCZy47U1toCwYYYIABBhhggAEGGGCAgV0xIJAYaYbErgBQT29WDDDAAAMMMMAAAwwwwAADp2FAICGQsIYEAwwwwAADDDDAAAMMMMAAA5MbEEhANzm600jeHFPiywADDDDAAAMMMMAAAwycLQMzCSTOhfvfPBJC9vX5uf4B9oVb4bHDB+H8hbPVCS4K/cEAAwwwwAADDDDAAAMMMLBvBmYSSCS4MZhYEUo8fjmEc4f3w+NmRvQHN9pG2zDAAAMMMMAAAwwwwAADDIxsYGaBxCIcHH4nhL89Gg56G+4gnH8vhHPv3QpP9G6TAg6P+5bQOV/mGWCAAQYYYIABBhhggIFpDMwzkPjmu+H6qrAhv3UjhMfePJB4rWonr/HBAAMMMMAAAwwwwAADDDAwkoH9DCQWi+DWjWkSL8midmaAAQYYYIABBhhggAEGGOgysLeBxOKl++HcYQjnXwKjC4bnuGCAAQYYYIABBhhggAEGGBjTwOwCicWvvxvCuls28ukm18P5Q7dtjIlL2d68GGCAAQYYYIABBhhggAEG+gzML5B449Hw4JtHwoPD82vu84mLW16+vmY7ePrweJ4NBhhggAEGGGCAAQYYYICBTQ3ML5CIi21c//yREFYGEwKJTdHYzxsOAwwwwAADDDDAAAMMMMDASQ3ML5CIMyTu/3odDoHESfHYf50xrzPCAAMMMMAAAwwwwAADDPQZmF0gcXD4HWtIjPSRLH2IPO8NhgEGGGCAAQYYYIABBhhg4LgG9jeQ8Ckb1s4Q3DDAAAMMMMAAAwwwwAADDJyagb0NJB6/HMK5926FJ+A7NXzHTc9sL3FlgAEGGGCAAQYYYIABBuZjYD8DiQu3wmOHIZx/aT4d6aLUlwwwwAADDDDAAAMMMMAAA7tkYA8DibiYpdkRZkaYHcMAAwwwwAADDDDAAAMMMHBqBmYWSJwL9795JITPz/U2aH6rxuH98Dh0vW20S4maukqAGWCAAQYYYIABBhhggIHdNDCTQCIGEVkY8bdHw0Ff2JDfqvEgnL+wm53lItNvDDDAAAMMMMAAAwwwwAADczEwk0ACyLmAdB4sM8AAAwwwwAADDDDAAAP7YUAg0TebwvNu6WCAAQYYYIABBhhggAEGGGBgNAMCCbhGwyXV3I9UUz/rZwYYYIABBhhggAEGGNjEgEBCICGQYIABBhhggAEGGGCAAQYYYGByAwIJ6CZHt0lyZh+JKwMMMMAAAwwwwAADDDAwLwMCCYGEQIIBBhhggAEGGGCAAQYYYICByQ0IJKCbHJ1Uc16ppv7UnwwwwAADDDDAAAMMMLCJAYHEHgQST7z5IJx771Z4onauz4T/OXg7fP37X4b/eW4RFv/y8/D1798OXx/8NPxbbbv9uLD+7fVf5uf/19efCYvF8+F/s7ZIbTNRexwcfieEvz0aDiY63iZvGKPt88aj4cE33wm33piDt3Ph/jePhJB9fX5O4LePnp0z9wwwwAADDDDAwCADAom5Q3npfjh3GML5l5oDvUYg8dxPw1+zQfh/Pj8ITtfA9L//c3cDjXogkdrm5+G/p/Lx6+/mA9j7v2720/Cfn7v2bbh6dC9cnKrOWz7O9c+zQfx3w/Utl9tldbznzodbfxNEjNe+w68HddBWDDDAAAMMMMDA2TcgkNjpwc8aYBduhccOQ3jszYPOkCEPEH4fB917HkikGSL/+y9Zm04cSOSzAx4JDw7Pd/bT0DfSXQ8kFos4mN/lWSKzmumx5v1lzu+dzu1E70VD37Ns5xpjgAEGGGCAAYHEjP/wfPxy6LhVY4m+FkjE2xSKWxaW2xznTWKXZ0jUA4lFmPJc8pkBWxiE734gsQiLLYUzQ9x+/9+/Cj+7+ml4ZpvvAflMl7ncerLZ+8CQtreNtmWAAQYYYIABBhjIDMwikHjy/Qfh4me3wpOL6+H5myFcjF8vvt8xM+Dt++Xr+XbXrnf+Jygvc0VZxev3w1OLg/DsZ8tjFvXYBNcvwl+OPg5H5dcH4Y+X6uX89sbH4ejGL8Li0q/C38vtPg5/uVLfLr+44+yI9q0aHduuGZCl2xnyNSaat3WkmRX5mgvZuguNr8qaFEU52YyMNAMhblvZpnxjSmtapPK6biVpHTuuh5HOJy/j5+G/y+0ax+4qM+071WMcgK+8VePSF+Hdo4fhavlVvS3jo3C5fL66Tfq+su2Ve+Hq0bfhzUuLcPFGej17rGxTnnez3K5tDsKbt6vlPAzvXqtcc3m9s+OlshrHvv1FeK483tLldLduHIQfXb0bfnb1q/CPF5bHLw121G3tawKJzvfTte22SVvbR1szwAADDDDAAAM7b2A+gUQMD55/Ow4sYvBQ/rxYhCJEeBCefSUNPmKA0QglnrqWBQxZ2BC3e+VWePFmCNWAoxpYLJ/vLm/tH+NXfpcHEX+/9uMS1BvXPsifq4YNeSCRBxG/C7+NdSu2a4cX+UKWh/fD4+kcNnwsQoT6QD97rri1IbVj8bhuVkE12FjOxIgLSFbCgfYx29vkC082goxixkelrnkg8cvw14MsiCjK+OvBL0N27OIY8XaVDdtmbb8OKDdfyHLVugkxjGgN9G98VFpJ9Vg7QyIPJGKAUO4fQ4VqONBxzCLAqIcSF28UAUM6/iKWX9Y1BhLv3s62K46TfX81O3YlHCn3T+21hfU0WmWmsluPr4V/fDcLJe6GH/1r3fPwMir7CSRaLjdqx1Y/VdrYa9qYAQYYYIABBhiYjYFZBRLV8GGRZi6UYUMRFizDg/gHbh5cVEKKGD7Uy0phxjKkSIFEc7s8zMhnawz9A/rH4Y+348yH2oUVn7/9q/BGfL4IJBrhQ5wtUQ0usnM//14I5y53z/44zgBhXchQLWvdtimQaIYZ9f1icJB/2kWlDWO4kH8iSK2dKtvEmRBl2BFnWRQ/x1Ajhhjt0KNSTl/5W39+wAKIqwbujfoMDSTKwCDu39wvDx+qAUW+XTHLoblvtf8zd/mMibRvDDbyACK9lmZjxPDictfsnkXxKRWbramRZj0UIUMWNNS+/qsyg6PSfs/8V7HdT//9tZO9uQskTtZ+lT6p2zqN69Mx9QEDDDDAAAMMMDC2gRkFEsuwIDVaLRxoBg/pD99GALG8FaOBr7F/e7ZFY/tU/rrHGChUZ0ek+hezH5azIfJAohJQ5Nt1BhLXw/kVi1mm8oc8phBhyMeB1oOFdnsMCgH6gocYNjTDjPo5NMKMWlkxkIgzMQbVZV3fnfj1AQPvNKiPt1rUz7fexs1gobXtyhAgldUXPMSwoZxZkbavP9bCjFj3InRohBUr6zIgqDlx29frnbVVsabE3fCzntCi1Z4dddjWeiBDjmWbdh9qE23CAAMMMMAAAwzsloG9CSTSjIa0vkTzMc10KG7XqKwJUVlH4uLN5UyKbQcS9RkOBaLm7RinEUjkF3ScaVCuD1G5vaJ6wW8jkCgDkLR2ROOxGkj0bVufIZFu4djRQCIf9KY1GNJ6DfVbJ1IfbCWQKAOQdKzGYzWQ6Nu2MUNi5wKJDdaUKNa9eCSsXAukI8BIfedxt35x6i/9xQADDDDAAAMMbMfA3gQSi8YMhz5AvTMkGoOJ6QKJ050h0WynPHTIQoKOUGIbgUTxaRcpROhHnsKIakCRryvx+7fzNSLyes9hhkTDXVqnoWshyq0EEou+GRKNvkhhRDWgWMTFMk81kDjdWzbMkGg4afr1s1taGGCAAQYYYIABBioGZhxINNaMaNya0Rxolz8fK7hYzpgo9680bvW5d/50J9y5cyd8+cGrDYBr1pDIPlUjljl8hsT21pBIx64+9gUPRUjQv1Bk8fqasGHQrRnxUzoai1pOFki8fhi+vJP15yfhnZ7+rrZX//cb3prQt65E3/Opjitvk0gDyWG3ZhThR2NRy60FEgNuZUnndOJHi1r2+0wmPGojBhhggAEGGGCAgXEMzDaQaH1SxmIRiufWhQjpYzzba1JUER5vhsQ74ZN8AHsn3Ll1GF5tDqLip2xUb9to3q6RHXt4ILEI2/mUjWzg3wwY6rc+VNukmN1QmaHQOM9BgcRiEYpZGKuDi9Y25Ud7Vo4/1gyJg0/ycKk7YDrehbruUzaygX9z4ceuT7zI+6Fn1kLZR4MCiUX8BIzGR3g2+jLN1FguchmDjOwjSE86Q2KyT9lIsyl87GdppNnPfi4DYW10vPc27aW9GGCAAQYYYGCIgRkFEo11H3o+6aIIEtZv27mWRPmJHelTN9aFG0uE/TMk4jYxlDjKP9bz43B0tLxVI3XkcQKJxYVb4bHDEM6/tKxDKud4jzGAqKzlUK7R0DFYSbdSlOtNVGYxDA0ksvq1ysmOXylrsYizJMp6VT7aM31Cx1iBxOLVcHirb8bLMdv7jUfDg29Wrz1QBBCVtRzSgL+j/VNQcDULBvKvynoTQwOJrNwUbpTlZOXVZ0QUsyTScR7mwck2FrWc6raHYhHLT8MzXe246XM+ZcMAflM79mOHAQYYYIABBvbQwIwCidUzGo43CD/moPKMwnn8cgjnDu+Hx89o/Xa5T1794Mt8lsQnBye3UiyI+N1wXT+FxYCA5ky7EUj4Q8J1zAADDDDAAAMMMDDYgEBizljiLIlzl68PBnGmB3tnpa/SGhJ/emc77RoH4eHzc9sp76y007HrEdfU+Nuj4eDY+548GNqK/bwvvxNuvXFG6rOr7ajee/5e4PrZyvuR68h1xAADDDCwAwYEEjvQSSf6w+Sl++HcYQiPvXnggjxxX2/xVo1mXeK6CQ8Oz+9tP81jpkixIKdwyYDyRO/bzfcHP+/t+yJH3ksYYIABBuZuQCCxB3/o5QtcvncrPLEH57rLF2y+wOUuzw44ia9ZzSyIocQ3jwTBhD8idvk9Sd35ZYABBhhggIGxDcwikBi7kZTvQmSAAQYYYIABBhhggAEGGGBguwYEEif5r659TaNlgAEGGGCAAQYYYIABBhhgYCMDOx9IvPDCC+EHP/jBRicv3dpuuqU9tScDDDDAAAMMMMAAAwwwwMBQAwIJSZYwhwEGGGCAAQYYYIABBhhggIHJDQgkoJsc3dC0zHaSVQYYla495gAAIABJREFUYIABBhhggAEGGGBgvgYEEgIJgQQDDDDAAAMMMMAAAwwwwAADkxsQSEA3OToJ53wTTn2rbxlggAEGGGCAAQYYYGCoAYGEQEIgwQADDDDAAAMMMMAAAwwwwMDkBgQS0E2ObmhaZjvJKgMMMMAAAwwwwAADDDAwXwMCCYGEQIIBBhhggAEGGGCAAQYYYICByQ0IJKCbHJ2Ec74Jp77VtwwwwAADDDDAAAMMMDDUgEBCICGQYIABBhhggAEGGGCAAQYYYGByAwIJ6CZHNzQts51klQEGGGCAAQYYYIABBhiYrwGBhEBCIMEAAwwwwAADDDDAAAMMMMDA5AYEEtBNjk7COd+EU9/qWwYYYIABBhhggAEGGBhqQCAhkBBIMMAAAwwwwAADDDDAAAMMMDC5AYEEdJOjG5qW2U6yygADDDDAAAMMMMAAAwzM14BAQiAhkGCAAQYYYIABBhhggAEGGGBgcgMCCegmRyfhnG/CqW/1LQMMMMAAAwwwwAADDAw1IJAQSAgkGGCAAQYYYIABBhhggAEGGJjcgEACusnRDU3LbCdZZYABBhhggAEGGGCAAQbma0AgIZAQSDDAAAMMMMAAAwwwwAADDDAwuQGBBHSTo5Nwzjfh1Lf6lgEGGGCAAQYYYIABBoYaEEgIJAQSDDDAAAMMMMAAAwwwwAADDExuQCAB3eTohqZltpOsMsAAAwwwwAADDDDAAAPzNSCQEEgIJBhggAEGGGCAAQYYYIABBhiY3IBAYiR0L7zwQvjBD34weYdKD+ebHupbfcsAAwwwwAADDDDAAANzMiCQEEgITUYyMKc3CufiFx8DDDDAAAMMMMAAAwxs24BAYqTBqBkSLtZtX6zKY4oBBhhggAEGGGCAAQbmZEAgIZAwQ2IkA3N6o3AufvExwAADDDDAAAMMMMDAtg0IJEYajJohMdHF+sqt8OLNEC7evB+eGtqXb98PF28+CM++MlEdh9bLdjsbjl288TBcvf1FeO44fXjlXrh6tMF+xzmGbXfW1LZ/2SvP+z0DDDDAAAMMnEUDAomR/mAXSEx0wQskdmDA9VG4fPQwvHvtYAfqupnbsx5IbFS/kd4bN/lFuOv13+Sc7bPZtajdtBsDDDDAAAO7ZUAgMdIf3QKJDS6EfOZCCC++3z1wffL9B9uZ2WCGxMTBwK4HEkX989kM2YyGo2/Dm5fqvs/6gPms12/dHw67Xv915+f1+vWkPbQHAwwwwAAD+2NAICGQmHhwuuriuh6ez26/+OxWeLLVLwfh2c/6XltVZsdrAomJ+3yHA4l4W0V1dsdz177Nb7W4fGVp66wPmM96/db90bHr9V93fl5fXkvaQlswwAADDDCwXwYEEq2B73YAnPUZEsVsg+a6C0Ug0JyhUGybrdMQv65d7xzQNrfrLic7ZgwXUnmVAOKpa9kxOtZ3iLdmlGWWt2rEOlXKaL2JNbfNj9s+xrr6F+XG0CTVvauuxzLV/O/7vXCxsn/nQOzSF+Hdo4dhOSA+CG/efhiu3vgoLOJr6b/51YH0Ih9cF//dz8vN/9uf/ce/fsziPFfXqzhOR1mVdRTSwD3VpflYq1vlnFv913itXvf2rSDFcbNziu2SzrNSt+UxGtvUZj9U2rWzDst2K/up0f7LPlq0+qZsj6zfGuUvmnWv1av6HrWi/o26lMdb2R7Vsif4vlXHZZs2La+s/3Fsp7U7UjsMav+Gs7yMe+FiWf+Gt84yJ2jPliPHbF9b2kSbMMAAAwwwcJYMCCRG+gNuLoFEMUivD96z555/u34hF0FCJeBoBgiLRagO+MtgYREH+Cnk6Llto6se6ULKj90XSMTyavXtmCExpP6Ljrqlc6qVP9RUGhjVBi8fhcuVn8uBbrXMOAhaDnarg9LK7QSx/HK7dLxsIFYeI+5bHazH8quBQRECdA8Wl9vFEKMsOxnZ3gyJVj0Wi3DxRuWcF4tQDUJW1i0NJqvnngUBN+LilM32q/ZB47Win74N71aCg6Ie9bols8VjX+DRbsfOstbVv1LfTkeV1+v1Sv028mOHszyEaPnJ+njN4p8Dbbfbsd3WWVs0TRVhXiWUyI/3bXj3dnZNRN+3v83XSSmOUblWTrudHb8j8BvZtjbX5gwwwAADDAw2IJAYCctcAomVg/3UdjF8aA7Ki8H6MqToG7zXj9F1a0Z8LoUW6bjxsb5/9Q/Nnv2agcSg+veUlWZ79AUijbouB359g9Fq/XsGYnEgVwYN5X/Tm4OgRhAQB23LQXpxrOYAqnvw1ygrDYYbg8dB+/a2Sf3cl22Vnh/WZsX5VGeQFPs369b8uXm8ZrvUXm/0QV5WJYwotu0e7C7L6T6f7uO2t11X/+Vxehwdtx8OPgl37tzp/frkIPXTwMc4qG+ux1Gtd/p+7bkOst0wnM5/UD1i+6fwqna82M/xtaL/VgVRA9sn1c/j4D9okhePjDHAAAMMMLA7BgQSI/2xN5dAIoUI3es6FNCbwUP5BtAY+Bfb1WdblNtW+qG1XU9gkPbtDST69uus1zI4SeUWMyJifWNZy5kdy4u89/wr51SWmZ5rDGhbr8ftOgdirX0bg6V0jOZjHEQtg4zlOSyP3zNoS6FHCiBadSjK6qxv+g/yFj5lIy+/NsOjfQ7DBoR957ksrzsYiK/H80/hTvd5r+uXdshQ3qqR2rnSh/VjrK//sk+3FEhU6lIte+PvYxt2LRLaLLN+7ss+KrcbYrsveOixXJYdz7tWh1pZMZCIfTbMX8c5bLt9lSfIYIABBhhggIEdMCCQGKmT5hJI5H+Ux1sV+taQyAOBck2FyloTjbUaWkFDX9s3Bv/rBvwnDSQG1b8v3ChvRVkftNQGOLUBTf/gpDYISu3VGkCtG/jG8ocM2spBYra2RMdXGii36lAco7O+WwwksjYsBnzLuqVQILXvoAFhT/1TGcvjNGedxLZs7N993uuCgK5AIg5uu9o+ey79h75x/Gq9u77vq1/XttM+1zzf7vZeW/8Btptumr5rQV1s3+Y2ZfvXrl+BxLRm+t8v1UPbMMAAAwwwsHsGBBJpkLflx1kFEpW2KQfvldsn1gUG6Y1hcCBRuw2i71aJ5cV20kBiUP3XBhIdMywq7ZbaoHwcOKDsHIi19t1iIDE0PGjVoeiPzvoOLXNVe3W+Fs/7qHJvfxlYrJsyXwwim2FG2T/Z8WqDzqW3fJvGa93n3RU4VMvper3rueo+6fsB9a+0WXf9UlkDH7d9y0alfss27V5kdW39BwQSK/uzWpcURqTwLb5Wq0Ot/wUSteum2pa+9585BhhggAEGGFhjQCCxpoE2/UNrJwOJOBOi67aEaju0AoDGLRDVbavfDw8k0gKYD8Kzb98KL94MrUU0q+W26lP2adenhsSAo/rpGIPq3xeM9D2/CO/8qbjf/ssPXu14I6oPYqrnU/2+NgiK55X+07v8j24cxKb/npfn3xhoDhm0NW/N6CvrWIHE0EH2ujZrnE9et3bZg2ZIpPNc2Wb9fdTsl+bPeR/GNuoPPdp1z/brLKvVDwP7PO5XtEn37IOqt1P/vjbQX/b32voPsd1jtnnOfX5q/VKrZ91J3/7N4/h52b/aQlswwAADDDCwvwYEEq0/9LeD4awHEukTI8qFKCu3ZSwDiWyw3fzPf+NTMeKg8NnPsls1mtvW2/I4gcQizkgobhNZXW5/ILEI+WuVehXbPggvVgOJNCOjsl3nm2Jso7LNVt6u8U74JC0AeOswvNrhrBi41P+7v8hmE1T+M9sc3KR9sqnk4wQSaWZAs171vkwfybisQ/F6bdBWOef8+daij40yF+va7KNwuRkgdAz6m23W2ZdZ3eIgdvmJI1l9Kp+yUc62qLZ1umWkPgOjfd5DAoPuQCK1bb1ezbYaVv/y3OO59ocjHeVX+q8sZ4vPZf3U6afrY2jX1T++3iyvWe9BDlvHiv1UvWUm3yYZEEg029nP019P2lybM8AAAwzsqgGBxBb/wK4iOPOBRDmYTms+ZIP+4r/9y0Aiu7BjAFFZI6L++vLiLwb/qbz42Lq1Y+haC3HmQXbcShmpjYtwo3GsWMd6/Srl3Awhfy0PO9r1WFf//NiV4GZdWLJ6hkRstzj4Wd6r3v4vdjGIimsm5APyYgC0HHwNGfwuB7DL/ZZ9l9q1fIwD/WW9suOnAdgipEFzs6z2wDwdozKoi+sjdA2O17ZZR72adRgcSGTXfqu8yjmm94YBfVSGG9W1HyrBUtmuqcz8sSeQyF+Lg9xqebUQKrbrkPrHY1bDrLxfm+FOrW6p38Z9rNmuDvg76rKy/rGPmha62r1VTsdxm9tk5dZsCyQ6Zn2Na6WrLz2nzRlggAEGGNh9AwKJjj98twF7FwKJbZynMnb/TUAfnlYfrgokTqtOjut6YIABBhhggAEGGJjOgEBCIOE/XSMZ8EY23RvZTrZ1nN3QNVNkJ8/HdeS9lAEGGGCAAQYYYOCYBgQSx2ywoQMFMyQMRodasd1+WHnu2r3w5qXluRa3K7Rv0eFh2UbaQlswwAADDDDAAAPzNiCQEEhI8UYy4M1z3m+ex+/f5joawojjtyFT2owBBhhggAEGGJiTAYHESINRMyS8UczpjcK58MwAAwwwwAADDDDAAAPbNiCQEEiYITGSgW1frMrzC4ABBhhggAEGGGCAAQbmZEAgMdJg1AwJbxRzeqNwLjwzwAADDDDAAAMMMMDAtg0IJEYKJLbdUcpz8TPAAAMMMMAAAwwwwAADDMzJgEBCIOGWDQYYYIABBhhggAEGGGCAAQYmNyCQgG5ydHNK9JyLhJoBBhhggAEGGGCAAQYY2MyAQEIgIZBggAEGGGCAAQYYYIABBhhgYHIDAgnoJkcnPdwsPdRu2o0BBhhggAEGGGCAAQbmZEAgIZAQSDDAAAMMMMAAAwwwwAADDDAwuQGBBHSTo5tToudcJNQMMMAAAwwwwAADDDDAwGYGBBICCYEEAwwwwAADDDDAAAMMMMAAA5MbEEhANzk66eFm6aF2024MMMAAAwwwwAADDDAwJwMCCYGEQIIBBhhggAEGGGCAAQYYYICByQ0IJKCbHN2cEj3nIqFmgAEGGGCAAQYYYIABBjYzIJAQSAgkGGCAAQYYYIABBhhggAEGGJjcgEACusnRSQ83Sw+1m3ZjgAEGGGCAAQYYYICBORkQSAgkBBIMMMAAAwwwwAADDDDAAAMMTG5AIAHd5OjmlOg5Fwk1AwwwwAADDDDAAAMMMLCZAYGEQEIgwQADDDDAAAMMMMAAAwwwwMDkBgQS0E2OTnq4WXqo3bQbAwwwwAADDDDAAAMMzMmAQEIgIZBggAEGGGCAAQYYYIABBhhgYHIDAgnoJkc3p0TPuUioGWCAAQYYYIABBhhggIHNDAgkBBICCQYYYIABBhhggAEGGGCAAQYmNyCQgG5ydNLDzdJD7abdGGCAAQYYYIABBhhgYE4GBBICCYEEAwwwwAADDDDAAAMMMMAAA5MbEEhANzm6OSV6zkVCzQADDDDAAAMMMMAAAwxsZkAgIZAQSDDAAAMMMMAAAwwwwAADDDAwuYGdDyQkUZslUdpNuzHAAAMMMMAAAwwwwAADDJymAYGEFGzyFOw0wTu2N1wGGGCAAQYYYIABBhhg4GwYEEgIJAQSDDDAAAMMMMAAAwwwwAADDExuQCAB3eTopJFnI43UD/qBAQYYYIABBhhggAEGTtPATAKJc+H+N4+EkH19fq5/gH3hVnjs8EE4fwG600Tn2PwxwAADDDDAAAMMMMAAAwzMJJBIHRmDiRWhxOOXQzh3eD88bmZEf3CjbbQNAwwwwAADDDDAAAMMMMDAyAZmFkgswsHhd0L426PhoLfhDsL590I4996t8ETvNing8Ci1ZIABBhhggAEGGGCAAQYYYGAMA/MMJL75bri+KmzIb90I4bE3DyReq9rJa3wwwAADDDDAAAMMMMAAAwyMZGA/A4nFIrh1Q8I3RsKnTK4YYIABBhhggAEGGGCAgWEG9jaQWLx0P5w7DOH8S8MaCijtxAADDDDAAAMMMMAAAwwwwMD2DMwukFj8+rshrLtlI59ucj2cP3TbhotpexeTttSWDDDAAAMMMMAAAwwwwMBwA/MLJN54NDz45pHw4PD8mvt84uKWl6+v2W54Y4KnrRhggAEGGGCAAQYYYIABBhgYZmB+gURcbOP654+EsDKYEEi4SIZdJNpJOzHAAAMMMMAAAwwwwAAD2zcwv0AizpC4/+t1jSWQcEGtM+J1RhhggAEGGGCAAQYYYICBsQzMLpA4OPyONSRG+kiWsRAq1xscAwwwwAADDDDAAAMMMLB/BvY3kPApG9bOENwwwAADDDDAAAMMMMAAAwycmoG9DSQevxzCufduhSfgOzV8EtD9S0D1uT5ngAEGGGCAAQYYYICBZGA/A4kLt8JjhyGcfwmEBMEjCwwwwAADDDDAAAMMMMAAA1Ma2MNAIi5maXaEmRFmxzDAAAMMMMAAAwwwwAADDJyagZkFEufC/W8eCeHzc70Nmt+qcXg/PA5dbxtNmYg5lgSWAQYYYIABBhhggAEGGNhPAzMJJGIQkYURf3s0HPSFDfmtGg/C+Qv72dkucv3OAAMMMMAAAwwwwAADDDBwVgzMJJAA6qyAUg8WGWCAAQYYYIABBhhggAEGhhgQSPTNpvC8WzoYYIABBhhggAEGGGCAAQYYGM2AQAKu0XANScRsIzllgAEGGGCAAQYYYIABBvbTgEBCICGQYIABBhhggAEGGGCAAQYYYGByAwIJ6CZHJ/3cz/RTv+t3BhhggAEGGGCAAQYYqBoQSAgkBBIMMMAAAwwwwAADDDDAAAMMTG5AILEhuifffxAu3rwfntpw/2oqtFPfv3Q/nDu8Hx5vnPe/vf7L8PXv3w5/ff2ZsFg8H/7392+Hr3//y/A/z42UAD730/DX/BjZcd4OXx/8NPxbo055u/7Lz4vX07b/+fzkF9lO9W9XG2bP5e1Y78/J+7yjbgeH31n9Ub8d+zT74+KNh+Hq0cPw7rWDs2Hj0hfh3aOiTlm9rt7+IjzXdR5vPBoefPOdcOuNka6xrmOO9lzlo5s/P3c2+mG0c51DfzmH5vuIn5lggAEGGGBgMwMCiQ3/6Nx+IHE9PH8zhBffPyODoq52uXArPHYYwmNvtutYH5w+E/7nIAsKfh7+u6ucLT/33/+5IpAojxXrNONAouiDkdp8bSAxbZ/nb/i//m4I3zwS7v96sze/9EvjzAUSpdlFyOvWF0gsFuH654+E8M13w/XKPum8dufxfLj1t0dCEEQIYnba8cneh3bnenWe+ooBBhhgYLsGBBIb/gG0f4HE9XD+MIRzl693/9EcZyL8779kQKcdnG4vkEgzO9JMj+1ebGO/eU0dSBSzJt4Op9Hni3x2wCPhweH5bo8bXtdj99Fxy18XSCwWcTD/t0fDwa6e86xmeuzWe8ZxPdpe/zLAAAMMMMDAtg0IJDb8I37fAokn3nzQeatGCbIWSCzCsJBgOxf0sGMNmCGRn8PPw/9kt5/03QKyoZeynUbc/3QDiWn7PJ8ZsMuD8IEO1gcSizBlOPP9f/8q/Ozqp+GZgfUf5D6f6TKXW0+28542qN222QfKmnWwyZPrkgEGGGDgLBuYUSBR3PJw8WYIxdeD8OwrbXxFkJC2CeHitZ7/+C+a5dXXi+gKJJ66Fsv97FZ4svoH3tv3Y53i65VjtupT1r/YdtNbOH574+NwdLT8+vu1H9f+4Hrj2gfh6PavwhuLX4S/rNiuwFvMjui6VWMT3On2jnzth3LdiXpf5SFDWvche1xxq8W2Aom8nOw4+foU9fUSaucZw5dU/+66pVkicY2LnvU01rVFvU6prDQrIWuz5ayOsj7VdmvdNjOsXkUbLI9XlL2iTarex/4+zo5YeatGcx2Go3vhYqNe6VaNfJ2Go4fh8pW6wbLPW2Wl9R2+DW9eKvbJy7rxUVg0tm2XeRDevJ32X792xaBAYtJbNw7Cj67eDT+7+lX4xws97dVo57Id+54XSNTem9e2V187el47MsAAAwwwwMAOGphJIBHDg8pAf5EFCrVg4CA8+1k2yK8GC3G/2naLsEgBQrO8ys/NQCKFEc+/Xf8jvdiuGo501TXbp3h+0wBi+UdsDBjysCHW5dKvwt+z0OHGL8qLNA8k8iDig/DHOKhaXPldHmL8pTkwyxeyfBDOn3gAkgbD9YHtv73+89ril9kgvbgNINY/LWDZE0psJ5AoBvbV2w+KBTrr/Zkf6/fVQKBY8LGzvrVZFs+E//nP+sKbRVmVNR/ieVaPm45XXSC0CDHqbZj1f/F8pbzWG1IMLyrt2FlWY7ZLbit/rn3Mpbt6O435fL6Q5ap1E2IoUFukMnsuCwxabbIoQ4R2eLB8bVlWChTqAccy3Fg+/9y1b8PVo2VokR374o36z4sr91YuqDk0kFhsaT2NzvZptdlr4R/fzUKJu+FH/7qFfhdIdLtstfsW2lqZ2poBBhhggAEGzpiBeQQSr9wKL94MoRkG1P64zkOGajAQ/7iL4cNy3xhcVMKHWjmxA6uBRJrlsCwj/eHYEzJ01qVn22OCKYKG34XfNvYrnl+GDymQqIcPRZjRnE3x+OUQzr13KzzRKLOrXVY+d4JBbWvwXqlL/lpt8J/av/q45paNvG7LwXxnmTEwqIUPlXqkc+/ct7ldT1nNUKE472YQUAQL1eAiO3Zz31Sf9Nj9erNdmj/HNjxB36Xjb+dxwAKI+SC/MfBvtn/15xhgdAUSRaiwDBnyc4ghQnX7IpBoHHNFucu2iAFHz8KVgwOJRfEpFZutqZFmPRQhQxY01L7+q72IbVb/Z/6r2O6n//7ayX6xCyRO1n5Vy77XlgwwwAADDDCwYwbmEUhUbq9ohwLFgKqYwVCdHZEGq40gYEi4sViEFEg8m3/8Z08Y0hk8LMKi8xiNemwE6cfhj7c/jrdipPOLj3GWRAoguoOLrkDiIJx/b8Vilseo56CBek953YPp4tyGldsz0I7Hy8uozBzo/5jLZWixHFRW27o7LGhu23s+jYF/97l1n0tvmfk5du+T1at2jJ6gpKs9muc0zc8DBt4xCGjOTuit34rgoAgaugKJevjQGRysKLdal859o8tVr1XLKBe3nPiTKoo1Je6Gn/WEFvU6Vq+T5ff7sh7IkLawzdKFttAWDDDAAAMM7IeBmQQSWWelWzLiOg0367Mh8kCieWtG/kd/EQSUa0n0hQhxgJAujDQr4ljrVTTWh6iHJ1sMJCq3ZqT6LmIgkWY/TB9I9A+IyzqWbRxvLaithdD/MaK1AXVZRvMCXnX8rhAh1qESUgw6Tt+AvlGvvKzW+aU1G5YzIrqP2X0uqwOJvjaNx0wzTPrq3whK2n3WbO+xfh4QSORt/VG4fFRdq6ERKlT7Y1VwEF9r3bLRmNHQGRx0lRufS+tWlI+N8lL7dpZbrXv5/YCZI+W22+ubMpDYYE2J4iNLT/6xramtPG6vX7WltmSAAQYYYICBqQzMKJCooIkzEC5WQol1gUS5dkPn7IVK2fGP+jRD4qkyCKkHIHkHDgw3is6eJpA4+zMk4sA5DZBje68abHcP2pt91j2Iz9s+H2ynMKD5uJwRsaoOywu2K9xo1mX97RWpvO5z6z6X1fXr3icdp3ycTSBRafN4i8XVjoUt8/PuCg7S4L3ctxJudIQHncFBs9wURjTWsujcNx5/1Wtln+XbniSQON1bNsyQqFhN7jyabssAAwwwwAADe2JgnoFE1nnNYKEvHGg935gx0QNhGUhkf0zGfWoLZnbUoaesYmAxbO2KfNuDT8KdO3fCnVuH4dVGmd0zHxah+Xzz56IOXbdsLMK21pAoBszL//7XB1Txj/IYDjTXaVg12O4etDf/yO8fkPfu36xL8+dG2xfnE4/TCFRa55qXtaYtmrdTpONtGBr0nmcqN3/sClTiOfV8Ukjr3GrlxX54/TB8mZm980l4p+v1wc9tOPBeta5EMzgo6xLXd2gECF3n2xkcNMrtWuQyK6tz31iHVa/V6zF05kjzutjkZ4ta1tt+kza0jzZkgAEGGGCAAQYyA/MIJN6+H8oZDvEP+SIwqM5aiAP+2m0b3eFDuh2jXub18Hxloct6ILEMHy7Wyl+EYu2Kaj364Q3d9p0/ZQO77OvLcPh6s7z4KRvV2zYat2tkHX+cQGKxtU/ZSLcNLGcdZHWpfcpGHGxXP0ozH0jntzfU90tvYsMG2n2BRNcAPLVprG9520bPwPxffl7/VJAYXFTPYbFofspGKqv7nPrPLe7XFXh0tF0qJ39c93q8dor2XtaraN9fhr+eJJBIIdqdO+HLD149UeK97lM2soF/dcHJ7Nzzgf0GMySGBgKd2zUCifYnaqRP7HgYrnbMuijr3fNarW8n+5SNNJvCx37W2r8MsdJ7h0ftwwADDDDAAAMMDDEwj0CiXGQyrR/R/HjPhKG5zkRoBRllo+UzJ/rLawUS2R+k5T71xTNTwFGsNxHLbAQXxXEH1i8N7jpmSBTlxFAi/1jPjzs/yvNYgcTiejh/GMJjb3avtl+22aA/ytNAfHlrRPPTIooFFOuvN2dIFD8vt/m6sh5DtbxlmNHeNp+FsWamQnNwnp1rq8wysEjOFmGRBv9lvbpnQ7TKyravlLfu9VbbpzCkPO4yWCi2TaFQvT3qM1LqfZS3Z34+3efQqkOng1fD4a0iSDtpILF449Hw4JvVaw8UAcSq2yyaa0xUtq0FF/3bVUOPQYHEYhGKWRLLY2VlNPdtblOuM3H0MCzXsqhYWyzCVLc9FGtGfBqe6ezjep2GuViE4iNLvxNuvbHh/tusi7JOFBYO7nPtrJ0ZYIABBhhgIBqYTSDhD6Fx/5h/4s0H4dzhg3D+wrjH0Y/19s0Dia7ZEDv4Jv7qB1/mM3s+Oaif4yZ9XiyI+N1wfdR2iGFExwyFIvCof9LGJuexlX0GBDQJCIy7AAAgAElEQVRbOc5Ybe1jP/1BMpYt5bLFAAMMMMDAmTcgkIB0INJilsS5926FJ7TZwDY7+cB7NoFEWkPiT+9sp+3iIDyM+TGX8ZaLrlkJfetBTD/wj2tq/O3RcLCr12Xel2ZITG/n5O9P6qwNGWCAAQYYYOCkBgQSu/pH/GnU+8Kt8NhhCOcuX9/OoPI0zmHHjrn7gcQWb9Vo9l1cN+HB4fmRPPbMkIhBRd+6Dyd9Uz7O/tPMFBn7F22xIOeo4VLTjp9HumbGtqL847w/2JYXBhhggIFdMCCQ8Ifp8f4wzRe4vB8e127Ha7cN22v3A4lxfxHkC1yOOjugew2JrlkTk7/hz2pmQQwlvnkkCCbGvWYmd7rhe596csAAAwwwwMB+GBBI+GNpkoG1N5T9eEPRz/qZAQYYYIABBhhggAEGhhoQSAgkBBIMMMAAAwwwwAADDDDAAAMMTG5AIAHd5OiGpmW2k6wywAADDDDAAAMMMMAAA/M1sPOBxAsvvBB+8IMfGFQLVhhggAEGGGCAAQYYYIABBhjYIQMCiR3qLMngfJNBfatvGWCAAQYYYIABBhhgYN8MCCQEEhJEBhhggAEGGGCAAQYYYIABBiY3IJCAbnJ0+5b6OV9JNwMMMMAAAwwwwAADDDDQNiCQEEisDCR+e+PjcHS0/PrLlTaixeLH4Y+3l9scHX0Q/nipazvPrX4Tiu144xcr+uQg/Pmtu+HPF3anLX/z8t1w7+WDFee0O+eyuv+ch/ZhgAEGGGCAAQYYYOA4BgQSuxZIXPpV+PvRx6E7GBgR/9DjXvldmHcg8Yvwl6OPw9+v/XiEAfa6QOK18IdLd8O9Sx+G1zvcfv/fvwo/u/ppeKbjteO8KWx926c/DF+/dTd8/ZPXRmizEc2ftXZUH34YYIABBhhggAEGZmZAILFrHTo0GIjbrZ/dMHBAN/S4AwKJN659EGdd/C78dtfaf3F6gUQ+0+CtT8NvetrszAYSWX0vfBru7djMjq0HMz395jgD34O0nz/AGGCAAQYYYICB2RkQSOwa6gHBQBrwN/+L/9sbJwgABhw3H1itDSSKWQB/v/arfKbB5DM9TtzfpxRIxFkGq27VONOBxGIR1gUqBuYG5gwwwAADDDDAAAMM7JcBgcSJB6jrwaSAoJyt0LlGwOp1GJprOZRlxfUdyoF9DA6aYUTnhR23XZa1Yu2HbQUSeTnFcfJz6myLrE1Xt0d5PnkAUlm/orO8IkRYnmcjmGnWKa2ZcftX4Y3oo9WHaZv42GrvQfVahM5+7TiHfDDfeavGQfjR1bvhZ71flVs4/vXT8LOrX4V/vLAIz/xXdZ/KNov42rsfhu9Xr40LH4afXr0bfvSvde9FCLIs66f/vuK2DLduzC7RLq/DqhXf62cGGGCAAQYYYICBgQYEEgMbatM/vIuBbH2gnz1XBgj58eOAuTIQ7dovr8OaYKB3v9Z5/iL8pTLgzsouBsf1upbnvea45XZrZkjk9UvHzbdthANZPeOxjtJ2ed1/HP54YxkQLOvbWE/jyu/qbRvLqgYGxXlWjpuOl4ULZR+0+6Q4x/UzJNp90FVWDFya55gtDlrWIQ3+i4Us163BsHaGRB5IxPDgv9Iik6+Ff3z3bvhZJYDIw4rKz/l5dwQSRahRCTPiNv2hxOo1MEpDLaupHTxqIwYYYIABBhhggAEG5mRAIDHy4Ccf/NYGne0LqBjAVgbIaQDeNThdGQx0DXLbx+sF3DF4L7ddedzKMVYGEkX9ynCgp8whbZZCi3qwU6lH7NfushqhQqxHMwjo7pfGvi0/Pa8326X586o+z9df+Cr84en2+ZX9s1iEoYFEMzBo7jcokOgIKLK6NMuq1i/7/vWffBXurVgHo7m9n1f3ufbRPgwwwAADDDDAAAO7bEAg0RpQbhd0Maj9ONT/2189RgwRWv8VjzMWmmFGzyC+QHjCQGLVgo0rj1s5n86Bdnw9L6M6A6Pr3HsG9I1+6g4LKvXIt+8rq3HcvnPrPJe+MuOxO/dZzvpIAUp3UNKoVzznoYP4dWHAIs6QaN520XwDGxJI9B6rcltIs9z854HhSue+DQO2aXr3MxMMMMAAAwwwwAADu2VAIDHFICcfpPatc1AMcJfrG1S2y24hGDGQKMOSdeshZG3UN2hvtl/fgHyxCF0hQvFcJaQYeJzuAX3j4otl9bZtCoH6jtl5LqsDib42TXWYSyBR3K6xXDuivoZFsU5F5y8DgYT7CZvvGX5mggEGGGCAAQYY2FsDAomJ8ecD6dpaBd3/Fe8czGV17Rs8x/Moyq8M8HvOLw2c0wC5ON6Kwfaa45b17RzEZ0FBPM9G+JEG6uVtHKtmaVTOpSvcKOtQbrfifMptVrRp57msKbNzn0ZQktbraIZNqY1SUBLruFMzJKrt2vW9QGJvf9m0r8/2dWEbbcIAAwwwwAADDOyXAYFE16Bp5Oea/91v/rz6IhwyIP44LAf4XaBjONAaEK8o+6SBRO/+zbo0f+6q/yIs8oF/Y0HLVr/FshoD/Fb79tStu1/WlNlTVvOYnYFKPKfmWhaLoYP4dbdLnOCWjeIWjcqnbKw7Vqsvin4cGq4028vPPddBTztrL+3FAAMMMMAAAwwwsAsGBBKj/kGfDV6bi1UWg/7aoDMOYmvP9dYrDoiPmuUuL7hilkQ7lPjtjeU+xTaVmRSpDkft/XLIAwfaRVBQKTeeR+cAvPZaZZ/OgXnzUzZSO1T2y8prfspGLGtlQNN1bisCj1bbNfpq3evV9izrldfhg/D3roVMF8M+ZWMRF5r8WfkJGksT+TEHBhJF+LC87SKFEdltGcv1J+Knc1ytfMpGox3ab4A+ZaPdJo0+WtuGtteGDDDAAAMMMMAAA/MxIJAYfQAQA4jKrQrlILR27PZ22e0M9VsqErz2tq3t0qC+ctz6NmlAn9asyMKKotxl/drHSbdYHFUDkUqYsXw9lpvPwojH6pupEPdfHnd5G8WyvEbwENsuhS/ldl3H6Kxfpbx1r9f6KeuDZtu1Q5x0S0xZr6wfmjNSan1UhEX5+XScw29evhvuXfowvN6qSzIRH2PosFzToRIYDAwksjf42hoR+UeAHoQf1QKJ4ni17a42P1K0UbenPwxfv3U3/PlC4/l15+R1t3kwwAADDDDAAAMMMDBLAwIJsGcJ+1ipaQwk6oHNGRs0x8H81z95bWf7a3Co4prc2T4+1nWnn/UzAwwwwAADDDCw9wYEEi6Cvb8I1i0UelYGWfmA/q2vwh+ePmNhyZBrKF8Hw+yIs2JJPXbwGhpyndnG7zMGGGCAAQYY2DEDAokd6zADiREGErswQyJ3GtdgeOvT8JtdcjuD2R2uuxGuu10yrK7+uGOAAQYYYIABBkYxIJAAaxRYOzWA25lAIhsUFgtc7tI6DPnMjpcPOPNewwADDDDAAAMMMMAAAzUDAgkgaiB2KkjQd/qOAQYYYIABBhhggAEGGNhZAwIJeHcWr/DENHoGGGCAAQYYYIABBhhgYHcNCCQEEgIJBhhggAEGGGCAAQYYYIABBiY3IJCAbnJ0EszdTTD1nb5jgAEGGGCAAQYYYICBbRkQSAgkBBIMMMAAAwwwwAADDDDAAAMMTG5AIAHd5Oi2laYpRzLLAAMMMMAAAwwwwAADDOyuAYGEQEIgwQADDDDAAAMMMMAAAwwwwMDkBgQS0G0R3Y/DH29/HI6OPg5/uXJGUrorv8vrk9Up/7rxi0Hn+/pPvgr3Ln0YXj+Bj4s3HoarRw/Du9cOBh1z9GT30hfh3aOiTlm9rt7+IjzXeX6vhT9cuhu+/slrZ6PenXU8I77UjREGGGCAAQYYYIABBjY2IJCAZ2M87QH0GQwkyv6NdRsSSFz4NNx7627484WTDXrPXCBRtsUi5HXrDSQWYbGlNmgbOVmbKk/7McAAAwwwwAADDDAwHwMCicogDez5wG735cBA4ukPw9dvzX92wNpAYrEI+SyRt74Kf3h6zi6cW/ta0SbahAEGGGCAAQYYYGAaAwIJgcQWZ0hMg3azN4dhgcRvXr574ls1NqvftG03JJBYLIpbN05668outIc6TutPe2tvBhhggAEGGGCAgcyAQGLUQOJ6eP5mCM+/vQhPvv8gXLwZ4tf98FTruAfh2c/S69njg/DsK11IizL7yypef/H9g7B4+37lmEU9Nrnw37j2wZp1GJa3ahRrNXwQ/nipq+6LsGiu6ZDWdjj6Xfht3ia/CH+Ja1DUj5ter5R76Vfh7+X+2RoRK467GBBIxNkRq2/V+Chcrq7DcPRteLNxrulWjXydhqOH4XLvehoH4c3blTUdKuWmdSfysm58FBaN9R+6ymwe92q2X8tZ0X7DAgm3bvS1n+cr12GPMW2kjRhggAEGGGCAAQbWGRBIjPrHdCU8+OxWeDI/Vgweyp8zpHG7a9fLAWQRYDRCiVduhRdvhpCHDbHeT13LwotqwFE5ZuX5zvIGnHsRCtQH+tlzvYtW5oFDffsSYQwjlvsW4cPR7V+FN8q6xOeyoKFc7yGGCc3taj8vwm9vrAol1gcSxS0Kn4bflHVpvoHEMKI20P8oXO5biyGGCF3hwWIRw4jKvs9d+zZfBLO6/TJkuBcuxnoV29WDkOy56n5lgFGr6/J8BgcSi4Pw57fuhnsvn5GFOXv7ZnlupTfblu8n2oQPBhhggAEGGGCAgbNoQCAx6qAlhgO18GERZy4sw4YiLKiGCtnFEoOLSkiRhw/NsmKYsQwpeo4Zw4xstsZxIOaD/MbAf+X+KwKJrrLagUdXSLEIxXYdsySq/RdnTPz92o87znFdIBFvT1g18F4ZMHS066rtO19rBx5FIFEPH1LYUAsgqu0Qvy/2XQYZ1X4bHkgswr7cxlJtH993eO4wpp20EwMMMMAAAwwwwMBJDAgkRv0juwgHlmFBxFoLB9rBQ+rQegDRU1YruIiBRCXISOVt8lgEAR+H+iyGFRddbyDRNcuhK2goAolmqDAokFh071uc97pAopgJsPqjLpe3a6wLA/JjdoYOse2u3GvNhlgsivLT7RpZGZ3BwapyK56LmRQnDyTWzxxZ4aFSn0382UfbMsAAAwwwwAADDDAwXwMCiVEHTD0hQi2QiAFCub5EdR2JEC6mGRFxn+XaEY3tygBiu4FEfvHHWy2K9SGqt1J0XBi9gcRy/YjWLRvlrRlZed2hQlcgUYYltXUkPg7NMKN4A9tGIJHVr7nuQ2P2QtXTyuCg75aNennDA4llWJLWrigeBRJ+gXVcp1Wnvu+YUaXNXDcMMMAAAwwwwMAUBgQSo/4xPiSQ6J8hUQfQU1ar/iMEEpVjFOs0rAglVgQSnQFCLYzILvphgUQqaxlu9O9btOO2AonKG1MMHK52LGyZH3NlINEVINTDiKyMYYFELKuyHkW2rxkSlb6qGC48eE07MMAAAwwwwAADDDBw2gYEEqMOVLpDhOaaEfVbM/ouiuMFFxfLGRN95cXnXz8MX965E+7c+SS8M7AtutaCKCH3BhLdQUO5X3ns7u3qMyS6b//oCzOKY6wLJAasIVHWsdKmq0KHFa+tCguqbTIokOi8/WN7gYQ1JCr93WXAc2YYMMAAAwwwwAADDDCwkQGBxKhwOgKJeOtFbV2JdDvGuhAhfoxnbd9W/Y83Q+LVD74Md/JA4k745KA58MoG8c2FJIvAYPkJGI19egOJdYFAKmdIINHxiRqVjwDd7JaNRVi7VsKVe6G6vkMWHBTBQntmQx4qrAgkFnmI0LNfpU8HBRLxONWP+cz3yz9G9KS3bPiUjWpA5Pt0nXpkgQEGGGCAAQYYYODkBgQSlcHf9kHFcKCxPkT3J10M3DaFF7Uyl5/Y0fURoivPa+0MiRhAVNZpaA34K2FAuc5E2r76CR2921U/JnRYILFYxIAjHecoC07a+5a3mJTbZR8NWnzVb/dYhMXTH4av37ob/nyh/8IqAoiH+YKU3Ws0dN2KkbavhwPL0CC9Hh8rH9U5KJDIDMdZEmn9iCw4ac7CaNd9edxm0FKaufBpuPfWV+EPT/e3SbntqNeS42tnBhhggAEGGGCAAQbmZkAgMeogqmOGxKjHO8MXaAojWmtGpGChORPjdM4lvz3hrU/Db0bupyKM6JghEYOF3oBg5HrV3+A2vI1l0jqejpN6O6mD9mCAAQYYYIABBhhgYBMDAolRB08CiRJlfivHx6E1K2GRbr84G4FEmiVx7+WDje6BKs93pav2J2yU+8XbL85CIFHcwmJ2RNk3K/vULyDtxAADDDDAAAMMMMDAcQ0IJEYdZAgkSpB9MyRiUNG7JsWo/dPzhpHfpnA3fP2T10YLJbpnSKSPFO2YOTF1O8Q2WHX7Stm3U9fN8UZzqU973hOYY44BBhhggAEGGBjFgEBiVFgCidoAJ4USjfUcumZN1PYbtY+6ByD57IBLH4bXRzx25xoSjY/uPJ12KG7VGDOQOZ3z6u5rddEuDDDAAAMMMMAAAwycjgGBxIgDTqhPB7V21+4MMMAAAwwwwAADDDDAwNk3IJAQSIwy9cbFf/Yvfn2kjxhggAEGGGCAAQYYYOA0DQgkBBICCQYYYIABBhhggAEGGGCAAQYmN7DzgcRppjmOLU1kgAEGGGCAAQYYYIABBhhgYDMDAgkp2OQpmIt1s4tVu2k3BhhggAEGGGCAAQYYmJMBgYRAQiDBAAMMMMAAAwwwwAADDDDAwOQGBBLQTY5uTomec5FQM8AAAwwwwAADDDDAAAObGZhJIHEu3P/mkRCyr8/P9Q+wL9wKjx0+COcvbNZYkGk3BhhggAEGGGCAAQYYYIABBrZjYCaBRGqMGEysCCUevxzCucP74XEzI/qDG22jbRhggAEGGGCAAQYYYIABBkY2MLNAYhEODr8Twt8eDQe9DXcQzr8Xwrn3boUnerdJAYdHyR8DDDDAAAMMMMAAAwwwwAADYxiYZyDxzXfD9VVhQ37rRgiPvXkg8VrVTl7jgwEGGGCAAQYYYIABBhhgYCQD+xlILBbBrRsSvjESPmVyxQADDDDAAAMMMMAAAwwMM7C3gcTipfvh3GEI518a1lBAaScGGGCAAQYYYIABBhhggAEGtmdgdoHE4tffDWHdLRv5dJPr4fyh2zZcTNu7mLSltmSAAQYYYIABBhhggAEGhhuYXyDxxqPhwTePhAeH59fc5xMXt7x8fc12wxsTPG3FAAMMMMAAAwwwwAADDDDAwDAD8wsk4mIb1z9/JISVwYRAwkUy7CLRTtqJAQYYYIABBhhggAEGGNi+gfkFEnGGxP1fr2ssgYQLap0RrzPCAAMMMMAAAwwwwAADDIxlYHaBxMHhd6whMdJHsoyFULne4BhggAEGGGCAAQYYYICB/TOwv4GET9mwdobghgEGGGCAAQYYYIABBhhg4NQM7G0g8fjlEM69dys8Ad+p4ZOA7l8Cqs/1OQMMMMAAAwwwwAADDCQD+xlIXLgVHjsM4fxLICQIHllggAEGGGCAAQYYYIABBhiY0sAeBhJxMUuzI8yMMDuGAQYYYIABBhhggAEGGGDg1AzMLJA4F+5/80gIn5/rbdD8Vo3D++Fx6HrbaMpEzLEksAwwwAADDDDAAAMMMMDAfhqYSSARg4gsjPjbo+GgL2zIb9V4EM5f2M/OdpHrdwYYYIABBhhggAEGGGCAgbNiYCaBBFBnBZR6sMgAAwwwwAADDDDAAAMMMDDEgECibzaF593SwQADDDDAAAMMMMAAAwwwwMBoBgQScI2Ga0giZhvJKQMMMMAAAwwwwAADDDCwnwYEEgIJgQQDDDDAAAMMMMAAAwwwwAADkxsQSEA3OTrp536mn/pdvzPAAAMMMMAAAwwwwEDVgEBCICGQYIABBhhggAEGGGCAAQYYYGByAwIJ6CZHV03EfC8hZYABBhhggAEGGGCAAQb204BAQiAhkGCAAQYYYIABBhhggAEGGGBgcgMCCegmRyf93M/0U7/rdwYYYIABBhhggAEGGKgaEEgIJAQSDDDAAAMMMMAAAwwwwAADDExuQCAB3eToqomY7yWkDDDAAAMMMMAAAwwwwMB+GhBICCQEEgwwwAADDDDAAAMMMMAAAwxMbkAgAd3k6KSf+5l+6nf9zgADDDDAAAMMMMAAA1UDAgmBhECCAQYYYIABBhhggAEGGGCAgckNCCSgmxxdNRHzvYSUAQYYYIABBhhggAEGGNhPAwIJgYRAggEGGGCAAQYYYIABBhhggIHJDQgkoJscnfRzP9NP/a7fGWCAAQYYYIABBhhgoGpAICGQEEgwwAADDDDAAAMMMMAAAwwwMLkBgQR0k6OrJmK+l5AywAADDDDAAAMMMMAAA/tpQCAhkBBIMMAAAwwwwAADDDDAAAMMMDC5AYEEdJOjk37uZ/qp3/U7AwwwwAADDDDAAAMMVA0IJAQSAgkGGGCAAQYYYIABBhhggAEGJjcgkIBucnTVRMz3ElIGGGCAAQYYYIABBhhgYD8NCCQEEgIJBhhggAEGGGCAAQYYYIABBiY3IJCAbnJ00s/9TD/1u35ngAEGGGCAAQYYYICBqgGBhEBCIMEAAwwwwAADDDDAAAMMMMDA5AYEEtBNjq6aiPleQsoAAwwwwAADDDDAAAMM7KcBgYRAQiDBAAMMMMAAAwwwwAADDDDAwOQGBBLQTY5O+rmf6ad+1+8MMMAAAwwwwAADDDBQNSCQEEgIJBhggAEGGGCAAQYYYIABBhiY3IBAYrboDsKzn4Vw8WYIz7+9uyncU9eKc8jOI/+6dn3yi6Sa4Pl+dy3pO33HAAMMMMAAAwwwwMDZMiCQ2LVA4pVb4cVBIcPuBxJFGPEgPPvK2bpozuqb2HPXvg1Xj+6Fi7tmWn2FbAwwwAADDDDAAAMM7KUBgcSuwR8cSEw4iI91KmcxxNkML75/cIKL6np4PivHjIjBbSiQmND8rr1vqO/g6+isBo7q5fpmgAEGGGCAgTkaEEjs2h/qZziQqN4a8uT7D/JbLDYPJYpAYvP99+8NSyCxf30+x19KzoljBhhggAEGGGBgfwzMK5B4+36xzsCK9QbSQLn8b37zP/D5gL+4TaC2fsFnt8KTlfAify3btzE7oDooLy+kAfXKt12xXa0u6fwqj8vjLm/VKM5x1S0PcRZCWU5z2+L1rOx6u90PT1XaIrXBsg7ZBRTLbrRb+Xx5zEZZZbnbDSSKwfrDcPWo+Hr3WmX2xqUvwrtHD8PlK/UL/+KNh+Hq7S/Cc6lOV+6Fq0ffhjcvLUL+WiyrfpvEQXjz9sNw9cZHYRHL7TxmLHNlvRbxOB1lLev6Ubhc1mN5fumY9brVz6/0mc5vhMfcTW6gbq0zaFrhv1rXusUQmmUVr2euGtdCy+L07VE9D99rfwYYYIABBhhggIF9NzCbQCIN2GuD4rfvVxZ0TIOT6gC4Y9BcCRiWA524XSW8SMe7eHNZXjEQqg/q28+1y8oQpvL66x8v1uPMkMgHePX6lODj4G95jsvQYVmHyiCyPPfYjtXBXWedOs4zblc9ZnHeqQ1THzUWsizDi55zWTmQjgFBDBLS+T937V4eLOQ/HyuQiIP+LCTIjxvLL4OLdLxsuyK8yLfLw4x66FGEGpU1H2I9qmHJMvhYbleEGJWy4/mfxRkS1fCgdBXtlT8vkr1q/3b4Ka+T5GVRBoJVU9VjLp/vLi958OiPAQYYYIABBhhggAEGpjcwj0Cic0DcaMy+wXlzcBTLaq5dkA+cK4PwYiBdHUAtB0fLgVYxCFoOimKdmnUZUv806D7Ots3jpDLSf47LkCG1VTNsiIO4ynlnF2kx4GsPCpfn3R2wNNuwuOB72ijOsGi1XXkOqc5rHiuzGnrfYI4ZSFQDg6zMehCQAollgFAct5jJUO7bc8x6WWkmRiN8GLhv7/mubMN3wid37oQ7fV9/eudY9+KncKBqY9Hy12Og6bfHftNj9zGjyYblzdpojbmV7Wtfbc4AAwwwwAADDDDAQDIwi0CiOSBJJ1d9rP8nvgqgMRjqGfQ0B9PNn/NjNfdtDqjSQKWx3ZD6l+fS2Ld8PpVdfVxz/K7Bfr0ujbaJZde3WQYx5W0w+YyGSmCR79ddVntwmvqmb/v0+rDH1m0X1fZJ3/cM8Fv7dsxyaLd/c8ZEdz2bwUNZTiNAadUhq3NPfXvLTOd5Co8tK7EOtetnjdMUZvSVtWjsX2zXCAtP4dzLPnXsY4VY2q37PUO7aBcGGGCAAQYYmKOBWQQStcFNzx///dsUA99yRkTPgL+5f/PnHEdj32Jg1Hf7QShvJ+ksq+c8utdr6Lk4GwO1EnCjnuXz5eyHNJjrDgVaA8NGeem8a4FH3KYeWlTapjVbo/vY1bqu/z6GA+XtFT3t1DPAb4UBWwwk8rJ7135Yzoho1SFz0VPfXQ0kkpc+GymQyK+T8vadip38uWQ2zeBZ/rzeSY+LvmvQ8wIGBhhggAEGGGCAAQa2YmAWgURrgNyBo3/Q3xj4NgbXaTDT3L/5c75dc9++QKBRvyH1T/WYJpBIsxsabRPr3apv87zTlPzK+hppMctaSNFoh/Ic8+e7j13fZv1AsnNA3zxuzwC/te8WA4mh4UGrDlnde+o7tMzVbTjGLRvJ07K/atfPlq+TwqdAYnU/L/vCdtqCAQYYYIABBhhg4LQMzCKQKKZsL2ccdDZm36Cn+XxrcF3grA2g0uJ6zfvRm/s2f24OhNPPeR3W1D9te5y1FZrnVpYR14pozUpoPt8dCqwPJBYh9ckygGiWve6i7z52q29fPwxf5usdfBLeKc9vWXYxSF/OOGjtn+3TOcCPn15RLla5CIstBhJFWWvqlT5lo1qH3vqm+q0vs7MNOtpuG9u1rOTHafTtsa6T9UGDQGLpfxt9qAztyQADDDDAAAMMMDCWgXkEEuV/5BuDla5P2aiFCMXAqLxdIxss9QyONgokUnBxs1Gv1uAvDtab29Xqny6CtG37v84tJL2BxDIwSNPhs7UNuM0AAAYgSURBVH3bA7nGwDHWuzXI7GyzjnrG4GUZUqRz6nrsPnbzHF/94MtyAcZPDrrKSR+LWV9ksvYpG4u4TXlrR9qn62M/65+U0axPtiZG/rGfzRCho8/z7Y7q9WqWd5wZEilYyT9ytHW8rrYZ/7mWlfKaqPvNr6+m/9Y5dJhqbdPlePzzbPabn7U5AwwwwAADDDDAAAPrDcwkkChOtBjUVO4t75sBULkPvTU47hxct1fobwYUObaefYtBWaVe2fFrwcjQ+qcOjUFK5TzKYCHWofN+/OYxY0Cw3LY+SOy7zaI1yOw57/YsiWXgszxm1i5dgc2wQGKxZoZE8SaQPvkifmTn0cNQftpFGtDGWRJX47oOl6/ET8+oBgvbnCERj5sHDs21JMpgJH7KRrUO2X6dMzqijVjHdB5X1wQeY79JDrWf1WPotq3rPLsOKtd6UU6XqXT9eBy735XPGAMMMMAAAwwwwMAQA7MKJIacsG1cGAxMZ6AVXqUAyONWFgFieTrL2lpbM8AAAwwwwAAD2zcgkDAwMjBiYDQDAontv2n7RahNGWCAAQYYYIABBuZiQCBhMDraYHQuF4nz2PwNXyCxedtxp+0YYIABBhhggAEG5m5AICGQEEgwMJoBgYRfonP/Jer8GGeAAQYYYIABBjY3IJAwGB1tMOrC3PzC1HbajgEGGGCAAQYYYIABBuZuQCAhkBBIMMAAAwwwwAADDDDAAAMMMDC5AYEEdJOjm3vK5/wk2QwwwAADDDDAAAMMMMDAegODAgkNub4htZE2YoABBhhggAEGGGCAAQYYYGC4AYGEGRJmSDDAAAMMMMAAAwwwwAADDDAwuQGBBHSTo5MYDk8MtZW2YoABBhhggAEGGGCAgbkaEEgIJAQSDDDAAAMMMMAAAwwwwAADDExu4FiBxOs/+Srce+tuuPfWV+EPT0up5ppSOS+2GWCAAQYYYIABBhhggAEGxjZwrEAiVaYIJoQSqT08ulAZYIABBhhggAEGGGCAAQYYOJ6BjQKJxeIg/Pmtu+HPF453MJ2jvRhggAEGGGCAAQYYYIABBhhgIDNwokDi65+8Nvk9JuCCywADDDDAAAMMMMAAAwwwwMDuGxBIWLhEqMQAAwwwwAADDDDAAAMMMMDA5AYEEtBNjk6SuftJpj7UhwwwwAADDDDAAAMMMHBSAxsGEq+FP1y6G9yyAeBJAdqfIQYYYIABBhhggAEGGGBgPw1sGEgswm9ezj7+89PwGzMMzDBggAEGGGCAAQYYYIABBhhggIFjGtg4kMgTrKc/DF+/JZiQ5u1nmqff9TsDDDDAAAMMMMAAAwwwsLmBjQOJfIbEpQ/D68dMQHTW5p2l7bQdAwwwwAADDDDAAAMMMMDAXAxsGEgchD+/ZQ2JuSBwHt7QGGCAAQYYYIABBhhggAEGpjYgkDDDw31ODDDAAAMMMMAAAwwwwAADDExuQCAB3eTopk7dHE/SywADDDDAAAMMMMAAAwycPQMCCYGEQIIBBhhggAEGGGCAAQYYYICByQ0IJKCbHJ1k8uwlk/pEnzDAAAMMMMAAAwwwwMDUBjYKJF7/yVfh3ltfhT88rcOm7jDHY44BBhhggAEGGGCAAQYYYGAOBo4VSBRBxN1w76274c8XAJgDAOfAMQMMMMAAAwwwwAADDDDAwGkYOFYgcRoVdEwXBgMMMMAAAwwwwAADDDDAAAPzMyCQsIaENSQYYIABBhhggAEGGGCAAQYYmNyAQAK6ydFJNueXbOpTfcoAAwwwwAADDDDAAAPHNSCQEEgIJBhggAEGGGCAAQYYYIABBhiY3IBAArrJ0R03NbO9pJUBBhhggAEGGGCAAQYYmJ8BgYRAQiDBAAMMMMAAAwwwwAADDDDAwOQGBBLQTY5Osjm/ZFOf6lMGGGCAAQYYYIABBhg4rgGBhEBCIMEAAwwwwAADDDDAAAMMMMDA5AYEEtBNju64qZntJa0MMMAAAwwwwAADDDDAwPwMCCQEEgIJBhhggAEGGGCAAQYYYIABBiY3IJCAbnJ0ks35JZv6VJ8ywAADDDDAAAMMMMDAcQ0IJAQSAgkGGGCAAQYYYIABBhhggAEGJjfw/wPe4CgT7ea0hAAAAABJRU5ErkJggg==;" vertex="1" parent="1">
          <mxGeometry x="790" y="274" width="460" height="305.51" as="geometry" />
        </mxCell>
        <mxCell id="2QA-D09SwO_3PhxoTyu0-12" value="" style="endArrow=none;dashed=1;html=1;rounded=0;entryX=0;entryY=0.25;entryDx=0;entryDy=0;exitX=1;exitY=0.5;exitDx=0;exitDy=0;" edge="1" parent="1" source="2QA-D09SwO_3PhxoTyu0-4" target="2QA-D09SwO_3PhxoTyu0-11">
          <mxGeometry width="50" height="50" relative="1" as="geometry">
            <mxPoint x="580" y="440" as="sourcePoint" />
            <mxPoint x="630" y="390" as="targetPoint" />
          </mxGeometry>
        </mxCell>
        <mxCell id="2QA-D09SwO_3PhxoTyu0-13" value="Activa" style="text;html=1;align=center;verticalAlign=middle;resizable=0;points=[];autosize=1;strokeColor=none;fillColor=none;" vertex="1" parent="1">
          <mxGeometry x="710" y="330" width="60" height="30" as="geometry" />
        </mxCell>
        <mxCell id="2QA-D09SwO_3PhxoTyu0-14" value="Lo que pasa es que se envia un evento al ws &quot;callUser&quot;, con un objeto como parametro, luego al final se recibe un evento de &quot;callAccepted&quot;" style="text;html=1;strokeColor=none;fillColor=none;align=center;verticalAlign=middle;whiteSpace=wrap;rounded=0;" vertex="1" parent="1">
          <mxGeometry x="835" y="590" width="370" height="40" as="geometry" />
        </mxCell>
        <mxCell id="2QA-D09SwO_3PhxoTyu0-15" value="" style="endArrow=none;dashed=1;html=1;dashPattern=1 3;strokeWidth=2;rounded=0;" edge="1" parent="1">
          <mxGeometry width="50" height="50" relative="1" as="geometry">
            <mxPoint x="410" y="1000" as="sourcePoint" />
            <mxPoint x="410" y="130" as="targetPoint" />
          </mxGeometry>
        </mxCell>
        <mxCell id="2QA-D09SwO_3PhxoTyu0-16" value="Ahora el usuario al darle a la opciÃ³n de Answer&amp;nbsp;" style="rounded=1;whiteSpace=wrap;html=1;" vertex="1" parent="1">
          <mxGeometry x="125" y="550" width="120" height="60" as="geometry" />
        </mxCell>
        <mxCell id="2QA-D09SwO_3PhxoTyu0-17" value="" style="endArrow=classic;html=1;rounded=0;exitX=0.5;exitY=1;exitDx=0;exitDy=0;" edge="1" parent="1" source="2QA-D09SwO_3PhxoTyu0-7" target="2QA-D09SwO_3PhxoTyu0-16">
          <mxGeometry width="50" height="50" relative="1" as="geometry">
            <mxPoint x="310" y="579.51" as="sourcePoint" />
            <mxPoint x="360" y="529.51" as="targetPoint" />
          </mxGeometry>
        </mxCell>
        <mxCell id="2QA-D09SwO_3PhxoTyu0-18" value="" style="shape=image;verticalLabelPosition=bottom;labelBackgroundColor=default;verticalAlign=top;aspect=fixed;imageAspect=0;image=data:image/png,iVBORw0KGgoAAAANSUhEUgAAAo8AAAGYCAYAAAAjqwjFAAAgAElEQVR4Ae2dTYscR7qotZ6VwYsGy86V7YXHK4ONuFrYGDELH7iyF0dgZpBli2vErMxZyUaHATUeCyywZ3FXp0Xj22OsK2Zx5I/B4q7EuMHGyHjRSKDuH2H9Ab2X+MqMiIzIjOrKqsqqfBZNdVVlRkRGPJHx5BuRWSeqqhL+qAMYgAEYgAEYgAEYgIESBk6UbMQ2wAQDMAADMAADMAADMKAYQB6JvBJ5hgEYgAEYgAEYgIFiBpBHYCmGhStOrjhhAAZgAAZgAAaQR+QReYQBGIABGIABGICBYgaQR2AphoWrTa42YQAGYAAGYAAGkEfkcUny+Lp8ee+WHB25vxvy5cVEB7z2qbfNLTm6896SyueXZVv++cF9+ecp/7NKqlPfyMMPvpG/ToaZd+TvF+/Lww/uy8OLX8iFyRx31O4c9wr6IG2AoMHAmBmYmDxuy6s79+WN99/hZLjKAVELYkYe63JZ2Vy6PFphSspS13ebd6L7678jjWM+eVO2zetztCltui4MII+1rABtDtp3926E0cCjT+WTeeptxPKohakzumiikg//fXvDL0Ay0dd52p19N5wZzqG5cyifw8amMYA8MqB1DGhuqjmOEr4n388TERyrPP7+C/klNV0dM6KnrxPT2vF2A7x/8aP7cu76F/LcAGnNdPIqrYtll4v8OvorA/RMjMMSLMHAsRlYkDy+Iy9fvy/ndtzfz/JyvH6sMlPIXdvogfOjbalOfSFv1Gndl1ffbJ8k9bbeNv7U9HPv/+yVxZWpefW3LT/5OLFya/huya97rwcN8ckdu2bv4ofya73W75Z8f61d/lZ0z5Mznc69D+XdJOjvyfdHcd7ms2Z9YRwp9PaJ1hj6ZTNlisWxXXZVZ7qM3jF2rlUcqTyWT9Mucfq6Zv8beTHZ/un2KOc4sz/yGPTluetzmW1HXrQdDMDAghkYXh7dYBdES96Rlz/yoidvfqNlzpc2J3i+GDZC2AycZrtQRs12zTbqRP/iR+E25uQ/3JrHT+5EUmUlzBfIRqgaeUsJWe4zJ3Lm+yaNcCAzIui2rayotsvh7+/LZfN5WA4rx1lpbaRD7Vfnr4B1suwJcFDmUcqjmab95Q9l62Ev/OFnefjBz/L33zf1EBzjoB3XXWilmF5Q/sgjg8+gDC+IU8oIpzCwEgYGl0ctcoE4xicNG5VUEcWg0e3n3r5GCqMB08ppI5m59OJ81fvh5DEsu0q7LVtGHiPJtGLly1Z3ZLGSSsuWkzybjxMznV6TRzotL9Ko69zKYyyGftns/76Eto85VcfmM3PsrszRdkuRx/Oyu38gBweZv/1dOe/zp6eiZ5DBeeTKXjw1UfcmCq4+a9j2662J5qe/97cd4P95js+vV/6PznMDtA11Sp3CAAysmIGB5bFAzqz8+VFHJyUmqthEEJMi2pJHFWW0g29LSOMTdUH55miQWNzi9/o4fUGzeZmI3y05imXOlSUQRBc1tGIWiFgsie74I+GsbBpOQF0+/uuc8tgZLQ3K7MoYv8Zljr8f9r2JJM7yGJ7ZIpWO8XlfHeup/jNv2v7+s9fHsO3hl4X/qVsYgAEYGBcDw8pjQuxaDd6xTTwlXSqPKg837e2iOenBdUB5tHLVrCu0ax89ASyVR11HWqia9ZPhmkEjezpaqba786F8ec9GG/V+ViRzZXJrEWtZHFoebXoun/p1lZHH2Tra7LK0Wnk8t9NcZLX6mH8RMOP/ph7uS+n0/ZB5k9ZszFJf1BcMwMCqGBhWHkumhXvlsRkUZ5HHpgKb6b22QA4kj07SahkzAMeyGL/XZbT7+tPWTdm9dJSA1ekbOVNTyG59oUrbvW8ils12cZrh+wJ5dNFJT4bDNFyntWlF260+8jjbtPVS5XENpq1nrw/HA6/pfkK9UC8wAAObw8DA8thet9iGJbdGsf358eRRNU47LVOO3OezNagRo2adoTvGWBbj93q7AnlU24X7mincX/feCyOO9z6UT9QzGGvJLJ3qLZFHdwd1+zjd8epXGzGNZXj18jhbm5pfj1nSmscZo4Fure65nWj978zpzFAnrHlkTdUi+SJt+IKBtWZgYHmspHJRlWD9Yfpua3/hfzxlrcSkTB635VXvJhstNDa62Y48uvWRcw7CVpiam0mstKlooReBCwXQDtwteVT7xtO7bbnTaQXp223ix/S0ypYShnb6gRDWndrlEQuk95zHRBS2LmvuYeK6jHGacTlLRTje77jvZ5uGNpG5GWSzrtMZy2dZXtQ0dbrdK6mQx7U+sWfb9bgcsh88wAAMeAwML48q8XrAc3eRJmTNSWb9bMZmutqd+MrkMZVf7o5VNXDb6GOd7/F+rtBE1po1iiryFsti/F4fV0seVZmcpDXpNWJqZMPl53/uJC2O+tWPyqnXHqp0fVkrlUeTt8unWd8Zya4VVvd9PZ3uy6OTzKBM9nhj4U5tc5R+PqZjZYjXmZ/zuIRfmUn2Aa8DD3HcyTSQRwaKZXBGHnAGA2vJwGLkERjWEoakREypLa0w9d4sMutjfdaxDpFH+vA6ckuZ4RYGlsIA8ghoSwFtXcTU/LZ113S0md7mt61NVHpd2pVy0l4wAAMwMBwDyCPyiDwGDNifHvwg9czHJf4sYVCm4Tp8+clzSse6ivolz3IWqSvqCgbGxgDyuPJBmk4xtk6h7m7+5wf35Z/x77Hr6eqUVG5qGzqRvi8PL34hF+grXGjBAAzAAAxUlSCPdAQ6AgzAAAzAAAzAAAwUM4A8AksxLOOLEG5qxI/jgjUYgAEYgIHxMoA8Io/IIwzAAAzAAAzAAAwUMzCYPL722mvy/PPPF2fMFcV4ryhoG9oGBmAABmAABmAgxwDyyJUGwg8DMAADMAADMAADxQwgj8BSDEvuCoTPuTqFARiAARiAgekwgDwij8gjDMAADMAADMAADBQzgDyuCyzxb0N7vwcdXO1FvzN9dOe9YhiCdNalXhZVTl2P/u+Bt68on7n0SLY+25dnFlWGodM9tS9P7T6Sk/HzK4fOh/ToczAAAzCw0Qwgj3MA/smdW3KUk7g50u2TuLJ8X5cv792STZbHd/duyNHRp/LJIuq6Tx7fOpStXZGTb7WlUj1k/NWd+/LG+++M7uTx9BWRrd1DeXoRdUaao2vvvnMJ36f6L5/BBQz0MYA8zjHglUlcJXq7o1ty5P7mFM6yfEvk8T353pbp173X127gW5k86gieyFOXtjN1Nl55VGJ78jNZr4jpHH207wTI9wySMAADMDA7A8jjHANTv8Q5OYuiYxc/lO/nkLX+fBUIBfKoo2ufypcqgjen0K6i861KHnX0rnO6eszyWEnVK7+zn0hW0f7kSTvBAAzAwGoYmJg8OplzUcDMmraudYPx2kMXTXSvnoSZiGMkjhlZNdu6cnVPNw8ljzodtSZSH1OmLlR5u+qjPh4rq64ejtLpGeFrjjOOeIZlarb7/prrIHEbNtuYyG5c32XlMnUQp5U4Biteqenq597/Wc7t3M/+NdPY78jL1+/LuY+2pTr1hbzh7dNsoyTPfPfqm+7YzeuLH92Xc9e/kOfqulefG2Ft8v9GXgy+D9Ng+jqsDwYg6gMGYAAGyhmYkDxa6QhuIHlPvvdkT4Fj5MaXhtR+poK7JS6/XwyoyrORo8rKXF4gu/N1jd8XeTTlM/mabWORU+XUeR3dCst37dPwvRPqoC5fly/vfCjvegJj0vLkzu7n5+vyO/Lks90m5hjN5156Xl6mjtttkEzLynHQBvoznwOTp75JpnfNYF/k0cqjlsaf5WV3A8ub32jxrGWxVB7tdr54asHc6RDIzjWbjiFe477Ke5iAARiAgUqmI49WVAJByMiGLzMakoxIdEpcSkha+eU7YUu0vH07862365FHXb5GvJJpFtWZFcxAHBPHlUkrFkBz3LG0GQmM2yXeN+7Q6e/jeonf27In29yuF7xyM7PW0R13qTzGchftVyiPXZFIXyjD+rkpJ3e71m26Y+E1rDfqg/qAARiAgenIY2WjUHEUrZYtNz0bi0sTCYzFMylcLr055TEtPgbYznxd/j1rHnUafhQ2IUtdZWhOHmmxa743Zc6mFeWbPra04GXT1HWQ3keVK8gjI7Vmqj5moVS4Igms28SdcGzksTX17L63r0XymMvLmxpv5a/SLxXhqEzJtNgm5p33MAEDMLDJDExIHhXIVigy6/KMjMTr3pr3i5PHRmzrO7J1GZvIoA9hID/ZwTwvT5UV6TCSZ8vgCWVRPjn5isql06rrvalTc7yNpKXzTB9Ltzzm6tTm7SKlufJHUmvqf4TyaAWzWesYrblU6yqjtjDvkcd0vTDgUS8wAAMw0MfAxOTRA8JKg7+2Lh1t8vaJBuG06NjtXfqejKUbw0qOkxmbR5cYdeZblzEtXLoMNioaiqoTukZYu8rQHIspfyii7TorSyuKCvYcS3eaHcdfp5uPKqdZGKE8HvuZkshjw3CbV76jTmAABmAgz8B05VEJRBx1it/7kpH4v0he+h5ibUUujmp2pT2vPGb3j8sSv0/UQR3NjeS31el0Wk2EsfW9TTtZtly79KSZTKt1DCn5teLp3bRjylsqXH1TxvNMW5tp6uZu6768cp2/VIRz+/N5jmE+hw0YgIFNZ2A68njtU4mjY0bQQqHRwtGShkxHsHIVp1tD46KPsUD6z3l023gRSlMGFQlsooB1mvGavZYMubLmIm8pWXL72ChoXZaMRMV3W9t6CH/NJr7b2qWVPiZ3fG3hs/ul5DRRdy4d/dr3vS+sXl2bMtyQXxMclN1tXYm529m7kzpop0J5dI/fqaeerTiqu7T99ZL2Lu38zTGufb1X7rbOTOd7dRS0GZ8HfYu6gR8YmDQD05HH+jE8bno2L2dGKv3t8j9D2Nq2JTlOmrz04m2cfNk1gUpG48hjKx9v/aAvr414evnZbXV0syRa54mUGjBaadZy6Q2oTtTqcoVS7gaeVlpqey+9vu9dOvVrVHdt4bZCXJfL1EsY6Q3bSNenPp7EMXQ857Eukz6pWkFMPsOxVB6bZz26NY3qMT76eZK+PKr8kmsfc/JaSf+Dzr22ZZCY9CARcg0X1AcMwMCUHtXDALgWA6CWx1iuR9Z2a/+A7WIBZpBgkIABGIABGGgzMKnIIwC0ARhbnayDPLqf99vqfd7jGOvbrtvs/HnFMZabMo2tr1IemISB6TKAPI4sqjX1zrgW8qiYsWsGn7qUexTOOE8qax81pb+uxQzC1M9jHP84z3+0y3DtgjwyGI1qMFobeawq0TfPrFMET09XP5KT7ucQYX9U7DOwDTewUZfUJQwslgHkkQGUARQGYAAGYAAGYAAGihlAHoGlGBau5BZ7JUf9Ur8wAAMwAAPrwADyiDwijzAAAzAAAzAAAzBQzADyCCzFsKzD1RBl5KodBmAABmAABhbLAPKIPCKPMAADMAADMAADMFDMAPIILMWwcCW32Cs56pf6hQEYgAEYWAcGkEfkEXmEARiAARiAARiAgWIGkEdgKYZlHa6GKOPQV+3mF2m6H4a+JYcPToiov++24IlzCgzAAAxsOAPI40ga+Ln3f5ZzO9/IiyMpDxI2tIStZ3r9v0hzUvZ/RBrpL+vJN+1Gu8HA8RhAHkcia8jj8QBey47/p/+UMz/9t/zP+O///q9RXa3rX9DZ7flFmneflEcPfif7706o/UZyzlhL9qm7UfVxGOK8dVwGkMeRnMyQxwl1YiuP/+M/vWOuhfJzeWEUTN6Uk7si3dPVlVQfPyGCPCIEo2DW60+UByZhYKEMTE8e3/xGzu3cb/4+2m5VsBG5jm1OfSFv7PwsL5+q5MWPvO2ufyHPxcDqbb1tgqnpbXnVL0vr/9mnsV/YEzm7d1Oqt/flzF2Rs/bv9OX2ifXZzx/V36vtznzerouq2paXvm3SOXv3kbz0tp+W/T6RZzo9f9/F/q/bUbdJWM9vvP9Oq83VcYZt4dW9Zsa0d+oqTTOQavuYBfc+JY/qu//8XEcjz/zvM0H5nv3f/yeIUsbfmzL9L/kfQSQzltAz8tL/+2/5nyq6WYuqiX6m0jNRx0N52pU594o8Bm2V4oPPFtvPqV/qFwaWz8Ck5NGJ3qtvehX95jfSvH9HXr6uRM8TBycVvhx4QtiIiJUPX0btds02lVTqM38bOygPFXnU8qiFsZE8I4nNe9XRzHaHTZTLymYofDfltEpLiaEtZzstXy69PC4fajFNSatLa9GvzUWAJ3724qFpc9smO/fFbyfDiuXAtmOwjydTettEm2aPLyeP9nNf5l74v0rwPBFMbONksHO/ysqjFsz/Iy/9yfYBK6xBFLQyN8lsXWnaPXssyGPdN7J15LHCNt65l3qBHRhYWwamI489AqBP6rkIUywcNq1zkTC0IlC59BIdZlh59CRO52UksBZDK4qx2BkxbIQyfm8GPi/SqNN28tjsZ7aL8kwcc3sgvSq3Dw7kIPf39dWZOpqTx1D6jOS3RNG/OLDHpSKRZjuzj0snbCtzweGn1z6uaMDMyWMscpntTCSyEUotmP/vP+XZoI5NJLIRSiePzX6mnPF2Sqb35aldkZNvReUO0rffIY8zMdnLRqqO+Yw6hgEYGBkDk5HHcMBPD4pBtCloqEg4MiLakkcnmXaKu2vgKClf1/7uOx1R/HY/EolQ+NJSWEmlo4VOPMN9XPrqNczDbtfKM13HfjqL/j9dp1Fb2shyW/5sFFpfIISCaDi5byPWcXoFx52SQvuZnla27MWSWNeXlkwXPUzIn97fm6b237ckM1Hetw5lq+9GGVvGm9+dEPnxSdm27+sy8p7BDgZgAAY2loHJyGNL7BJQ57cxglBHGkvlUedh963XM/pT4s3AnRad5vvSQTkUO7d/KIJmytpfx+j/7+TRTll76ybd+kn9WsvimstjLfj+ulTvfxtd1mzo/1V7fiMvv/9zMipZ1E5OFIM1iv8t4dRxJWbKOnFXtj/1nEmrvpO7voPbyuRA8qil8cEJOfzYMcZrUdsnzjvsBzswAAPrxsBk5LFEzvrksY5OzSSPXqew09/hmkrzfUn5SuAqkcds5DEY2ELhzOc9pDwuYto6lvU4Uhi/99rLq4+aDdX2SiJVW6qpbs2Ct6bS2ydbZ6nIY2K/bOQx2DYXeYyPY1h5dMdG5DGuZ947NniFBRjYXAYmI496sN9xU42ZBs2tUYw/P648qkE/TsuJQO5z933ha1Ie4zWOwfR0pi5a09O57YaUx1wex/s8LeSxLPrT0/l8dFrXv5AXg4jjz/Lym+rO+1hQ8+nok2mhPJq7r930dC7NeHq6Z7uSyCNrHjd2qonBPNc/+Bw2YGAWBqYjj5WVhHj9Yepu6+DmCSMb9ZS1krhCeVTC4W6ycI2iI1gp2bBpBvkUCqNLW7225TEld/azu/FNLlHncY/78e629vMy/6fSj9I5xnG085k9zTJ5dELvbo7J5KPlXk1nN1FG05b3TQRylmMslcf6Dun4JpeojJlH/IR1OEPkkbutkcdZeGZbeIGByTEwIXk0A2494Ls1iHZNWzPQOsls1r3V09WugxTKo0qzlV8gppEE1ILi8p4xouXkMV6nmJG/5NrH1rbptY/NndobII+qXZ28Oy70ayOK9fd++7n2ajEUtavjxr0Wy6NJJ7n2sV7LaPOyadZrHf11kTrfWeSxEp7z2NOGri15ndyg2YwVMEJdTJeBycnjpsPejjxOF+5Nb+vFHp/5hZneZz3yqB7kCYGGARiYHAPI44ZBjzwiy0NJpYk+9jzvkd+2ntygMRRfpMO5CgbWlwHkEXlk8NswBoY8IT99RXqe+bglhw9OiHy3BUdwBAMwAAMTYQB53LCGJvK4vldyQ0rfcGmZnyp86lLqd89dXVuBRCIZODfsfDpcP3J9hVfqdDMYQB452THgwQAMwAAMwAAMwEAxA8gjsBTDwhXjZlwx0o60IwzAAAzAwDwMII/II/IIAzAAAzAAAzAAA8UMTEIeX3vtNXn++eeLK2UeG2dfruZgAAZgAAZgAAY2mQHkkSsNpBoGYAAGYAAGYAAGihlAHoGlGJZNvori2IgSwAAMwAAMwEAZA8gj8og8wgAMwAAMwAAMwEAxA8jjiGA5e+ex7Bw9lut7Xc/UK7sqqK491Gnt3PtBXpn3GC/+INePVNkeytl509qI/Qt+/7znOOPfPH/1zcJ27UmXq2bqEQZgAAZgYNEMII8jGoyXLY86vxK5HFAei/McUbuEndCJ4zfy4hBlPPWFvLFzX5BHTvYhZ9QH9QEDMDBeBpDHIQRgTdNYhcitIs9BT0BW9t54/53i8H5n/sjjMPW4pn2wkw2OCTZgAAZGygDyONKGWcagsgqRW0Weg9bl0LI3dHoT5nnQdqYeGbRhAAZgIMsA8jgCOLRQ6TWFZs3jlWvtUPUre7+JWb/4lVzxtm2tj3RrHd02d74KG7+egjZ5qTWWwZ8/jR1v638X1Vt8DDt+vnE6XXmqdFvbx2stt+XSvcei84i2bdWHLqets47yF4tHiezZbc7t3Bfz97O8fKrdpjrPgvTi9ZHpqOe2vFrnp/IdaFo9aufiemK/sN9RH9QHDMDABjGAPI6pMa0IZeVRS9dvcumiFREriqntq8oTrMwxzhIF7NpWiW1QBid0vkDaMnSlo8RES/LR4yA9I6becbtjK62PWqj9NDIyl6yrWMycFLpXX9S25dXrX8hzXjpG/jIC2SOPZl8//Upe/ChKy6bhS2VqP8RvljZnW3iBARiAgRwDyKM3yOcqaWmfF8hjIGmViailo23Lk8dU/RjhiyOGlXTLY+54bOSwllF7bK27v3v2X1bkMWYqIXd1nXXKo70556Puu++1KEbCqi4eVCTSF8o6z7h8vCciAgMwAAMwMAMDyOMMlbXwwbdXHmMZy8mSulparTyaCGJc3h557IikhtJpj20IGZy1/TtlL3eV2iFyPemZCOJ9OZcVyFzaZeK5cKZnrV+2ZwCDARiAgdEzgDyOCdK1lUcbGYzXMrYigyXymJ5aDiOZ45bH597/2a51dNPa5jUZBeyRRyV3cXpBOnb/Zn1lmGdeOnOiy+cINQzAAAzAQDcDyCPyWPQQ8TDy50NlxTGKAh4/8tghj3Ue45VHJ3rhcxtz0cFKqgJ5bE5i7hmT/nR0R9pjYpuyjD6S0HDm92/+p15gAAbaDCCPYxrUlhx5zAleqqNk5TEz1ZxLO/e5yTM3DR9/Pqs8pgU3dZy9n3XKnpW7WdYfdqbX7rBVFU9Hx+9T+4SfXf36QA4ODuSnG+cRmjH1f8oCjzAAA2vCAPI4poZasjy6nzBM33ATCkdWHm2Z/UfzmCnmzM8ZWtnM5WnkMow+mvT89ZMzyuPcd1t7ddEje2aNonc3tN1eTSsH082Ou8702nduu0hlkNab3+hp8uAzl37r9bzs7ht5PDi4LVdb33vHyncMZDAAAzAAAwkGkMdEpfRGnwbdx0bFWusFQ/lKR+ziiJxdU5hMK3z8jTtGk673rMd6arh5bE7wHEibdiB/tZyZdNR36fIaMenKU5Wr7/v6ZiCvrO540q/Lijyq42umls06RPWYnXhq2bxPr1MMH8vjZNHfNpwSt7LnSWqzrSexPrPbt3XkEXlElNP9hXqhXmAABroZQB79QZX/ucKaBANX5fbBgRzs78r5SRxv90mQQYL6gQEYgIHZGEAeGTwRxokxYNY8/iS7F2Y7WXBypb5gAAZgAAYUA8jjxMSBjj/hjs90NRdKnO9gAAZgYAAGkMcBKhEhm7CQwQ8nYhiAARiAgYkxgDxOrMERXUQXBmAABmAABmBgHgaQR+SRK0YYgAEYgAEYgAEYKGYAeQSWYljmuUphX65yYQAGYAAGYGAzGEAekUfkEQZgAAZgAAZgAAaKGUAegaUYFq4YN+OKkXakHWEABmAABuZhAHlEHpFHGIABGIABGIABGChmAHncVFjcTwYW/4Rf4ipMpxH+znTqSqX5LWvz84RXriXSWnU9t36+L/PTfdlyxj87OOv+I6yT7LFS1hTnfAYXMAADMGAYQB5HMoB2/Rb0sWBdojzW5bv4g1w/Sv+Gdr3NKurbieNH28VXVZ3lffMbObeDPHbW0SramTyH4Zt6pB5hAAZ6GEAeeypoWQPk4PI4xHEVRh7rOhqpPD73/s/Dyh7yyIl1iP5FGnAEAzCwpgwgjyNpOORxcdMhRh6/kReHamvkkRP+UCyRDizBAAysIQPI40ob7Su5cmTWCe4kXx/KWVc+LwoYrjH0tlHbuulql96drzo6Zpx/Kq1wzaORXFXmaFuVd0HksdnfHPf1vcxUsk1rp7P8ZcJZJI9aCO/LuR331yGbvfK4La/W6aj0MlPccZ5DTas7ZnjtYL+MnTqqTl1SlzAAAzBQM4A8jgSG3sijL4W1UG3LpXuPZSd5U4z9rt42GixdesH3X8kV/70nrGoQdeLXJ3y5G2aM9HrSaQUxlZ7LKympJW0Wi1kgc/flnC9qak2k/75yN8dkBLJTHq04Bulty6vXv5DnvHK3p9JT+0Vt5u2P1FA3MAADMAADq2IAeRzJgFwqj7Fo5ffrkseu77zO6Mujlc04/wDcrshj5rts+ZcdeYw5sPL56ptefbhtuuTR3pyT3M/tXxlRfOP9d+qrOF2PXenW+ybKw3dhPVIf1AcMwAAMLJQB5HEkgGUlypXPylsuqhdInN6nQxAzItdKw8nj3kNR0+qd4qjy7Eg3e3wuj4uLk6KiaWtXz+61SwI7Ja+Zss4KZG7/rjxduXhd6Amx1Qeob+obBmAABloMII8jgSIrV658Q8pjqbDZPN16zF5x7ZDHcJ1mvM4zXFc59ABeIo8vfuTWOoavSQHMyZ9rq3ra26UVrnk05XHftV+TedZpL06yh6530qOtYAAGYGAzGUAeRzIoL1UeOyQv6OieZDr56xTIjnR7j2+B7dAnj0YcQ8GruqKAvfLonSxsOshjOSgAACAASURBVMFNM7Psv8B6CdqafFpX1tSPxzF8wAcMwIDHAPLoVcZKBwtP1JLlsFHATnkLjqVj2rqyd1n7N8cE+9pBIyiTTe+oI0rYIY/mLvCOfeP8bVqLv9s6c6PKUPKojitOK34fH3vr/XnZ3T+Qg4MDub3NgJ7sH606o56oJxiAARhYFAPI41gGnT5ZGlQec3dOd99tXTnpTD2mR9VjlzxWTj69u6076t5EKjOPBOrYL9VRuiOPiTurdWTQTCcnp5C7IodvfiPxjTAm/zCymYx2Zo/rqtw+MPJ4sL8r57PbcaJMtT+fwQUMwAAMDMsA8jimgdgKoltjGDymplAe3fRyk0azvrAVtezKT9WL/j6KFjrJrSOQ8bMim/yC8tt6TpYvFQF1+aS+m7HNuuVRdajmJhf9nEf1WJ04OmjfN8+B9NYqJh/D432/k37kjymXv919ORel5U5452/8pCOPyOOwJ0BXv7xSrzAAAzBQzgDyOKOIAFc5XNTVgHV1YVd+UtHHr6+y7oY+CwMwAAMwsFIGkEcAXCmACGaJYLo1j7flKrzCKwzAAAzAwIoZQB5X3ADIU4k8TXcbpqun2/acG2h7GICBsTKAPCKPXMHBAAzAAAzAAAzAQDEDyCOwFMMy1isgysXVOQzAAAzAAAwsjwHkEXlEHmEABmAABmAABmCgmAHkEViKYeGqbnlXddQ1dQ0DMAADMDBWBpBH5BF5hAEYgAEYgAEYgIFiBpBHYCmGZaxXQJSLq3MYgAEYgAEYWB4DyCPyiDzCAAzAAAzAAAzAQDEDyCOwFMPCVd3yruqoa+oaBmAABmBgrAwgj8gj8ggDMAADMAADMAADxQwgj2sFy1dy5eixXN/bLm7gsV61LK9cN+X0XZEzn1Nny6tzogXUNQzAAAxsMgPII/K44SKKPG7yCYxjY4CGARiAgeUzgDwij8jjWjGw/JMEJ2bqHAZgAAZgwGcAeRyJOLyy95vsHD1u/u58VUtd6zt/u2ga22z7UM5W23LpnpfevR/klehY43ST0+EXf5DrQX6/yaWLTSc6e+ex7Nz5Suq0VLm9fa5ca7Z14Ol9jsJ03HezvD77+SM5e1eav72bdZ21vvO3i6axzbaH8kK1LS9966X37b48G9VZnG5yOvztfTkT5PdIXnq7qYcX9kTO7t2UOi1Vbm+f05ebbWepD7al3mAABmAABpbBAPIYycEyKj3Ow4hXKFPqs7Z49a95rCUukEqzn5I8l7cROCWZtqNZ4QsF8iu5EklnLH76/b3f5LpK+9pD2Tn6Ta7fU8di5dXL0+RtyxKUb/bObsQrlDL1WVu8+qeta4kLpNLspyTP1ZmWvrtKMm15rfCFAnlTTkfSafZryqrff/tIzqi0Lx/K2buP5My36nsrr16eLm9eZ2eEOqPOYAAGYGAxDCCPTgRW+GoErB0ZbENfLo+xeAZ5WFGMtzHi6Qllqk4iyQxkUsuju6HHymMkn+qYgn1SeRR8ZgSsHRls11m5PMbiGeRhRTHexoinJ5SpskeSGciklkd3Q4+Vx0g+28e0mJMB+VCvMAADMAADJQwgj6nBfsmf1dHChGiFjVgqj2EUM0yjslPMCUm0kUN/Wjret6rCMgRSauXRSGleHttpzt5Z62hhr2iVymMTGUyVLyuJNnLoT0u39w/LEEiplUcjpchju+5mZ4M0qDMYgAEYWCwDyOOSRTELtBWvet1ja7pXgRCKWyotI6Ld8mgif956yI41jbXYBtu46KKNIjrpXaI86mO34lWve0xO94bilqozI4bd8miihd56yI41jbXYBtu46GIlyONiT2qpNuYz6hwGYAAGhmMAeRyLPHrlqOWuJZDDyGPR9HTlIpSPo7WXYRlWFXmMTwK13LUEchh5zEYevXZTZXLiGE5vh2VAHoc7gcUc8J66hQEYgIHFM4A8RoP/WKALpKwuY+4mlAaUksiju7Gle3o6N+08vzwaOe6Ojh6nHQIp8+pM30Hdksqmzkoij+7Glu7p6dy0M/J4nPZkn4ZR6oK6gAEYGBMDyGMtGasCU0lavP7QCJp/d7SDpk+8iuSxfoxPnG9YB628vEfwuLuyA8ktmra2xzbX3dZK0uKbVIyg+XdHuzozUcn8tHSRPNaP8YnzDeuslZf3CB53V3Yguax5rO9md+3Fa8gU9UF9wAAMjI0B5HHl8qg6RSNUbs2jk7M2MDYi6K1B9Lctk0fTEY0cRmsfg6nyOC8lm2OJPFpZ9NYVOjlL1Vnw/MbgkTxuqjkvl356Rg6jtY9BVNNGH+tyKdkk8ujXIf8zEMIADMDAejOAPI5CHtcbIk4CtB8MwAAMwAAMTIcB5BF5ZNoQBmAABmAABmAABooZQB6BpRgWriqnc1VJW9PWMAADMAADOQaQR+QReYQBGIABGIABGICBYgaQR2AphiV3BcLnXJ3CAAzAAAzAwHQYQB6RR+QRBmAABmAABmAABooZQB6BpRgWriqnc1VJW9PWMAADMAADOQYmIY+5g+dzOgYMwAAMwAAMwAAMzMYA8kjkkcgjDMAADMAADMAADBQzgDwCSzEsXJnNdmVGfVFfMAADMAADm8gA8og8Io8wAAMwAAMwAAMwUMzAhORxSw4fnBBRf99t5Svo1L48tftITp7iamkTr5Y4JriGARiAARiAgfkYmJA8uoqyEtkhkE9fEdnaPZSnuQrJSzZ1Q93AAAzAAAzAwCQZmKA8VrK9+zuRH5+U7Sz023LyM5Gtz/blmew2TkZ55QoOBmAABmAABmBgOgxMVx4fPCE3u8RQT1+LPHVpe5JXFZwEpnMSoK1paxiAARiAgVkYQB47BJLpazrTLJ2JbeEFBmAABmBgCgwgjx3yWL11KFu7IiffojNMoTNwjHAOAzAAAzAAA/0MTFIeq4+fEOmbttZSeVNO7jJ1TUfq70jUEXUEAzAAAzAwFQamKY/vPimPHpyQR7sne9Yz2htnrtzs2Y4OM5UOw3HCOgzAAAzAwNQZmKY82qnqm9+Z5z7mJRJ5nHoH4fgZJGAABmAABmAgZGCa8mgjj4cfh5XRhgN5bNdJX53xPXUGAzAAAzAAA5vMwCTlUT/nkTWPTMV33SzFd/ABAzAAAzAAA0kGkMcuMLjbOgnNJl9NcWxEC2AABmAABmCgmwHksUMe9XMe+ZUZBLKDEU4w3ScY6of6gQEYgIHNYwB5zImB/YUZnvG4edBzIqNNYQAGYAAGYOD4DCCPSXnkt63pVMfvVNQddQcDMAADMLDJDExQHrfk8MEJke+2stOx/CwhnX6TOz3HBt8wAAMwAAPzMDAhebTSqMTxxydlOxlxrKTS09WP5OQpwJoHLPaFHxiAARiAARjYTAYmJI+b2YB0TNoVBmAABmAABmBgmQwgj7kIJJ9np/WXCSh5cUKEARiAARiAgXExgDwiiUgiDMAADMAADMAADBQzgDwCSzEsXPmN68qP9qA9YAAGYAAGVsEA8og8Io8wAAMwAAMwAAMwUMwA8ggsxbCs4uqGPLmqhgEYgAEYgIFxMYA8Io/IIwzAAAzAAAzAAAwUM4A8AouG5ZlLj2Sr9TveL8p/bV+WX/72Z/mvVyqp/u2P8svfLssv22/In45dby7Ny/KPfxvJlZQ7LnVs6u8/Tic70J8u/Fl//68LL0pVnZZ/6O1t3Ry7Pmarg+3d33U/p9SV49pD2Tn6TS5dnC39wa/uP35C5METctOVa51f9bGcEHlwQg4/XnG9rnM9Uvbk+WXwvkc9U88LZAB5XGDlrs3J4K1D2doVaf+OtxM9K0ivvCH/6pCrsuN1aY5IHmsGbNmK5NEdxx/lL/X+CxYKKy9F4jKXPH4lV44ey/W97QFOvidl/8eeB/Mvq/7myefdJ+UR0jgADwvuI/O0MfvSvjBQzADyOHVY9C/qiDx1KS0Kf/kPFY2zgjSIPI558OiWRxd5NRHTJcujlZdHuyfLOvdo5FG1d/9PgpZdeKyOneKI79TPJxx/Wf+knqinNWcAeVzzBpx30NW/492arm4G6UAe7VStmbZttpm3DOPZfxZ5rETXzVxT+OV1ePO7GaN3o5LHSqpZoqZz9skXP7ov565/Ic/NmY7P5cz1P2Defjn4v7zPUFfUFQwsjoHJyOOznz+Ss9/uy7PVTTl9V+Ss/TvzeSLidvmw/l5vt3czeZWk0+xIy3x/KC9U2/LSt02ephzHadT35PujW3JU/92QL6M1bZ/cuSVHd96T6uKH8mu93S35/loiPxt1bE9XJ7btGQzdekC9ZjA5te0idXZdoVtHmUo3XoOo1xZ6EVArsSoCGOabmEJ20dI6ja41ij3ymCrrMj4rmTK9+INcP3osO8Ffe83j2TvRNne+qtl+Ze+3aP9w29Y0thZUf5uHcjZbH0ucvj71hbyxc1/O7XwjL2bLMxvjyONs9cWgTX3BwGYzMC15tKJ3+rJtVCuJ9fuqEiN8j+Slt13DW9mMBPKFPSWDSgztdm/vy5m7Ir6M+nLZfJ5Or7ejXftUS+Ove6/Xg/27ezf0Z74YannU0vipfGLLZrZri6a+SWb3UJ52x3DMVyNwoZSpz7I3xGg5DLevj9+KY7OvvTEliPC5m1X8m1us+MXbBe9ttDArruOURz1l2nXTiZW4K/4FQiLyqOQw2MYJpyeQph0K1jyqfYP9tuXSPSWSeYE0x/E72X/X9a1Fvm7Lq1ogf5aXT82fD/I4fx3WffyY5xn2pw1gYDwMTE4efVGsXESwFkMjdo3o2YbSkukJpRXFMC0nno1QOnmMt9PiqaOgpSC8Ll/esxHF4MRrP7/3obxrPzfyGImijUL6kqmO/eRnIltX0lHVWTrpzNO3HfKYSqstpymhdFHIRPTRrzMbiUxPvY9RHm3E7rut+qIhbBsrbYHIVVIl5DHcz7BnIpGx8BXIo1+n7v+UxLrv1GtJBNXf3v//zW/knJZBFVFs/736ZqovvSMvXzfbpr9P7ZP+DHlM10uKKT6jrmBg8xmYmDw2YufgDkQulkQ3eEWy2ExHR4BE+7ejmNH2Lv2+Vyt/ftTRld9EFZsoo5ZHTyb1dkl5vCknd/M3yrj0S17rqeMoypfdNyuPqehhSgqNPMYCaMrRI4+d6zbHKI/mZpPsjTI2ehhEFBVPhfJopqoHksdcWWq+e46l3u6Y/SSzv14DuXNf3nj/nYyA9+W3mnJn+0/mONm+rx35HkZgYCgGkEc1/WyjgC5S6NZDxq8ugmimrL01jN66x7N3mwjl0PIYRg5NJ4inpFchjxpGO92cX/PoddqsPDbPkmxNWwePzymXx1ps6zWPZs1lLJ6mQ226PJqIYrguMjXVXBZ5bK2ftOstWyJby85qJMzJ4+xrIE15N+Y5lXU7eH2Rz455QUEdDiUhpLOeLCGPnjxWUeQwB3U28hidiJcnj6uNPMb1ZO7Q9tcjRp2jQx6TsheIo0qrTB5dWo2I5vc1x7DJ8mjF8d4P8orH6XEjj0YcoxtyFhl5XOm09WqkN+5XvI/OIx7H1A11AwPLZWDi8hitcYymp7MwziSZTSQym549CV79+kAODg7kpxvno6vhnjWP6u5qm0Z55HG4NY8ub/81tXax/j4rj2kprPerB4v0duG0dXoKPCeeJo8B5fHCrvx0oNrztlyty32czt235jEVJXQ3r3hyl1mPmJbHzDrK+jisiMbrLPvkcZ41j3XepXXIDTPtflNad2xH3cEADHQzMGl5bN0xXVViPusTPvfonfYaSh+42SKPV+W2lo0DOdjflfPxYGnvtvanruMpa5V3uTxWMszd1kq44nWGRu5yP/NnHradutu6VN5K5DFxZ7X32J6FT1tv39YXAumLge5O6TOk/u+72zq+6UW/v/ebXPd/ntCK3Y4nfM20c7zmsZJkZLFm0smpt5+VUzUlnpu2Xtrd1jyqp76YjFni/Wx9j/qivmAgzcDE5DFap5i549lIX/+2ybWP9Z3b7u7rPhFtGiYfebTbWIFsnvPYTFc7wGeRx2qw5zxaWfTWFbbkzBO3el2k296/0Sa7nS+bZfJYVVZGXT76l3La+9bT7PV27lmU8/yE4nnZ3c9Fkps2d+3W+dobsXMyZ565qJ/HqGXRizwq8fMET0me2i4deVTlC9N02zfltNFH91xJNR3eGXnsi6DOWCe1yLb34yHh7Tpp2o3vqAsYgIH5GZiYPHZHCqcIlP6FmQGe9ThI3TlxbK1xdBIYRzjn7wCDlDsjMudv/KSjj7e35y+nflRM17MeM2VY5PHNlLb+hZllPeNx/vqOj41H9Qxfp3Ed8546hoH1YQB5HPugu+jy2ejjEM97nLvj2zu2wxtcTGcy0cE1kke35vHrq8NMIdroo2Sf9zjmk469a3kty27qVU+5//ikbC+6P5L+MP2FeqQeYWChDCCPACbVW4eyNdAzH+cSyFzk0Upldg3lqNpwwOnq+Ljs70Nnn/kYbz+K90v8WcJFHu8Sf5t7rj60yDog7YUOxrT7mC+AKVvMJ/LICVGfEPXNM5/tyzOrrg8nkNH6w1Q0MoZ5Cu/XLgKmpesJublqrobI3wqkPDghhx8zmEyhv3GMcA4DaQYmI48AkAaAeqFeYAAGYAAGYAAGZmEAeRwiIkEaTOfAAAzAAAzAAAxMhIFJyONrr70mzz//PFBPBOpZrp7YlqttGIABGIABGJiNAeQRoUKqYQAGYAAGYAAGYKCYAeQRWIph4cpstisz6ov6ggEYgAEY2EQGkEfkEXmEARiAARiAARiAgWIGkMdJwnJTTt8VOfP5djEoa33ldPFD+fXolhwdtX/OcZ7juvCHn+XhxS/kQsCQ+zUc+3OK7hmV/k8wBttzVV7aBvHPSKYf3+Tq3/3EpP+zln5du5/UNA+e/9OFP4v+2czWrxv5+wz5/005uSv6+arLeEC/+x1z/dOVY+DP/da6//OWqyhX509qDtnepFXaz0u3i38e+PTlRB2/vS9n7no/NZz5SeLSPIfcTj8eT58DHsnJU4myu/5w6ht5+ME38lf3fiSvyONIGmJIKPvTGl4eze+Bj/TnH0vk0W7z/bWOTuyzojv0fflnq9M7ebHS4p5buTQpKSy/fyzr9r+t07Q8esevxb1MHisr+a3fZF9I3WzLyc9EliGN7lwwOnn06lWXTf02uveZK/fCX+eUx5WWvau+5jyuhdd7V9ln/c4KYlIevbS0bI5IHl0dG4nsEsh35O8X7ycCFd65zjtOl+6iX5HHFVT6ohu1P/2JyWNJG88ij7//Qn754L788od3kpHb4KcUkUepXB14D37vFb+uNhtEHq3ku4jwMuVR/yRo12Cx2kGh//wxbPlWKmBzStZKy97VR+Y8rmUzMFd+ay6PVWVmIU6+1dWvtuWfH9yXh/8+ntlC5LGrA27sd8hj62Q1gzz+9d+7rwIDeazM9OhyIlpdJ5/VfOemg+Pj/8t/zPE75YuQx9I0hzgn6J8DRR5dH1ypgM0pWSstexeLcx6Xa5u1eN0QeXzqUo8YZme7VnNuRx67OuASvzPTvt7ajL2biaiWkb6z9RqOR/LS22lw4vTC9Y0JefTWhoTh/2156VuvXHf9POPy+Nup/487jf2efK/XKKp1iu21ip/cuSVHd96Td/dumO/vvCdVPTV9S+qpZ+8znc69D+XdqE11WkFeLk/zWqfl9rNRx/Z0dboduk6+8Rq+1m93a6Ex067Bti5a5sqkXq386HV7OsLnyVmPGBnB87av3NR7ft1gs0+0rV82m28sjsk6aZU/N93cHGtv9LJz2nr29kqW22+D0v8Hk8ev5IpbM6hff5NLF8Pj0nLjbXMluyxjWy7deyw73rbuf7dOUqd15yuprJi471NpxvnuqP0y9VMkYC7PjnRy6Yefx3Vmjjk+hs7yu7Ik6krXSTwFf+1hVK8P5WymLsKyhm1Z8l2r3FEZ+47TtXU7L1tv8bEd6zjicSMxTlw+lGac6xlLBpPHvnJ542ZUvnDMnLXdTOSxVx6rcU1fI4/Hgn9WOLq3N6LnS1kl6rMASAurL4FOEIPtKid7cXqHnmh6nUAdvxPH1noQ25k8kU2VVZ1ozOeJk8Cs9WuF79e91+vBxghec7OLfn/vhvyqpPHap3J0dEN+vXdDvrz4unx5z4hlfPIz+7Tlsd6uMPKob5IZYPGykq9Afpw8+Wsj3Wd/uyyNgNkbPRLbNdtYwaq36Y5+ahGspa+dvhHFUObMZ0Yum3zDfVP71fUdcHFa/lHnb/qKkeUwz3pfWy9B/QXp2f620fJoB/NApr6SK7nBvTMSZcXR2/eVvd+08Piy0YhJIz9mu1Ba1Wf+frVsBmVtzokl8ujKs3PU5F3zkGr71Ge2DgJBStTLLOXvLbtKPzhuJ+lzHEfq2OLPEscV1ldCBu0+SdGvBThs6zDNpk2znzvp8sYUNW172n+vxiP/fT2mZcaXIeTRpuGPr+aGHD9PXy6bz3NjYrYO4ray09b98liJGX9+lr//vqCuW/kMuw/yuOAKLgGofyGvFcKgQykQ7Oe+9OnOGYpjuwy+PNoO4adh6yQthOmypLedHda05JlIpBNKI5NKFisrj7fEfGflMRdhTHxe102RPNorvwWtOwmnu5sIWxyR1Nv5stUrSSY6WEtetL1Oz4qmET4/Cqna0EYXaxmtxMljLHBN2ew+fjln6WtWEOsy+/sij3X0L5A0v47i/7tkIvldW06NPEbykNy33e/Nvmlh6hUwdSxdYhMfa+Z9Mp85y59MM5N/fa6xIlbcdn3ppb7vOS4j4+32MJ9HbazTT8hmKt/Oz9JjR10vXfta6QwDJZazAeQxPQb746TKKzNWFuafP05zA12JPFYDznzly9Puv6ltkccuYJf0nREvkbMJgdONlrgqco0ZS1u6E8QwuE6xrx/Zk84339FTecTlcOWb7TWUxGbfMKIYCKaOPLqp6kXLo1m0nLtRpilvXN9l71vilpGkRtBsuna7X/6WidRVlbQF0UUzfTH0/w/LHOfZH1WcUx671opm6qVV/5Ekt75fUv+O8336isjWZ/vyzFz528H86HEY5cul2SUTSZkx6ftRuqQodaXrlSUnK6pukul6+8b1d7z37ePR6cxZ/mOVvTDP4x2n7bedebQjzXVenfuF54R6n9K2mkeyuvbt+s4rW2rcMsfgxsN4zWE8Blp5bAVx5qyXqhJ9Ttg9lKe98qbrd7FjUDrP9PEhj72Nla64WSq5aFsXznfrGX1AOzqHkTYXaYxhz5XddoJUXnV9RNu4bd1rJLqDyGO8RjFei6imqatKNkMe7RSvdweyWa/oRf0ykhSLnOErTs9Lp7KRQh0FVFL3Z/mvC38UE9E0kmcifHEabs2jffWiiEPLo4tkNms24ylxj+VMvbT62cjk0QwQIt13VXrHWffF3GduCtStVUxFjOy+nVLQlolUBCopSsl0G7F16yLNazvSpdosmW7vsefqJPf5LPJYXv6SsuttorWHqj5WF3m07R1Mp4ec+BcNrX513LYpmhUz5dCi58Ya73UhkUc7voZrLL31+/VYvDh51HWsn8Kgnv3aJZHIY72ebTAwO4B+7bXX5Pnnn19qnvMcV91xHLS98tisv8hfXfknVdMJ9PoOJ60ur7oeS0XUpDuIPFa5yKNf9k2QRytpnowpXo4deazbzNaTliYlX41ANmnb9YVawNT3pixm+jkfeYx57pdHG+3siIa6NJ04hlPgplybOG09TOQx7BP1tO5RRiCTkufSSMlSO52kKLXStWl56ydVO69P5HG28ifrxOuPRhyjumzVmWuHAV878+iXx4WIbcc45s4F6tWMfy4gYuuka9+u77y2yI+N3njobe+Xyfy/OHksPycgj0sVuXWTx7oD1dG9nMi1Pw8jkbmTUdhZzD7tX5zJd7ZEusVXledld/9ADg4O5PZ2nE44Pd3uvGb7hUQei8R1oDWPVu5CWRpQHtUJMI666fd/lL+oV7120YjiP/5NSVoz3Z2Oasbt5Mra7JdsK3ucSQGsT9JWWCORrkY2bX31a8PsTzfOz3/uGuxu66hduoSh47susfPbNSlKcbrJKfAB5NHmk7yZo2Ypqo/g87QwGbnzooAzlr+77qyIxhG+uM68cg7Hmck7F0HMlTv3eVWlpdrno///EvnKbNMliF3feXWbH8/a42j6WDJl8/JI79fFpfqu9G7rSljzOHdl9zVG+P245VGB20QODXwJSG2E0A/bp0XR7hs9JufZzzvutq6v9iS8w9t2yrOtqGRYv7rMpdte2JWfDsxAfPD11fZAbNcwuptjUp1xMfJoxbXnJwwHudvaTrv6N8JoaSt8xE4seCpyF4uoSa+JPPqP8nHbuoifH6Gst/Nujkm1QUnkUe3njisWSP85j2YbT0Rd/QR3mXvMLX3aurngOTi4LVfnPX8NIY/XHkosBmbgj6JcrqwdwlJpYcrs5/bPTS/H6SYkzwla7k7ppJR6+SqOzLGp6fn01HeK0fizuH70+3u/yXV/CnnW8lvZjNvC5G2F1S+z3T49bT0kZ4m8gzpNiK099uSx1OXu5ySud/99OlDh321tRc4fv9zs2N1ofHLHM7c8VlLZPPy7rf1ym/8T47Irw1yv5fLI3dZzVbQ3iBSmM255VMfjhK9ZZ5GE2OtEZn1GLJ2ublwHzKVn8gvzaPYJP2+XTeXtS2zdyYrK15wg25FHW/7k2kd7d/UMax7r50DGayeP3N3Zrr7ca/x8SXcjjvt+wCs/G5Vza/yUXBkhawufkz1Xz7E8qs+dpLn0fslE8pKimN02XPPol6NUHnWZo2NVZfTTqu/mrtd/NtPpjXTaqf56G79s7Tqr68HfvnWcXrv2nUu2b+to+WjkMRAqt+YxFisrCIn1drGENYLn0rKvXtQsKXmxPKp6rEXDpKFkxIhbU75GBqP8jh63pFgzlJA61x9meQ2OUx+bqaNgmrag/H6erWMJpuyjNlDfperM8TckZy5aQ4RV1QAAIABJREFU6LV/cJy93/v9wx5HcGz+9zP83ztORGOOmoFrCWK0jbcu0n++sJPV1HrGcJzzHlkXpOVPn9s8S4Iprj2LXkvlcaCZr6Iy9bcnN8wMVJH+yYT/+8Fb5zrSvzAzwLMe17kOplf2q3JbRcz3d+X8vOeMISKP85bB298IVSKiZCUqGYny9p8eC4s8vw3IGW3UntkaZZ0UyqP+hZlxPONR9XnkcZQwLfLkRNpzD3b2WVtj+p3RuY+JftA50Ji1aD/J7oUB+s+oftvaTm+mIkpd05jw0snLcfvjoJzRRgtpo+O2bX6/Enk0N8qMacxBHulga9LBBhi0h2xr+zuji3rmY/5EM7J6GLJOx5jWoNOIru3MYLF1JfUTpG6b5b2mI49uzVwiIjnGdlr3Mi2Es+UxxPnq+HX9zKVHsrXb9Vv34/pZQtfWyOO6n3Qo/8rkVy9evviFXKANVtYG7kS2fq9WIHdFxiCRwVpAt0YuFY2EdViHgUEYMNKonuvY8+xXHaj4Rv46snpHHkfWIOs3CB7/iotjpe5gAAZgAAZgYP0YQB6Rx0Guouj869f5aTPaDAZgAAZg4DgMII/II/IIAzAAAzAAAzAAA8UMTEIej2PV7MPVGAzAAAzAAAzAAAy0GUAeudIovtKgA7U7EHVCncAADMAADEyNAeQReUQeYQAGYAAGYAAGYKCYAeQRWIphmdqVFcdLNAEGYAAGYAAG2gxMSB635PDBCRH1991WXphG9esP7QYDYuoEBmAABmAABmBglQxMSB4daFYiOwTy6SvqwZ2H8jRRybxkUzfUDQzAAAzAAAxMkoEJymMl27u/E/nxSdnOQr8tJz8T2fpsX57JbuNklNdVXv2QN/zBAAzAAAzAwHIZmK48PnhCbnaJoZ6+Fnnq0vYkryroiMvtiNQ39Q0DMAADMLAuDCCPHQLJ9DUdeV06MuWEVRiAARiAgWUxgDx2yGP11mH/j5Z37c93RG1hAAZgAAZgAAY2jIFJymP18RMifdPWuqFvysldpq6XdSVDPlw1wwAMwAAMwMD4GZimPL77pDx6cEIe7Z7suRqyN85cudmz3fgbms5IG8EADMAADMAADAzBwDTl0YaPb35nnvuYl0jkcQjISIOTFQzAAAzAAAxsDgPTlEcbeTz8uK8hkUc6ex8jfA8jMAADMAAD02JgkvKon/PImkem4jdsATMn72mdvGlv2hsGYGBVDCCPXQLB3dYIZhcffAcfMAADMAADE2QAeexodP2cR35lhhNDByOruuojXyIOMAADMAADq2IAecyJgf2FmZNvAeeq4CRf2IMBGIABGICB8TGAPCblkd+2prOOr7PSJrQJDMAADMDAGBiYoDxuyeGDEyLfbWWnY/lZQjrnGDonZYBDGIABGICBMTIwIXm00qjE8ccnZTsZcayk0tPVj+TkKYAdI7CUCS5hAAZgAAZgYLUMTEgeV1vRgE79wwAMwAAMwAAMbAIDyGMuAsnn2Wn9TQCfY+AEDgMwAAMwAAPHYwB5RBKRRBiAARiAARiAARgoZgB5BJZiWLhCO94VGvVGvcEADMAADGwSA8gj8og8wgAMwAAMwAAMwEAxA8gjsBTDsklXTRwLUQAYgAEYgAEYOB4DyCPyiDzCAAzAAAzAAAzAQDEDyCOwaFieufRItlq/4/2i/Nf2Zfnlb3+W/3qlkurf/ii//O2y/LL9hvxpgvX2pwt/1sf/rwsvSlWdln+ounB1s6T62N79XfdzSpdUjpVcrb/7pDx68DvZf/d4V8orKXO2Pbznznb8YMG4yrwJ9c4xwBQMDMEA8pg9uU8IsLcOZWtXpP073pE8vvKG/EsJ03+cLr46iSH9y3+sr3yG8ujq5o/yl2Ux9PETIg9OyOHHx2fzlb3fZOfooZxdVpkHzufmdydEHjwhNwdON+Z0se9Pyv6P3b9ytdj8j88P5aLuYAAGFAPI41oPQgNArH9RR+SpS9tJIdSy9zcrSBOXRxd5/ce/qXpfsjzqqNsJebR7MtlOpSf0dZfHqrLi1fUrUWPv0xsVQR3gHDT29qJ8c51zSs9NbLdefQl5nPiJQf+Od2u6uoE4kEc7VWumbZttZun06xx5DOWxkmUei464DSBM6y+PlVQDiXQJt8+9/7Oc2/lGXhzyPKEjyJsy/X6880BJ3bMNdQsD42VgMvL47OeP5Oy3+/JsdVNO3xU5a//OfJ6IuF0+rL/X2+3dTF556TQ70jLfH8oL1ba89G2TpynHcaB4T74/uiVH9d8N+fJimM4nd27J0Z33pLr4ofxab3dLvr8Wbqc7pY06tqerE9v2DJ5uSleviYyntl3EUq8RVOsEoz9vDaVJR0U6XWTPbuttU59Q3BpMl15qOr2Vt12/6Y5Hp/FH+Uu9XZR3Kk2377JerSx1Tldf/EGuHz2WnfrPn5r+Sq7Un/vbuP+9ba89lJ2j3+TSxUrO3nHfq1dvm/q443RT22zLpXt+Oo/l+p7X53S5VX4urSjvez/IK3V+DZfLm77elld37su5nZ/l5aF+7x55TJ5P636daG++a9inLqiLMTAwLXm0onf6soXPSmL9vqrECN8jeeltB6iVzUggX9hTMqjE0G739r6cuSviy6gvl83n6fR6Ybj2qZbGX/der0+87+7d0J/5YqjlUUvjp/KJLZvZri2a+iaZ3UN52h3DMV+N8IVSpj4z07uuHs1rX7TOl9AmwmlvTvFErp1next9U0sknSaS6pVVy+Of5V/bShpNGv/a/rOovE0edsr+mHXT264F6eqbZLrW+VlxbEnZna9qVlw5eiOPWh6t7NX7WwH0RS6Rp5HNUCDP3jEy6PKvbPp1Wa08Xr+ntjP5qP93VN6eyNb7u/oaYP1nK02Xduv1HXn5uhLI+/LqmyHP5Wl4+yGPLS6PVY+tdvLqmO+oYxhYKAOTk0dfFCsXEazF0IhdI3r2ZKQl0xNKK4phWk48G6F08hhvp8VTR0FLT3avy5f3bEQx6BD283sfyrv2cyOPkSjaKKQvmerYT34msnUlHVWd5WTeJ4R+Wn3bOnmMxTPcz0qevuvZq0MrgvrO8KCevG1shLEWUxu9NO+tgFrhbAuql04u/cE/L7i5okuyovKUymMtd3b/eD8tir5M6u1M9DDe129/xZ2ORLp9rYRqWXTfuSinFc0rqah5Ze5WPt4aUBdNNEKopDD4+8iLjHr19+JHZrs33n9nvpMy8jhf/XltErK1iv5JnrTBNBmYmDw2YueAD0QulkR3kopksZmOjqCJ9m9HMaPtXfp9r1b+/KijK7+JKjZRRi2Pnkzq7ZLyeFNO7uZvlHHpl7w64St5hE8oge36KBK2nCRaMYzFMzyGSDyDtKw82ghnUVn62m7u7wskyQmYnW4Ojzes41gCW9t2CptLKyeJVgzriKXbPnwNxNOW3QhiJJadZSmQ6rnrPiy3qiuzBvK+nMsIZqs+E2UYav1qSV5s025D6oQ6gYH5GUAe1fSzjQK6SKFbDxm/ugiimbL21jB66x7P3m0ilEPLYxg5NI0fT0mvQh51R7QRvHo9ozfF7HfUIeSxllW31jF69eUxt20YeXTT2Gsqj1pQ3JpBt74wnD52bTCIPNay6vKKXn15zG0bRR7XTh6PsQbSrNOc71FLrh15nX/wow6pQxg4PgPIoyePVRQ5zIGVjTxGUYblyeNqI49xPWlBVEKXEMgh5NHc9eyELw+/E0dfJt3DvTdPHr16sBG71E0ug8hjlYs8emVQfcGJoy+Tlb0RZ6XyuNppayKPESfReTM+n/Ce+oKB8TEwcXmM1jhG09NZYGeSzCYSmU3Pnjyvfn0gBwcH8tON89GaoJ41j+ruaptGeeRxuDWPLm//NSeJRujyN6GY73vEsGh62t6tHd0wszR5vLArPx2o9rwtV+caHI85PasFMrpZRZUj97krY+dUsTuBlU1PG1Ftl2GYaeuC6Xx3THO/csOM37f53/UDXmFhugxMWh5bd0xXlZjP+oTPPXqnvYbS70yzRR6vym0tGwdysL8r5+MBz95t7U9dx1PWKu9yeaxkmLutlaTFMhhO//p14p6VWEf+ouMsksfKPmOx56cBTQTUE9H6cTyX9d3UulyLWvO4fVtfCKQvBmY74fTdba0kLb6pJHXnsz7eTDSwbqMieXQSGj12J2rL1p3V9Q0xj2Vn3sjj0u62dlFKHtVTMxK3M+/ri3fqaLZzG/W1vvU1MXmM1ilm7ng20te/bXLtY33ntrv7uk9EG3jykUe7jRXI5jmPzXS164SzyGM12HMerSx6aw9zcqjK6aaT6/WRXnSwVB6T6aj8vbSaX4Fxz5X0Hsfj7tRelDxW52V3PxdJbtrctVvna8FzHo0semsPnZylBnYriMlnQpbKo0rXiWjwDMkw0miij025lOQOEXlc1tQvDwmfkdUUb3yGXMLAxjEwMXnsjhR2DuAbCr/+hZkBnvU4xbrrO+bzN37S0cfb2/MPwOZmi3X/Tef560HXeYFM97XNSr/nUT0bN5CulKcNHZuo04HOlwviA3lcUMWuDfg2+jjE8x7X5piX0eZuzePXV4cZKK0wyXdbw6S3jDpYSB78tjX9bNyDKu1D+0yBAeRxIQPcmnWetw5la6BnPk6h03Qf44DT1TGbdp3f8R6MvWZMxsdu329GBNbc7MOFwGYw2X0+4Bipn81kAHnMDFJTA17fPPPZvjxDfYw6sqdvnvnxSdmeYjvp6OvvZP/dTTgZW4F8cEKQyE1oT45hamPm1I93MvI49Ybm+Dm5wwAMwAAMwAAMDMEA8jjFCA7HPOro4hAdmzQYIGAABmAABhbFAPKISCFSMAADMAADMAADMFDMwCTk8bXXXpPnn3++uFIWZeqky1UgDMAADMAADMDAujOAPHKlgVTDAAzAAAzAAAzAQDEDyCOwFMOy7ldKlJ+rfRiAARiAARiYnwHkEXlEHmEABmAABmAABmCgmAHkEViKYem7WnO/9X3m8+3CNLflpW9Fznq/B96XB9/Pf8W40XVof29b/YZ2+XFuy6V75ve3Z9tvljzYtrw9qCvqCgbGzgDyiDzOMMh2d2jksbt+xnAyeGXvN9k5eihnN5X7scvjsco3Iq7Wvfybyj3HNdg4Nobz9DqUAXmk0yU6nY0I3j2UF5L1c1NO3x0iYkjkcdkniXWXR1N+EyXcOXosO3e+Cvkdu9yMvXzJ/u7J67qXv+/4+D7sT9QH9ZFhAHnMVMyyB/Wx5ffs54/k7F2R05e9gcPV1eXD/Hdum6JX5HHZ7b6+8uimlv2o6VdyRQnkvR/kFcfb2OVm7OVz9Zh7Xffy546Lz5EkGJiJAeRx5cCYKF68TtDIWxz5sxE/FfXTf4/kpbcTclfF26XT0XlaETTpebL49r6cyUQXzfR0k6abrm6lkajbeFu9T2vNY1/5zTE7wXX5zrt2Mo5qXd/z1m5mBs2zdyJ5ufZQdo5+k0sXK9HfKbnRf770WBFSUTObrtnmsQR52vrrLFdl80mk1azfs5JVl8WVyb36ZUvxlPksKnt7Otzkq49J14vL77E0ZfPSjrYJoopevQbCbctQ15vXTkH9+4Lp6qxVH6bdgvRVG3SVy2e8Y7ugLK18M/Xhp72E/+My1nWara9Ue87CtrsgcOkU1n+w7MKkocrqyh/ylklzCfXZ4og8Z5IT6s87N46QHeRx5Y1SKo9WqALRuimnv92XZ/1jsNLny2gse1Ugl40EGhlzQpqbuk6Vw0Ju805GKyubXlDeROSxqPypstlyBemXdj43iIUDzSt7D7UE6pOYJyX+SU0PWL6Y+AJRT6na9OvtXH5q0PTytPv6YmUGRE/uYlkKBvZmOyOcXtqWkcEij4lyaBGuj1nVvS+t3WVzA79/7ErazPu4/vx2jb7T5fpNrqsbYOqy2HLU7/397f+67nP15X+eTqu7/F5+GY58plbxf4szzZV/3PYYestfyna7HpPMqvyCdnPpO57M++v3ftMXXjoN9b8WTJOHL8GrqFvy9Pj3xyr+X2uZRh5XDnChPHaKWdM5tSi2BCrOIyNacR6p6Wn9mRPMJl99goz39+s2uV9bHovKn0yrkipVXr8Muf8z4hCc9DODph50aylsolTxgBVKWzwAunqMBrtMnmFaLsIZDfSF+wbHmKuf1Ocldebk0a8flVZctvh9K7+oXqLvgzawaTXiaOo2KSZ+OsnjyeQbb9tbfte+iWP3y1D8/3nZ3T+Qg4PM3/6unC9OS5XN8hhImldmP63eYy1jO2bYcFhYDl3/Llob5mfSdd+Z9otZODbzfj3w/1qLDwxk+vcMXCOPM1TWYoCLxc40anva2gpfbh2iPo50WmpwCB+JY9MKopgpmNrbpeXO7tshj+n90uXyo6ZuUPHLr9NK3syTO/7UsTWfBfKR4yEzaLb2DQa2Jo+QHTvgxVIV5Z0eYJ2gNrLYKoNKJ1PebJpR3mF5E8dh0w8ip600ygbv/jJlJM7mp4/fTWVmjttNPQeRTb+8sRCq71Kfqc+jPPrL79VftG9vPftlXOD/pg79aK1XZj/f3vKXsJ2XxCTLfv7q/6AMYVqmLVzfKONvLG1AOTLMxe3P+1GIO/K4chDTwtOWR9Wx3HRtZs2jlbd6DWC9NtJuX8tiWwpzJ65Q1NJlrfedVx4Ly58WUVU/5cdVl7k06hIMWM1JrjXYDSiP9YCeWCPnS1urDK0BtinvTKLT2zfs4FyXz00luvzKBu9k+YO8C+TRiXimnULhcOXzXhOiaOrKrcdrvzoR7S+/l0+ufMHxetsv8fP4eOPoue4zveUvkceYm6huXVvaY8/1g2BJg42aIo+rYac5n5L/VOoCeVziyTkNVVrI0vLodcxatPwp5HRa7XxnkCx/Kjg3XezqcF55tPLXjjx6x11V0iePffvH9VE0+GcGzda+A8pjqei1yqDaI1Pe0jTjOup9b487vGmmTB77yxRGl8KyRN9ljjsbRXTsJuSxdx+7b3/5PX5z5XPlKHodetraK5/O39bpUeIGrt7yl8hj1GYdx2zE0UUSbTmDMoRpmbZw25fxF/IU1wXvqR8YSDGAPHacuFIVNvxnKeFzEcbmZpZkvi1Zi6eBc9DPII9eNC8vbTafVnma/JMybMW0uUu6sPw5ic19fmFXftLrw27L1UR7hwNOU+agzoMBy21jByc/UjKgPJbKyyzyWJpm1VNnQd24Om0JWOHgXVBn2TaK2yV+b8tmJCSOjLp2zExRZ9JqHXtB+Zt9TJ0ko3quHkfxGkpZeflL5NGu0/X7TfKYM/wE7RKWM+Qks38yL48Fvh/FtGjDHG0zxrpAHld+orDCVN/k4sRRTTV78nj5UOKImhEyP/LY3DQSbxvCN4s82kifnQLvTLdDHiv7Xb2/fv9IzsQ/T2iFst4u2T5xnamTS/6Yzt/4qb654PZ26kRkBxm3bs7mGdxt7W7+qG8qcPukHtXjFuyn8lKflQ2w9XZRucK2zAzEwQDrlcN+3ncTQV+dqUHaTdu68rQFrXTwtvXh33mu2qC+21qV36YVCEci/dRxl8hdS3xNnSUjXy0mS8rv2sBt2yGyrfTdvot6/UquBPXaRK7bkttXfvt9nF58TEUcJvKybakebcW09aJ4IF13TuM1zwLyGJ/UVvLeio8vaFqiPHmsKjGy6NY7RnLpl9uKWrj20ZfMvGglO4sVurN3/TQcVGHZwzzD8ru7oc025jsdzazXYto0e8uvtvMl29RJVjiLomhuoGrWX7UGTjfg2TV+avDSkQ5/oCwRlWJ5NPVhBKYpV/zLKvp7vwyKhZREOUa8Abj9DErbBgV11ipXXAYnfLVw27RdOaLXVnqt/QrayNVtvQ5T1ZubxuzIPyOPqj+YaFZU/61jdXe9e9u1yu/y9y48PJaSfS+qo4VtE7HdyJkrs//aVf5CedTH1U6nnW+0jar3gG2bn61rIo9+O/H/wvrLsvrliPNBHkfcOIDPyQ8GlsRAhzzSBktqA87FTBfDwNowgDwC69rAyiDOIL4oBkzUc0xTybT1otqadGELBuZnAHlEHpFHGJgYA1/JFX9K2U6DtpYpwMXEuJh/QEVKqMOpMIA8MkAwQMDA9BiI1n0ijgz6Uxn0OU5YH4IB5BFxmJ440Oa0OQzAAAzAAAwcmwHkEXiODc8QVy+kwVUwDMAADMAADKwXA5OQR6BcLyhpL9oLBmAABmAABsbLAPJI5JHIIwzAAAzAAAzAAAwUM4A8AksxLFwFjvcqkLahbWAABmAABpbFAPKIPCKPMAADMAADMAADMFDMwITkcUsOH5wQUX/fbeUr6NS+PLX7SE6e4gpmWVcw5ANrMAADMAADMLA+DExIHl2jWInsEMinr4hs7R7K01yF5CWbuqFuYAAGYAAGYGCSDExQHivZ3v2dyI9PynYW+m05+ZnI1mf78kx2GyejvHK1CAMwAAMwAAMwMB0GpiuPD56Qm11iqKevRZ66tD3JqwpOAtM5CdDWtDUMwAAMwMAsDCCPHQLJ9DWdaZbOxLbwAgMwAAMwMAUGkMcOeazeOpStXZGTb9EZptAZOEY4hwEYgAEYgIF+BiYpj9XHT4j0TVtrqbwpJ3eZuqYj9Xck6og6ggEYgAEYmAoD05THd5+URw9OyKPdkz3rGe2NM1du9mxHh5lKh+E4YR0GYAAGYGDqDExTHu1U9c3vzHMf8xKJPE69g3D8DBIwAAMwAAMwEDIwTXm0kcfDj8PKaMOBPLbrpK/O+J46gwEYgAEYgIFNZmCS8qif88iaR6biu26W4jv4gAEYgAEYgIEkA8hjFxjcbZ2EZpOvpjg2ogUwAAMwAAMw0M0A8tghj/o5j/zKDALZwQgnmO4TDPVD/cAADMDA5jGAPObEwP7CDM943DzoOZHRpjAAAzAAAzBwfAaQx6Q88tvWdKrjdyrqjrqDARiAARjYZAYmKI9bcvjghMh3W9npWH6WkE6/yZ2eY4NvGIABGICBeRiYkDxaaVTi+OOTsp2MOFZS6enqR3LyFGDNAxb7wg8MwAAMwAAMbCYDE5LHzWxAOibtCgMwAAMwAAMwsEwGkMdcBJLPs9P6ywSUvDghwgAMwAAMwMC4GEAekUQkEQZgAAZgAAZgAAaKGUAegaUYFq78xnXlR3vQHjAAAzAAA6tgAHlEHpFHGIABGIABGIABGChmAHkElmJYVnF1Q55cVcMADMAADMDAuBhAHpFH5BEGYAAGYAAGYAAGihlAHoGlGBau/MZ15Ud70B4wAAMwAAOrYAB5RB6RRxiAARiAARiAARgoZgB5BJZiWFZxdUOeXFXDAAzAAAzAwLgYQB6RR+QRBmAABmAABmAABooZQB6BpRgWrvzGdeVHe9AeMAADMAADq2AAeUQekUcYgAEYgAEYgAEYKGYAeQSWYlhWcXVDnlxVwwAMwAAMwMC4GEAekUfkEQZgAAZgAAZgAAaKGUAegaUYFq78xnXlR3vQHjAAAzAAA6tgAHlEHpFHGIABGIABGIABGChmAHkElmJYVnF1Q55cVcMADMAADMDAuBhAHpFH5BEGYAAGYAAGYAAGihlAHoGlGBau/MZ15Ud70B4wAAMwAAOrYAB5RB6RRxiAARiAARiAARgoZgB5BJZiWFZxdUOeXFXDAAzAAAzAwLgYQB6RR+QRBmAABmAABmAABooZQB6BpRgWrvzGdeVHe9AeMAADMAADq2AAeUQekUcYgAEYgAEYgAEYKGYAeQSWYlhWcXVDnlxVwwAMwAAMwMC4GEAekUfkEQZgAAZgAAZgAAaKGUAegaUYFq78xnXlR3vQHjAAAzAAA6tgAHlEHpFHGIABGIABGIABGChmAHkElmJYVnF1Q55cVcMADMAADMDAuBhAHpFH5BEGYAAGYAAGYAAGihlAHjcVlmufytHRLTm696G8O4pjfF2+vHfLlEmV6+iGfHmx5ErqppzcFTn5Vsm2x9zm8qGcvSvN397NRAfalpe+9ba5+0heevuY+S2qPdxxfLsvzy4qj5nSLa+zp6+IbF1J1fvI6nim46fsRItgAAY2kwHkcVMHg9HJo9eBdNlK5HFbTn4msvXZvjyzlHayspOUR6/8WtKQx5kGhb46O7UvT+2KPHVpOyHuXt0vhQPym6ltaROYhYHJMYA8Av3yoS+URx2N2j2Up5fWRmOUxzh6J3Lm8zUUrD55VG381qFsLTrKvDSWEFAEFAZgYHMZQB4ZTMYpjzYStdDp6lbbj00eb8ppNZ0eTUM/+/kjOX15zU5KJfJYVbL8C4Y1q8cWs5QfQYEBGFg+A5ORRzXgmkHYDsh2jVsyiqMHOm99W2YaU6fprZWL0zLfH8oLVRQ9imSgHPz35Hu9XtCtHUxM/brparfdnfcychivQXRp3pJf917X+7y7d8OumQzzdd/75f7kTrO/XmuZzbeSqiDyqCWid7o6qtfUOsS39+WM10ZnU9vUA/JQ8thXLi+fqHw+Q4afgunxQl5Ve72w53Ht14tlfK5+clexnjmJFcpjxfR1pr9m6jVX33xOPcIADCyQgWnJox0s66iNHXTr91Ul7QHbymYkkGYQ9gZLKwHtwd8M1s3n6fR8EUv/bwUukLL35PvsDTFWDoPt3QBkv/P21aJ4dEu+v+a2qcR9FtzcYuU03s5/X138UH5V8prMu0QezU0ynevfnHQFIr4tL+35N4vclNPB906eckLmSV1Xp+sUoXb7tpny5dIrS8Sj2U9miDJ2l7/FrM2vYdPxr5jNl0vzqeo/6BPumLw+4ddhZ501zFXVste5+nnzf/rcQ71QLzAAAyEDk5NHXxTVQKXvoK0HQTPw+4OpBiYe+Ky4hGm5gbcZPHODvx7EI6npBdMKWSBp/uDc+r9DHpNpteXUyWOYp9kuFX30j8FEIj+VT1rlKpBHvfbtkZw8FcLqp3+sOlRlSUh+k27MQyb/mAfvGE2bNwyYtON0c6IV82dFVF/0xGmmyhbn428NbuAtAAAPZUlEQVQTp62+s9t7LKaZTe3rp23/tzIa9wtdBx111tS/SeeZS49ka6lrXRPH4rVpXD7eU18wAANTZ2Bi8tgegAMJyQ1wkSymBaGSKtrfbOdFcOYakJqp41Dmcp24Qx4T0cOqakuhkcdYANvbpTpRel9b1p5p6355KJSZZH137dslX149R+3cHH9+/4CzhLQ1aXj52PI7oXOPE0rKmd42n39amtvbp9nuqjOvvFE/CY4pW2fe/q69Ci4egrTdfrwyTQcDMAADS2EAeVRrwGzkJR6k3WDtXt2grUXAXy8W/N/I4rDyqAZZK4RuPWPnsxI75NGl05q2DtdQpgUwJY+N2Or1jnX5YvG0ojCvPHZJSnTiyLVpK7qs92vLVFJSsiJkJMvx0nqtI3w2n/p9QqCi4zDl8NKvo+X+vt3lN9x6F1D6OMJp8VnkMdcPXD8J6i5bZ3757f/I41JO/kH7JHlLtA3b0TYwAANVJcijJ49x5DB3ck0PsO0T7fDy6OXh1hVmBbJLHlOyF4qjOvYyebRpeSKa39eWf155rMoiYU4cQ5np2rdbvmoesiJUuP+Mkcc6X3vSNtLWXKQ033flb78LLnRCcVTppNlu11myDF1Sn60zj2k3KCGPDE6OBV5hAQZGycDE5TEaFLsGPx/gwoFwVnm8+vWBHBwcyE83zpfBkly76AbjvDympdDt17ymt4sij8kp8Jx42rR75NE8769rzaMVoc7IXW6bqM39dnVSl4zqNfXSdZGhpaqzXCqdXNm8PIJyhZ8nxU1vb9NNlX8mZr3opE43rjPz/mycT1f/KcxfCWz/soWwPhp55nPqAgZgAAaWwcCk5dEMwuFAmR+YfSDtIN31aJI6ipOKEPlpuf+vyu0DI48H+7tyPpaHa5/Wj9BxYBi5a0cMzfd5eSx5VI5Ko0geXQTUu7O6eWzP8aatq6rgbmstIyKhwIR3W7fa0sqNmk5ezLR1c0NOWC7Xxu61TB5f2Euw444hFrc+eewSO4+1sshjgn/XHnfb0UzNY7E8cre169+8uv7CKyzAwNgYmJg8Rs+4y0SI3HRnsGYtsa2RkyhNb1AfOvJoZM5/nmJbzhpx87cz//s32mS38ySwSB6VeNjoo1vvqO7Ebu3rJLNeD+mVL5ryVp2k6DmPTqTqqdhYtpzkuDZSFwpxFM09vsdtE77WU96tvLztWmzYyFxdLrNtnVZx5DEuf5yOOaEmObR5N3m6KWmv3K58XvnL5FHlGx2jSiMW1JnqzA4OK3k4PAPT2AYmygOTMDBuBiYmj2GUcapwGnFMRCytBPY9hmcp9cbDosuWLnhRw652cRdEvkzq7Z3geRc9Xeks+ruii4bCY150WUl/3IMb7UP7wMDiGEAeJzcQ2ensRLTPPdx7FPLooo+7XWsfF9cxNu2kY6KTqYunzPrFVfQLfaOMyHJ/khKGNo11jgemYWDxDCCPqxgkV5xnOvJopTJ79/biYWx3eLv+jQdGzx2FzEUe3ZR3KyK5bEaJNM/dxu3+s4o+S560AwxMgQHkcdmD5EjyS655TEUjV15ec/MM0aj5T8hOIIO1vD03fS3rJKinq6/cRKBW3t/m52xZzJAPbQUDq2NgMvIIZKuDjLqn7mEABmAABmBgcxhAHrnSJ9oDAzAAAzAAAzAAA8UMII/AUgwLV42bc9VIW9KWMAADMAADx2UAeUQekUcYgAEYgAEYgAEYKGYAeQSWYliOe4XCflzdwgAMwAAMwMDmMIA8Io/IIwzAAAzAAAzAAAwUM4A8AksxLFw1bs5VI21JW8IADMAADByXAeRx0vLY/Hbyyh8SPUc7uAdd188vHMlP7R23U7IfJ3QYgAEYgIExM4A8ziEto21Y+3vF/UK4/vJoxPGRvPQ2J5oSHl/Z+012jh7K2U3knmNiFgEGYAAGlsIA8riJoBXL4xKFy5apjg7eFVH/n/l8ew7QR/S7zGvCEfK4RObXhImSiw62gRsYgAGfAeRxE0/wI5ZHPxrqfi7v+AJp5PH4+0/vZIA8Tq/N/RM+/9P+MAADQzAwPXm8fKgjXnUELLE+zklNdhstZ2aqNFhv9+2+POvJqP5OpR9F3XyBqhuxoFx6247tgrLYyF59DHdFmnyb6Wrzfde0r43u1enF25rvVdphvR3KC15duDpoyqA6sE07qrf68zrPKK063WHl0YjVY9k5Mn/X97yo6MUf5PrRY7lyLTzxnL3zWHbu/SCvuDJdeyg7R7/JpYuV6O9sWuFU8bZcuvdYdu58JZVNN5mnTbOzXJXNJ5FWU9av5Epdjub4XJ5h2cLjq/l0x7eAV82NZiBkLXlR0MG/X9aQxXaE23yvuIr6QovF5deHfxz8T/3DAAyMkYFJyaOTq0BgLh8mpMqXlYTgeDLYDHB2O09GXX5n7zbpmUErFLD2Z+20FDwuvXz5bSebJfKoB+OwPDWodqBujrERxKYM3oBfH7sdkP2BOFmmxHHa7fw8zXG7OowG+1owzTT42buZY+mUHitzVvrc8b+y91BLoH4/kzxaQVNCp/O16deS6fJT2xnR1Ntp8QwF1Qiot0bRlsMX20ZSm+2McHpp2+MfY+TRF72aK8te/b5y7Pntm+Cn7ieOl6q+ePOZ8vNsPk+n53jglUEcBmAABgwD05HHpLxEHSEnUvFAZtM6W8uSSUdLjidMRnr8wa4ZyJpB0QxYzQBmyxSXpaT8TpBm2TbOx6XhIjLRMVbu8/o47YBbvzflN4NzewBvjjstw3Edmo6aqSMbuWzVXX0MUfvmPveihdkTw4zy6MudSjOUNiePjeyZfE2EsN43k2eYlotwRqJYuG/2eHN1pT+/KrcPDuQg9/f11ZnWsTqR89moOav5yzAQ85thP+YxnadlMmL5eHVUyF5nPZMGdQ8DMDBOBiYjj/HgkQIyjHD5DRYNXJkBKhaf+L3OM943HvzcYBJtV1L++piifevPXdr+a0/+KTELyxLVjU073KaRZn8a3Y/ImjKm02qLhGub3Pbu+7LX1tSzXz/u/4yMtfZNRA/b9R9HItPljCWxTieS3VYZVJkz5c2m6Y5zBa8tVmwZgv7Tw6kTz1xaVbS/2S66sFvBsddtSt4zXXBQb+lzBvVCvSyLgcnIYzAQZU7U+W2MpNSRxoycxfvH73WjRvuaQcxNubZf3aCYTCtzHOn1hZlOFQ2qNXhROevPW9OHaYFrDeJReu64Azm124SC6dVJHYVyx5LO2y9r//9W5OopZpd29JqRsZa4DSiPOu3sWsUm0tgqg+IiU951lUfHS46NoJ+0ljI4hhpZNOk17/s5iXjI9T0+RwJhAAYmwMBk5LElM4nGzQtaJCmRCLmBJ94/fq+3i/fNyVtUvpLyu3IsRx7dlHRUN7bcrfLGx+2mv731oO5GmUAoo3qoj1F/ns473KZ/0E/KV5xvRsZa+w4oj6Wi1yqDKnumvKVpdtfhIqatHU9NewX9Z+B+gjw29dzd1mxH/cAADLQZmIw8mmkr/47jdmXEU1s1MPHA1RIhk1Yw2LmF+/H6qXjf+H0sLe69LkNP+d22s6wFjI+tTsPemNKK9sWfpwWuXx4rcW3SyGKcdqKN6vKp79J51+3mtr2wKz/p9Xm35ar7zHs1QtVE8lr7q22TMmbvYq5vhKmkGlAeTVo95XJ3W/tlyJbXla8/zWQdeHU25PctVnQ+UdvO1E/6I4rIY1/f4vshGScteNo0BqYjj3WkKxpYUndbB8JnBrF6yloNbJmB7Fjy6CSz9y5hd5dxV/ldB3XbtqM5LYCz8tjInZsSVPu2B91okLeC0RKCZJ0lymkluRFKd0yp13Te8TGev/FTfXPH7e1UOu5RNuENLMHd1pXdpp7edvukHtUT3jEdl0et4dSP6omFryVnuRtrwmOYJfLoJFg/JqiVX5huu9yL+b7FSt0nQn51/yruJ+G+8bG0OV7MscX58p56hgEY2AQGJiSPBlgzALk1UCKBFOrB1AlNs01LZJIi1L5TM5ZJDUxmXzOYNXnqtV2BxJaW33VMK73e+q9aAm0ZkuvH4jytzDXbxoNyWuBaQpA57nb0sZHzJk9VL5E067ZK593qmD2RR7O9E7XmOYj1Xc9Osmz00T0fUT1HUUctfQkcMvJo89VyGK99rCXW3m3tl0Htl4yUWjZsGd1xjOI5jx6nOfZVOx27n6j0vSg68ujOE7y2zheuv/PK2kUYyDIwOXnkRMFgAQPjYqB1ocEJO3vCht1xsUt70B5TZQB5ZKBioIKBlTKAPDIAT3UA5rhhf10ZQB4Rh5WKw7p2HMo93EkfeRyuLuGSuoQBGFgGA8gj8og8wsBKGUAeGeyWMdiRB5zBwHAMII+Iw0rFgc48XGemLqlLGIABGICBZTCAPCKPyCMMwAAMwAAMwAAMFDMwmDwuw3TJgysqGIABGIABGIABGFgtA8gjVxrFVxp01tV2Vuqf+ocBGIABGBgDA8gj8og8wgAMwAAMwAAMwEAxA8gjsBTDMoarHcrAVTcMwAAMwAAMrJaBweXxwh9+locf3JeHH/wsf//9ag8OuKh/GIABGIABGIABGBiWgcHl0TWQkUgE0tUHr8OCS31SnzAAAzAAAzCwGgYWJo9VtS3//OC+/PPUag4MoKh3GIABGIABGIABGBiegYXL4y9/eIc1dayrhAEYgAEYgAEYgIENYQB53JCG5Mpq+Csr6pQ6hQEYgAEYgIE2A8gj8siVIAzAAAzAAAzAAAwUM7BAeXxH/n7xvjBt3TZ2rmKoExiAARiAARiAgXVlYIHyWMlf/109sucb+Ss2X2zz6woS5eYkCAMwAAMwAAPTYGCh8qgh+v0X8ot+7iMSSaeaRqeinWlnGIABGICBTWZgofKoI48Xv5ALRB6JPMIADMAADMAADMDARjCwQHk0z3lkzSNXX5t89cWxwTcMwAAMwMDUGEAeuQraiKugqXVcjpfBCgZgAAZgYFUMII/II/IIAzAAAzAAAzAAA8UMII/AUgzLqq5wyJeraxiAARiAARgYDwPII/KIPMIADMAADMAADMBAMQMLk8cLf/hZHn7ws/z99+MxZa5aaAsYgAEYgAEYgAEYmI+BweXRSKN6OPh9+eep+QpH41J/MAADMAADMAADMDAuBgaXRxp4XA1Me9AeMAADMAADMAADQzKAPLLGoXiNw5DgkRYnMhiAARiAARhYTwaQR+QReYQBGIABGIABGICBYgaQR2AphoUrxPW8QqTdaDcYgAEYgIEhGUAekUfkEQZgAAZgAAZgAAaKGfj/O4BY/wyVDrUAAAAASUVORK5CYII=;" vertex="1" parent="1">
          <mxGeometry x="-300" y="420" width="317.87" height="198" as="geometry" />
        </mxCell>
        <mxCell id="2QA-D09SwO_3PhxoTyu0-19" value="" style="endArrow=none;dashed=1;html=1;dashPattern=1 3;strokeWidth=2;rounded=0;exitX=0.993;exitY=0.343;exitDx=0;exitDy=0;exitPerimeter=0;entryX=0;entryY=0.5;entryDx=0;entryDy=0;" edge="1" parent="1" source="2QA-D09SwO_3PhxoTyu0-18" target="2QA-D09SwO_3PhxoTyu0-16">
          <mxGeometry width="50" height="50" relative="1" as="geometry">
            <mxPoint x="30" y="560" as="sourcePoint" />
            <mxPoint x="80" y="510" as="targetPoint" />
          </mxGeometry>
        </mxCell>
      </root>
    </mxGraphModel>
  </diagram>
</mxfile>
